<svg width="75" height="25" viewBox="0 0 75 25" fill="none" xmlns="http://www.w3.org/2000/svg">
<path d="M1.40416 18.4704H5.2775V9.04747H7.36141V5.83101H5.2775V5.71776C5.2775 4.38134 5.79848 3.92832 7.29345 4.01892V0.734504C3.44276 0.530644 1.40416 2.16153 1.40416 5.46859V5.83101H-0.000213623L-0.000213623 9.04747H1.40416V18.4704ZM8.41132 12.128C8.41132 16.1146 10.8803 18.6516 13.9608 18.6516C15.8409 18.6516 17.1773 17.7908 17.8795 16.6809V18.4704H21.7528V5.83101H17.8795V7.62045C17.2 6.51055 15.8635 5.6498 13.9835 5.6498C10.8803 5.6498 8.41132 8.14143 8.41132 12.128ZM17.8795 12.1507C17.8795 14.1666 16.5884 15.2765 15.1161 15.2765C13.6664 15.2765 12.3526 14.144 12.3526 12.128C12.3526 10.1121 13.6664 9.02482 15.1161 9.02482C16.5884 9.02482 17.8795 10.1347 17.8795 12.1507ZM25.1666 14.076C25.1666 17.3604 27.0014 18.4704 29.6289 18.4704H31.5995V15.1859H30.2178C29.3571 15.1859 29.04 14.8688 29.04 14.1213V9.04747H31.5769V5.83101H29.04V2.75046H25.1666V5.83101H23.6263V9.04747H25.1666V14.076ZM35.6824 4.51725C37.0414 4.51725 37.9701 3.58855 37.9701 2.43334C37.9701 1.25548 37.0414 0.326782 35.6824 0.326782C34.3007 0.326782 33.372 1.25548 33.372 2.43334C33.372 3.58855 34.3007 4.51725 35.6824 4.51725ZM33.757 5.83101V20.1465C33.757 20.894 33.4399 21.2111 32.5792 21.2111H31.6505V24.4956H33.1681C35.7956 24.4956 37.6304 23.3857 37.6304 20.1012V5.83101H33.757ZM52.7828 12.1507C52.7828 8.14143 49.9287 5.6498 46.2139 5.6498C42.5218 5.6498 39.6451 8.14143 39.6451 12.1507C39.6451 16.1599 42.4538 18.6516 46.1686 18.6516C49.8834 18.6516 52.7828 16.1599 52.7828 12.1507ZM43.5864 12.1507C43.5864 9.99882 44.8096 9.00217 46.2139 9.00217C47.573 9.00217 48.8415 9.99882 48.8415 12.1507C48.8415 14.2799 47.5503 15.2992 46.1686 15.2992C44.7643 15.2992 43.5864 14.2799 43.5864 12.1507ZM60.4098 8.75301C61.701 8.75301 62.7882 9.5458 62.7882 10.9275H57.9409C58.1674 9.52315 59.1414 8.75301 60.4098 8.75301ZM66.4576 14.2799H62.3352C62.0181 14.9594 61.4065 15.5031 60.3192 15.5031C59.0734 15.5031 58.0541 14.7329 57.9182 13.0794H66.6841C66.7294 12.6943 66.752 12.3092 66.752 11.9468C66.752 8.09613 64.1473 5.6498 60.4552 5.6498C56.6951 5.6498 54.0675 8.14143 54.0675 12.1507C54.0675 16.1599 56.7404 18.6516 60.4552 18.6516C63.6037 18.6516 65.846 16.7489 66.4576 14.2799Z" fill="white"/>
<path d="M74.6876 16.5441C74.6876 15.2897 73.6801 14.3193 72.2059 14.3193C70.707 14.3193 69.6996 15.2897 69.6996 16.5441C69.6996 17.7512 70.707 18.7216 72.2059 18.7216C73.6801 18.7216 74.6876 17.7512 74.6876 16.5441Z" fill="white"/>
</svg>
