<svg width="25" height="24" viewBox="0 0 25 24" fill="none" xmlns="http://www.w3.org/2000/svg">
<g clip-path="url(#clip0_202_152)">
<path d="M6.5 2.10001L0.5 8.10001L3.5 9.95705L6.5 8.10001L8.19411 5.10001L6.5 2.10001Z" fill="#FF2820"/>
<path d="M6.5 8.10001H0.5V15.9L3.5 17.5474L6.5 15.9V8.10001Z" fill="#0084FF"/>
<path d="M0.5 15.9V19.9C0.5 21 1.4 21.9 2.50002 21.9H6.5L8.19411 18.7152L6.5 15.9H0.5Z" fill="#0066DD"/>
<path d="M23.261 4.2303L19.5501 7.16988V7.20002L18.3398 11.8205L19.5501 16.4964L23.2445 19.4697C23.7401 19.8857 24.5001 19.5363 24.5001 18.8875V4.81258C24.5001 4.16374 23.7566 3.81438 23.261 4.2303Z" fill="#00AD3C"/>
<path d="M19.55 7.16987V4.07705C19.55 2.98969 18.6691 2.10001 17.5925 2.10001H13.6775H6.5V8.10001H13.85V12L17.7989 11.5601L19.55 7.16987Z" fill="#FFBA00"/>
<path d="M13.85 15.9H6.5V21.9H13.6775H17.5925C18.6691 21.9 19.55 21.0116 19.55 19.9258V16.5L17.591 12.4753L13.85 12V15.9Z" fill="#00AD3C"/>
<path d="M13.8501 12L19.5501 16.5V7.16986L13.8501 12Z" fill="#00831E"/>
</g>
<defs>
<clipPath id="clip0_202_152">
<rect width="24" height="24" fill="white" transform="translate(0.5)"/>
</clipPath>
</defs>
</svg>
