<svg width="72" height="20" viewBox="0 0 72 20" fill="none" xmlns="http://www.w3.org/2000/svg">
<path d="M17.4612 13.7096C16.6995 17.3486 13.9635 20 9.08307 20C2.90529 20 0 15.6281 0 10.0986C0 4.56914 3.01861 0 9.28102 0C14.4712 0 16.9821 3.01862 17.4619 6.29038H13.2585C12.8354 4.76709 11.7919 3.27176 9.13973 3.27176C5.67002 3.27176 4.34395 6.40297 4.34395 9.95732C4.34395 13.2298 5.50076 16.6995 9.25232 16.6995C12.0171 16.6995 12.8633 14.8657 13.2298 13.7096H17.4612Z" fill="white"/>
<path d="M36.9812 9.92935C36.9812 15.3455 33.7374 20 27.4184 20C21.0993 20 18.1094 15.5714 18.1094 9.98602C18.1094 4.40062 21.6357 0 27.6722 0C33.3702 0 36.9812 3.97748 36.9812 9.92935ZM22.4533 9.90139C22.4533 13.7096 24.1179 16.5869 27.5589 16.5869C31.3105 16.5869 32.6365 13.4557 32.6365 9.98602C32.6365 6.29038 31.1132 3.41305 27.5022 3.41305C23.8912 3.41305 22.4526 6.12113 22.4526 9.90139H22.4533Z" fill="white"/>
<path d="M38.6738 0.28125H46.4028C52.0449 0.28125 55.7685 4.00485 55.7685 9.75951C55.7685 15.5142 52.1575 19.7176 46.2056 19.7176H38.6738V0.28125ZM42.8765 16.3325H46.0356C49.7592 16.3325 51.4238 13.5398 51.4238 9.75951C51.4238 6.57163 49.8726 3.66634 46.0643 3.66634H42.8765V16.3325Z" fill="white"/>
<path d="M70.8592 11.3395H61.5503V16.2758H71.8181L71.3103 19.7176H57.4595V0.28125H71.2537V3.723H61.5495V7.86974H70.8585V11.3395H70.8592Z" fill="white"/>
</svg>
