<svg width="143" height="31" viewBox="0 0 143 31" fill="none" xmlns="http://www.w3.org/2000/svg">
<path d="M3.16908 25.7716L7.22405 18.1008C7.2922 17.9759 7.29221 17.8303 7.22406 17.7054L4.49142 12.5937C4.42328 12.4619 4.42328 12.3024 4.49825 12.1776L8.77129 5.03384C8.93485 4.76335 9.31648 4.77029 9.47321 5.04079L14.809 14.425C14.9658 14.7024 15.361 14.7024 15.5178 14.425L20.8608 5.11732C21.0175 4.83989 21.406 4.8399 21.5695 5.11733L25.631 12.1711C25.706 12.2959 25.706 12.4485 25.6378 12.5734L22.9663 17.6988C22.905 17.8237 22.905 17.9693 22.9663 18.0872L26.9528 25.7652C27.0959 26.0426 26.8983 26.3755 26.5916 26.3755L24.1655 26.3755C24.0156 26.3755 23.8725 26.2922 23.8044 26.1535L19.6134 18.108C19.5521 17.9831 19.5521 17.8375 19.6134 17.7196L22.2849 12.5802C22.3531 12.4554 22.3463 12.3028 22.2781 12.1779L21.399 10.6521C21.2355 10.3746 20.8402 10.3816 20.6835 10.6659L16.9352 17.7195C16.8738 17.8305 16.867 17.9692 16.9215 18.0871L20.2947 25.7928C20.4174 26.0702 20.2198 26.3754 19.9199 26.3754L10.1815 26.3752C9.88167 26.3752 9.68404 26.0561 9.81353 25.7787L13.4119 18.087C13.4664 17.9622 13.4664 17.8235 13.3983 17.6986L9.43221 10.6241C9.27547 10.3466 8.88021 10.3466 8.72347 10.6171L7.83751 12.1499C7.76254 12.2747 7.76254 12.4343 7.83069 12.5591L10.5701 17.6847C10.6383 17.8095 10.6383 17.9552 10.5701 18.08L6.3107 26.1462C6.24255 26.278 6.09944 26.3682 5.94951 26.3682L3.53025 26.3681C3.22358 26.382 3.02596 26.0491 3.16908 25.7716Z" fill="white"/>
<path d="M16.5129 22.7749L15.5179 21.034C15.3612 20.7566 14.9728 20.7566 14.8092 21.034L13.8483 22.7125C13.6915 22.9899 13.8823 23.3367 14.2026 23.3367L16.1994 23.3367C16.4788 23.3367 16.656 23.0246 16.5129 22.7749Z" fill="#F3EB5C"/>
<path d="M41.2979 14.4184C41.5296 14.8207 41.7204 15.1882 41.8908 15.4865C42.0612 15.7986 42.2111 16.0691 42.3337 16.3119C42.4632 16.5546 42.5791 16.7696 42.6676 16.9708C42.7699 17.1719 42.8585 17.3592 42.947 17.5534C43.0288 17.3661 43.1242 17.1719 43.2128 16.9777C43.3151 16.7835 43.4241 16.5685 43.5468 16.3188C43.6763 16.0691 43.8194 15.7986 43.9898 15.4935C44.1601 15.1883 44.3578 14.8346 44.5827 14.4323L46.2319 11.4638C46.4159 11.1309 46.6544 10.8604 46.9339 10.6593C47.2133 10.4582 47.5676 10.3541 47.9833 10.3542C48.399 10.3542 48.7466 10.4721 49.0669 10.701C49.3872 10.9299 49.6257 11.2975 49.7688 11.7899L52.3651 20.9868L49.1962 20.9867L48.2285 17.3385C48.0582 16.742 47.9219 16.2218 47.8197 15.771C47.7038 15.3202 47.6084 14.8901 47.5335 14.4601C47.3563 14.8277 47.1655 15.23 46.9474 15.6669C46.7361 16.1108 46.4499 16.6657 46.1023 17.3523L44.712 19.9809C44.5825 20.2445 44.4462 20.4456 44.3099 20.5982C44.1736 20.7438 44.0305 20.8687 43.8874 20.945C43.7443 21.0282 43.5876 21.0837 43.424 21.1045C43.2536 21.1253 43.0833 21.1461 42.8856 21.1461C42.688 21.1461 42.5108 21.1322 42.3473 21.1045C42.1769 21.0837 42.027 21.0282 41.8839 20.9449C41.7408 20.8617 41.6045 20.7438 41.4613 20.5981C41.3182 20.4525 41.1888 20.2444 41.0593 19.9808L39.6691 17.3383C39.4851 16.9846 39.3216 16.6655 39.1717 16.3811C39.0285 16.1037 38.8991 15.8471 38.7832 15.6182C38.6674 15.3893 38.5652 15.1882 38.4766 15.0009C38.3948 14.8137 38.2994 14.6264 38.2244 14.453C38.1426 14.8691 38.0404 15.3061 37.9382 15.7569C37.8223 16.2077 37.6928 16.7348 37.5429 17.3313L36.5751 20.9795L33.4471 20.9794L36.1051 11.7827C36.2482 11.2972 36.4867 10.9296 36.8138 10.6938C37.141 10.458 37.509 10.347 37.9042 10.347C38.2995 10.347 38.6607 10.4511 38.9401 10.6383C39.2195 10.8325 39.458 11.11 39.642 11.4498L41.2979 14.4114L41.2979 14.4184Z" fill="white"/>
<path d="M68.1619 10.5278L64.918 13.5448C64.5568 13.8777 64.257 14.1551 64.0116 14.384C63.7663 14.6059 63.555 14.7932 63.3778 14.9527C63.2006 15.1122 63.0575 15.2301 62.9349 15.3272C62.819 15.4312 62.7168 15.5145 62.6214 15.5838C62.71 15.6463 62.819 15.7225 62.928 15.8197C63.0439 15.9098 63.187 16.0416 63.3778 16.215C63.5618 16.3884 63.7867 16.6034 64.0729 16.867C64.3455 17.1305 64.6999 17.4565 65.1156 17.8519L68.407 21.0008L63.9161 21.0007L60.4133 17.5397L56.8014 21.0005L52.8556 21.0005L56.2086 17.8517C56.597 17.4841 56.9242 17.1859 57.1899 16.9362C57.4557 16.6865 57.6806 16.4854 57.851 16.3328C58.0214 16.1802 58.1713 16.0554 58.2871 15.9583C58.403 15.8681 58.5052 15.7779 58.6006 15.7086C58.512 15.6392 58.403 15.556 58.294 15.4658C58.1781 15.3826 58.035 15.2508 57.8646 15.0913C57.6875 14.9318 57.4694 14.7237 57.2036 14.4809C56.9378 14.2312 56.6039 13.9191 56.2019 13.5377L53.0466 10.5344L57.4627 10.5345L60.7405 13.7944L64.0458 10.5346L68.1619 10.5347L68.1619 10.5278Z" fill="white"/>
<path d="M75.3722 10.3548C77.8732 10.3548 79.7541 10.7918 81.0012 11.6519C82.2619 12.5189 82.8821 13.8852 82.882 15.7579C82.882 17.6305 82.255 19.0107 81.0079 19.8777C79.7607 20.7446 77.873 21.1746 75.3652 21.1745C72.8573 21.1745 70.9628 20.7375 69.7157 19.8774C68.4754 19.0104 67.8485 17.6441 67.8485 15.7576C67.8486 13.871 68.4756 12.5255 69.7227 11.6516C70.9698 10.7847 72.8507 10.3547 75.3654 10.3548L75.3722 10.3548ZM75.372 18.4488C76.1694 18.4488 76.8509 18.4211 77.396 18.3448C77.9549 18.2755 78.3978 18.1437 78.7454 17.9495C79.0861 17.7484 79.3383 17.4779 79.495 17.1241C79.645 16.7774 79.7267 16.3196 79.7268 15.7509C79.7268 15.1821 79.6518 14.7313 79.4951 14.3776C79.3452 14.0308 79.093 13.7603 78.7455 13.5661C78.3979 13.3719 77.955 13.2401 77.3961 13.1777C76.8373 13.1083 76.1695 13.0736 75.3721 13.0736C74.5748 13.0736 73.8933 13.1013 73.3481 13.1776C72.7961 13.2469 72.3464 13.3787 71.9988 13.566C71.658 13.7601 71.4059 14.0306 71.2491 14.3774C71.0924 14.7242 71.0174 15.182 71.0174 15.7507C71.0174 16.3194 71.0924 16.7703 71.2491 17.124C71.399 17.4708 71.6512 17.7413 71.9987 17.9494C72.3394 18.1505 72.7892 18.2823 73.348 18.3447C73.9 18.4071 74.5747 18.4488 75.372 18.4488Z" fill="white"/>
<path d="M95.6527 18.2961L93.5946 20.9872L84.5104 20.987L84.5106 10.514L87.6931 10.514L87.693 18.296L95.6527 18.2961Z" fill="white"/>
<path d="M103.511 10.3548C106.012 10.3548 107.893 10.7918 109.14 11.6519C110.4 12.5189 111.02 13.8852 111.02 15.7579C111.02 17.6305 110.393 19.0107 109.146 19.8777C107.899 20.7446 106.011 21.1746 103.504 21.1745C100.996 21.1745 99.1012 20.7375 97.8541 19.8774C96.6138 19.0104 95.9869 17.6441 95.987 15.7576C95.987 13.871 96.614 12.5255 97.8611 11.6516C99.1082 10.7778 100.989 10.3547 103.504 10.3548L103.511 10.3548ZM103.51 18.4488C104.308 18.4488 104.989 18.4211 105.534 18.3448C106.093 18.2755 106.536 18.1437 106.884 17.9495C107.225 17.7484 107.477 17.4779 107.633 17.1241C107.783 16.7774 107.865 16.3196 107.865 15.7509C107.865 15.1821 107.79 14.7313 107.634 14.3776C107.484 14.0308 107.231 13.7603 106.884 13.5661C106.543 13.3719 106.093 13.2401 105.535 13.1777C104.976 13.1083 104.308 13.0736 103.511 13.0736C102.713 13.0736 102.032 13.1013 101.487 13.1776C100.928 13.2469 100.485 13.3787 100.137 13.566C99.7965 13.7601 99.5443 14.0306 99.3876 14.3774C99.2376 14.7242 99.1559 15.182 99.1558 15.7507C99.1558 16.3194 99.2308 16.7703 99.3875 17.124C99.5374 17.4708 99.7896 17.7413 100.137 17.9494C100.478 18.1505 100.928 18.2823 101.486 18.3447C102.038 18.4071 102.713 18.4488 103.51 18.4488Z" fill="white"/>
<path d="M118.994 14.4545L125.57 14.4547L125.57 20.9951L118.51 20.995C117.617 20.9949 116.793 20.8631 116.036 20.5926C115.273 20.3221 114.626 19.9476 114.08 19.4759C113.528 19.0043 113.106 18.4355 112.786 17.7836C112.472 17.1316 112.315 16.4242 112.315 15.6682C112.315 14.9122 112.465 14.2117 112.786 13.5805C113.099 12.9494 113.535 12.4084 114.08 11.9506C114.633 11.4998 115.287 11.1461 116.036 10.9034C116.8 10.6537 117.624 10.5358 118.51 10.5358L125.87 10.536L123.812 13.2617L118.51 13.2616C118.081 13.2616 117.679 13.324 117.311 13.4488C116.943 13.5737 116.622 13.754 116.35 13.9829C116.077 14.2117 115.859 14.4822 115.709 14.7874C115.559 15.0926 115.477 15.4393 115.477 15.8139C115.477 16.1884 115.552 16.5283 115.696 16.8404C115.839 17.1525 116.057 17.4161 116.329 17.6311C116.602 17.8461 116.922 18.0195 117.29 18.1443C117.658 18.2622 118.06 18.3247 118.503 18.3247L122.388 18.3248L122.388 16.8058L117.065 16.8057L118.98 14.4615L118.994 14.4545Z" fill="white"/>
<path d="M142.137 10.5296L136.031 17.5415L136.031 21.0024L132.828 21.0024L132.828 17.5275L126.558 10.5292L130.654 10.5293L133.114 13.4355C133.196 13.5256 133.305 13.6505 133.435 13.8031C133.564 13.9487 133.707 14.1152 133.843 14.2816C133.987 14.455 134.116 14.6076 134.239 14.7533C134.361 14.8989 134.45 15.0099 134.498 15.0793C134.6 14.9336 134.75 14.7394 134.941 14.4828C135.138 14.2331 135.418 13.8794 135.786 13.4216L138.123 10.5295L142.13 10.5296L142.137 10.5296Z" fill="white"/>
</svg>
