<svg width="95" height="21" viewBox="0 0 95 21" fill="none" xmlns="http://www.w3.org/2000/svg">
<path d="M26.6181 20.7677C26.2772 20.6827 25.9315 20.6142 25.5965 20.5108C23.1911 19.7711 21.5419 17.5367 21.5265 14.9595C21.5111 12.2886 21.5083 9.61872 21.5296 6.94785C21.5393 5.78816 21.7063 4.64295 22.1921 3.57211C23.2089 1.33289 24.8756 0.0670136 27.4064 0.0718932C31.3799 0.0806646 35.3533 0.0604678 39.3268 0.0788953C42.354 0.0924755 44.7467 1.84896 45.5549 4.59709C46.755 8.67777 43.7288 12.74 39.4801 12.7457C35.8764 12.7505 32.2728 12.7456 28.6692 12.7474C27.5722 12.7474 27.0662 13.4368 27.3656 14.4932C27.5027 14.977 27.831 15.2029 28.3003 15.2638C28.4586 15.2841 28.6218 15.2706 28.7821 15.2706C33.2065 15.2706 37.6299 15.2688 42.0543 15.2728C43.41 15.2737 44.506 16.0366 44.8604 17.206C45.3248 18.7364 44.4576 20.2302 42.8557 20.6609C42.7514 20.6889 42.651 20.7323 42.5486 20.768L26.6161 20.7677L26.6181 20.7677ZM33.8314 8.08848C35.6641 8.08852 37.4968 8.09532 39.3295 8.0857C40.1551 8.08185 40.5578 7.685 40.5897 6.8932C40.6235 6.06278 40.2517 5.63018 39.4271 5.54905C39.2997 5.5365 39.1703 5.54132 39.0418 5.54132C35.5377 5.54125 32.0325 5.53925 28.5283 5.544C28.2889 5.544 28.0455 5.56234 27.8109 5.60965C27.4382 5.68496 27.191 5.91091 27.0664 6.28266C26.7583 7.19902 27.3609 8.07966 28.3342 8.08547C30.1669 8.0971 31.9996 8.08845 33.8324 8.08848L33.8314 8.08848Z" fill="white"/>
<path d="M75.3261 20.7682C74.906 20.6784 74.4792 20.6118 74.0679 20.4939C71.7012 19.816 70.0646 17.7129 70.0443 15.2526C70.0183 12.0506 70.0184 8.84866 70.0445 5.64671C70.0697 2.66105 72.4239 0.186253 75.398 0.141895C79.8861 0.0753601 84.3762 0.0812452 88.8643 0.133479C91.5419 0.164433 93.7782 2.20384 94.2465 4.86409C94.2629 4.95486 94.3141 5.03887 94.3488 5.12674L94.3486 15.7484C94.3148 15.8363 94.2656 15.9213 94.2501 16.012C93.9391 17.9172 92.875 19.2873 91.1794 20.1293C90.5218 20.4557 89.7551 20.5628 89.0377 20.7695L75.3261 20.7692L75.3261 20.7682ZM82.1636 15.3059C83.7241 15.3059 85.2845 15.3089 86.8449 15.306C87.9988 15.3031 88.6689 14.6359 88.6719 13.4782C88.6767 11.4349 88.6768 9.39171 88.672 7.34945C88.6691 6.24093 87.9382 5.50899 86.8248 5.50704C83.7204 5.50214 80.615 5.50208 77.5106 5.50685C76.3876 5.50875 75.673 6.22812 75.6711 7.34436C75.6681 9.38758 75.6691 11.4308 75.671 13.4731C75.6709 14.6385 76.3246 15.301 77.4824 15.3039C79.0428 15.3078 80.6032 15.3039 82.1636 15.3059Z" fill="white"/>
<path d="M57.2946 20.7683C56.412 20.4921 55.4889 20.3057 54.6575 19.9204C53.2265 19.257 52.1142 18.162 51.5474 16.6933C49.9156 12.461 48.363 8.19879 46.7959 3.94237C46.4126 2.90047 46.4561 1.88273 47.2257 1.00114C48.5157 -0.47524 51.0138 -0.190336 51.8393 1.59702C52.5171 3.06379 53.0308 4.60684 53.6034 6.12092C54.6182 8.80532 55.6224 11.4936 56.6314 14.1799C56.6825 14.3151 56.7385 14.4484 56.8032 14.5768C57.0369 15.0403 57.3961 15.3338 57.9291 15.3619C58.4727 15.3908 58.8812 15.1147 59.0956 14.6551C59.4963 13.8005 59.8633 12.9266 60.1906 12.0402C61.2982 9.04879 62.373 6.04674 63.4826 3.05628C63.6989 2.47306 63.9702 1.89853 64.2956 1.37035C64.9194 0.359377 65.9864 -0.0364994 67.1857 0.224239C68.1909 0.442486 69.1179 1.36369 69.2472 2.40655C69.3119 2.92991 69.308 3.51893 69.1342 4.00559C67.6809 8.06497 66.2372 12.1292 64.6748 16.147C63.6754 18.7155 61.7142 20.2402 58.9603 20.6833C58.8849 20.6959 58.8154 20.7393 58.742 20.7693L57.2936 20.7692L57.2946 20.7683Z" fill="white"/>
<path d="M0.0717924 5.31806C0.157739 4.93086 0.222443 4.53689 0.333495 4.15645C1.05968 1.67679 3.23909 0.0913048 5.99299 0.078808C9.94908 0.0615077 13.9042 0.0673819 17.8603 0.0780842C19.4149 0.0819783 20.3718 0.766612 20.6837 2.04315C21.1326 3.87974 19.8667 5.50869 17.9838 5.51059C14.5906 5.51341 11.1975 5.51045 7.80532 5.51134C6.55873 5.51132 5.90017 6.16599 5.89532 7.40582C5.88269 10.8463 5.87007 14.2867 5.85938 17.7272C5.85452 19.3465 5.06946 20.3246 3.47331 20.6935C3.43082 20.7031 3.39413 20.7427 3.3555 20.7678L2.29334 20.7678C1.49189 20.5235 0.807282 20.1189 0.446162 19.3223C0.291672 18.9804 0.195119 18.6125 0.0724944 18.2572C0.0725823 13.9438 0.0726701 9.63143 0.072758 5.31806L0.0717924 5.31806Z" fill="white"/>
</svg>
