<svg width="110" height="32" viewBox="0 0 110 32" fill="none" xmlns="http://www.w3.org/2000/svg">
<g clip-path="url(#clip0_138_277)">
<mask id="mask0_138_277" style="mask-type:luminance" maskUnits="userSpaceOnUse" x="0" y="1" width="29" height="31">
<path d="M28.5425 1.73476L0.713867 1.73236L0.711346 31.0197L28.54 31.0221L28.5425 1.73476Z" fill="white"/>
</mask>
<g mask="url(#mask0_138_277)">
<path d="M11.5176 4.97053L2.87861 4.96979C1.69599 4.96969 0.737244 5.67854 0.737168 6.55306L0.736619 12.9414C0.736543 13.816 1.69517 14.525 2.87778 14.5251L11.5168 14.5258C12.6994 14.5259 13.6582 13.8171 13.6583 12.9425L13.6588 6.55417C13.6589 5.67965 12.7002 4.97063 11.5176 4.97053Z" fill="white"/>
<path d="M26.555 2.16655L17.1378 2.16574C16.17 2.16566 15.3855 2.85896 15.3854 3.71428L15.3843 17.2329C15.3842 18.0882 16.1686 18.7817 17.1364 18.7818L26.5536 18.7826C27.5213 18.7827 28.3059 18.0893 28.3059 17.234L28.3071 3.71539C28.3072 2.86008 27.5227 2.16663 26.555 2.16655Z" fill="white"/>
<path d="M11.9058 16.2522L2.48856 16.2514C1.52083 16.2513 0.736251 17.1521 0.736155 18.2633L0.735304 28.1449C0.735209 29.2562 1.51963 30.157 2.48737 30.1571L11.9046 30.1579C12.8723 30.158 13.6569 29.2573 13.657 28.146L13.6578 18.2644C13.6579 17.1532 12.8735 16.2523 11.9058 16.2522Z" fill="white"/>
<path d="M26.3803 20.5089L17.5681 20.5081C16.3619 20.508 15.3839 21.3824 15.3838 22.4611L15.3833 28.205C15.3832 29.2837 16.361 30.1583 17.5673 30.1584L26.3795 30.1591C27.5859 30.1592 28.5638 29.2848 28.5639 28.2061L28.5644 22.4623C28.5645 21.3835 27.5867 20.509 26.3803 20.5089Z" fill="white"/>
</g>
<path d="M38.3024 6.01077L41.7067 6.01106L43.7165 11.8368L43.7606 11.8368L45.7714 6.01141L49.1757 6.0117L49.1748 16.2834L46.9297 16.2832L46.9303 9.23976L46.8716 9.23975L44.4645 16.283L43.0118 16.2829L40.6059 9.23921L40.5472 9.23921L40.5466 16.2827L38.3015 16.2825L38.3024 6.01077ZM51.5165 6.0119L53.8203 6.0121L53.8194 16.2838L51.5156 16.2836L51.5165 6.0119ZM56.1851 5.99763L60.2351 5.99798C61.1449 5.99806 61.947 6.20356 62.6416 6.61449C63.336 7.01563 63.8741 7.60266 64.2555 8.37549C64.6468 9.13857 64.8424 10.0533 64.8423 11.1196C64.8422 12.2054 64.6464 13.1348 64.2551 13.9076C63.8636 14.6803 63.3158 15.2672 62.6114 15.6683C61.9168 16.0693 61.1147 16.2698 60.2049 16.2697L56.1842 16.2694L56.1851 5.99763ZM59.7795 14.2153C60.5817 14.2154 61.2176 13.9856 61.6872 13.5258C62.1568 13.066 62.3916 12.2639 62.3917 11.1193C62.3918 9.97479 62.1571 9.17262 61.6876 8.71277C61.2278 8.25292 60.5919 8.023 59.78 8.02293L58.4007 8.02281L58.4002 14.2152L59.7795 14.2153ZM73.32 14.2899L73.3198 16.2855L66.7019 16.2849L66.7028 6.01321L69.0066 6.01341L68.9912 14.2895L73.32 14.2899ZM80.982 13.909L77.6951 13.9087L76.9612 16.2858L74.6427 16.2856L78.2974 6.01421L80.4251 6.01439L84.0487 16.2864L81.7302 16.2862L80.982 13.909ZM80.4246 12.1627L79.3683 8.84636L79.2803 8.84635L78.2528 12.1626L80.4246 12.1627ZM85.6028 6.01484L88.2584 6.01507L92.0143 12.78L92.0583 12.7801L92.0589 6.01539L94.3187 6.01559L94.3178 16.302L91.6325 16.3018L87.9059 9.78622L87.8618 9.78622L87.8613 16.3014L85.6019 16.3012L85.6028 6.01484ZM96.5647 6.00111L100.615 6.00146C101.524 6.00154 102.326 6.20704 103.021 6.61797C103.716 7.01911 104.254 7.60614 104.635 8.37897C105.026 9.14204 105.222 10.0568 105.222 11.123C105.222 12.2089 105.026 13.1383 104.635 13.911C104.244 14.6838 103.695 15.2707 102.991 15.6718C102.296 16.0728 101.494 16.2733 100.584 16.2732L96.5638 16.2728L96.5647 6.00111ZM100.159 14.2188C100.961 14.2189 101.597 13.9891 102.067 13.5293C102.536 13.0695 102.771 12.2674 102.771 11.1228C102.771 9.97826 102.537 9.1761 102.067 8.71624C101.607 8.25639 100.972 8.02648 100.16 8.02641L98.7802 8.02629L98.7797 14.2187L100.159 14.2188Z" fill="white"/>
<path d="M41.0199 26.7467C40.5669 26.7467 40.1777 26.69 39.8521 26.5767C39.5336 26.4564 39.2682 26.3042 39.0558 26.1201C38.8435 25.929 38.6737 25.7308 38.5463 25.5255C38.4189 25.3203 38.3234 25.1256 38.2597 24.9416C38.196 24.7505 38.1535 24.5983 38.1323 24.485C38.1182 24.3647 38.1111 24.3045 38.1111 24.3045L39.1728 24.3046C39.1728 24.3046 39.1834 24.3542 39.2046 24.4533C39.2258 24.5524 39.2683 24.6762 39.332 24.8249C39.4028 24.9735 39.5054 25.1257 39.6398 25.2814C39.7743 25.4301 39.9548 25.554 40.1813 25.6531C40.4078 25.7522 40.6944 25.8018 41.0412 25.8018C41.565 25.8018 41.9791 25.678 42.2835 25.4303C42.5878 25.1755 42.74 24.8464 42.7401 24.443C42.7401 24.0961 42.6233 23.8272 42.3898 23.636C42.1633 23.4449 41.8377 23.2963 41.4131 23.19L40.3726 22.9352C40.0046 22.8431 39.6613 22.7157 39.3428 22.5528C39.0314 22.383 38.7801 22.1635 38.5891 21.8945C38.4051 21.6185 38.3131 21.2752 38.3131 20.8647C38.3131 20.4046 38.4264 20.0118 38.6529 19.6862C38.8795 19.3606 39.1874 19.1129 39.5767 18.9431C39.966 18.7662 40.4084 18.6777 40.9038 18.6778C41.3851 18.6778 41.785 18.7522 42.1035 18.9008C42.422 19.0495 42.6768 19.2336 42.8679 19.453C43.059 19.6653 43.2005 19.8812 43.2925 20.1007C43.3845 20.313 43.4447 20.4935 43.473 20.6421C43.5013 20.7908 43.5154 20.8651 43.5154 20.8651L42.4962 20.865C42.4962 20.865 42.4821 20.8013 42.4537 20.6739C42.4254 20.5465 42.3582 20.4014 42.2521 20.2386C42.1459 20.0687 41.9831 19.9201 41.7637 19.7926C41.5443 19.6652 41.247 19.6015 40.8719 19.6015C40.3623 19.6014 39.9765 19.7217 39.7146 19.9623C39.4598 20.203 39.3324 20.479 39.3323 20.7904C39.3323 21.0735 39.4349 21.3036 39.6402 21.4806C39.8454 21.6504 40.1285 21.7814 40.4895 21.8735L41.6149 22.1496C42.0183 22.2487 42.3828 22.3939 42.7084 22.585C43.034 22.769 43.2923 23.0097 43.4834 23.307C43.6745 23.5972 43.77 23.9547 43.7699 24.3794C43.7699 24.804 43.6637 25.1969 43.4513 25.5578C43.246 25.9188 42.9381 26.2089 42.5276 26.4283C42.1241 26.6406 41.6216 26.7468 41.0199 26.7467ZM47.4089 26.7473C46.8286 26.7472 46.3897 26.5985 46.0925 26.3012C45.8023 26.0039 45.6572 25.5863 45.6573 25.0484L45.6576 21.8421L44.6489 21.842L44.649 21.0138L45.6576 21.0139L45.6578 19.6019L46.6664 19.602L46.6663 21.014L48.0358 21.0141L48.0358 21.8423L46.6662 21.8421L46.6659 25.0485C46.6659 25.3316 46.7437 25.5404 46.8994 25.6749C47.0551 25.8023 47.2816 25.866 47.5789 25.8661C47.7346 25.8661 47.8832 25.8555 48.0248 25.8343C48.1664 25.813 48.2372 25.8024 48.2372 25.8024L48.2371 26.6624C48.2371 26.6624 48.1557 26.6765 47.9929 26.7048C47.8301 26.7331 47.6354 26.7473 47.4089 26.7473ZM52.0189 26.7477C51.4173 26.7476 50.9112 26.6095 50.5007 26.3335C50.0902 26.0503 49.7788 25.6858 49.5665 25.2398C49.3542 24.7939 49.2481 24.3232 49.2481 23.8277C49.2481 23.3252 49.3544 22.8545 49.5667 22.4157C49.7791 21.9698 50.0906 21.6089 50.5011 21.3329C50.9117 21.0498 51.4178 20.9083 52.0194 20.9083C52.621 20.9084 53.1271 21.05 53.5376 21.3331C53.9481 21.6092 54.2595 21.9702 54.4718 22.4161C54.6841 22.855 54.7902 23.3257 54.7902 23.8282C54.7901 24.3237 54.6839 24.7944 54.4715 25.2403C54.2592 25.6861 53.9477 26.0506 53.5371 26.3337C53.1266 26.6097 52.6205 26.7477 52.0189 26.7477ZM52.019 25.8664C52.4012 25.8665 52.7197 25.771 52.9745 25.5799C53.2364 25.3817 53.4311 25.1269 53.5585 24.8155C53.693 24.5041 53.7603 24.175 53.7603 23.8281C53.7604 23.4742 53.6931 23.1451 53.5587 22.8407C53.4313 22.5293 53.2367 22.278 52.9748 22.0869C52.72 21.8887 52.4015 21.7896 52.0193 21.7895C51.6442 21.7895 51.3257 21.8885 51.0638 22.0867C50.8019 22.2778 50.6036 22.529 50.4691 22.8405C50.3417 23.1448 50.278 23.4739 50.2779 23.8278C50.2779 24.1747 50.3416 24.5038 50.469 24.8152C50.6034 25.1267 50.8016 25.3815 51.0635 25.5797C51.3253 25.7708 51.6438 25.8664 52.019 25.8664ZM56.1659 26.6418L56.1664 21.0148L57.175 21.0149L57.1749 21.8324L57.2386 21.8324C57.2882 21.7475 57.3696 21.6307 57.4829 21.4821C57.6032 21.3335 57.7731 21.2025 57.9925 21.0893C58.2119 20.969 58.488 20.9089 58.8206 20.9089C59.2312 20.9089 59.5815 21.0045 59.8717 21.1956C60.1619 21.3797 60.3813 21.631 60.5299 21.9495C60.6856 22.268 60.7634 22.6255 60.7634 23.0218L60.7631 26.6422L59.7545 26.6422L59.7548 23.0855C59.7548 22.7103 59.6486 22.3989 59.4363 22.1511C59.2311 21.9034 58.9303 21.7795 58.5339 21.7795C58.2154 21.7794 57.9571 21.8608 57.7589 22.0236C57.5607 22.1793 57.412 22.3881 57.3129 22.6499C57.2209 22.9047 57.1748 23.1772 57.1748 23.4674L57.1745 26.6419L56.1659 26.6418ZM64.8106 26.7488C64.3506 26.7487 63.9507 26.6673 63.6109 26.5045C63.2783 26.3346 63.0023 26.108 62.7829 25.8249C62.5706 25.5418 62.4113 25.2303 62.3052 24.8906C62.199 24.5437 62.146 24.1898 62.146 23.8289C62.1461 23.475 62.1956 23.1246 62.2948 22.7778C62.401 22.431 62.5602 22.116 62.7726 21.8329C62.992 21.5498 63.2646 21.3269 63.5902 21.1641C63.9228 20.9943 64.3157 20.9094 64.7687 20.9094C65.25 20.9094 65.6747 21.0192 66.0427 21.2386C66.4107 21.4581 66.7009 21.7837 66.9132 22.2155C67.1255 22.6473 67.2316 23.1887 67.2316 23.8399L67.2315 24.1372L63.1652 24.1368C63.1864 24.4553 63.2607 24.7491 63.3881 25.0181C63.5226 25.28 63.7101 25.4923 63.9508 25.6551C64.1914 25.8109 64.478 25.8888 64.8107 25.8888C65.1009 25.8888 65.3345 25.8428 65.5114 25.7508C65.6955 25.6517 65.8406 25.5385 65.9468 25.4111C66.053 25.2837 66.1237 25.174 66.1591 25.082C66.2016 24.9829 66.2229 24.9334 66.2229 24.9334L67.1678 24.9335C67.1678 24.9335 67.1501 24.9972 67.1147 25.1246C67.0793 25.2449 67.0156 25.3935 66.9235 25.5705C66.8315 25.7474 66.697 25.9279 66.52 26.1119C66.3431 26.2888 66.1166 26.441 65.8405 26.5684C65.5645 26.6887 65.2212 26.7488 64.8106 26.7488ZM63.1759 23.3512L66.2442 23.3514C66.2301 22.9834 66.1523 22.6861 66.0107 22.4596C65.8692 22.226 65.6887 22.0526 65.4693 21.9393C65.2499 21.826 65.0163 21.7694 64.7686 21.7694C64.3227 21.7693 63.9582 21.9144 63.675 22.2046C63.3919 22.4877 63.2255 22.8699 63.1759 23.3512ZM71.1607 26.6431L71.1614 18.7866L73.9643 18.7868C74.5659 18.7868 75.0649 18.9108 75.4613 19.1585C75.8647 19.4063 76.1655 19.7284 76.3636 20.1247C76.5689 20.5141 76.6715 20.921 76.6714 21.3457C76.6714 21.7775 76.5687 22.1915 76.3634 22.5879C76.1652 22.9772 75.8644 23.2992 75.4609 23.554C75.0645 23.8017 74.5655 23.9255 73.9639 23.9254L72.2014 23.9253L72.2012 26.6432L71.1607 26.6431ZM73.9642 19.6999L72.2018 19.6997L72.2015 23.0122L73.9639 23.0124C74.3391 23.0124 74.6505 22.931 74.8983 22.7683C75.146 22.6055 75.33 22.4002 75.4504 22.1525C75.5778 21.8977 75.6415 21.6323 75.6416 21.3563C75.6416 21.0802 75.5779 20.8148 75.4505 20.56C75.3302 20.3051 75.1462 20.0999 74.8985 19.9441C74.6508 19.7813 74.3394 19.6999 73.9642 19.6999ZM80.1222 20.9107C80.4761 20.9108 80.7734 20.9674 81.014 21.0807C81.2547 21.1939 81.4493 21.3284 81.5979 21.4842C81.7466 21.6328 81.8598 21.7744 81.9377 21.9089L82.0014 21.9089L82.0014 21.0171L83.01 21.0171L83.0096 26.6442L82.0009 26.6441L82.001 25.7522L81.9373 25.7522C81.8595 25.8867 81.7462 26.0318 81.5975 26.1875C81.4489 26.3432 81.2542 26.4777 81.0136 26.5909C80.7729 26.697 80.4756 26.7501 80.1217 26.7501C79.6971 26.75 79.3255 26.6686 79.007 26.5058C78.6885 26.3359 78.4231 26.1129 78.2107 25.8368C77.9984 25.5537 77.8392 25.2387 77.7331 24.8919C77.6269 24.5451 77.5739 24.1912 77.5739 23.8302C77.5739 23.4692 77.6271 23.1153 77.7333 22.7685C77.8395 22.4217 77.9987 22.1103 78.2111 21.8342C78.4235 21.5511 78.6889 21.3282 79.0074 21.1654C79.326 20.9956 79.6976 20.9107 80.1222 20.9107ZM80.292 21.7707C79.9169 21.7707 79.6019 21.8733 79.3471 22.0785C79.0923 22.2767 78.9011 22.5315 78.7737 22.8429C78.6534 23.1543 78.5932 23.4834 78.5931 23.8303C78.5931 24.17 78.6532 24.4991 78.7735 24.8177C78.9009 25.1291 79.092 25.3875 79.3468 25.5928C79.6016 25.791 79.9165 25.8901 80.2917 25.8901C80.6668 25.8901 80.9783 25.7911 81.226 25.5929C81.4808 25.3877 81.6684 25.1293 81.7888 24.8179C81.9162 24.4994 81.9799 24.1703 81.98 23.8306C81.98 23.4837 81.9163 23.1546 81.7889 22.8432C81.6686 22.5317 81.4811 22.2769 81.2263 22.0787C80.9786 21.8734 80.6672 21.7707 80.292 21.7707ZM86.0573 26.6444L83.9132 21.0172L84.9643 21.0173L86.6095 25.4129L88.2234 21.0176L89.2851 21.0177L87.1293 26.6445L86.0573 26.6444ZM91.0608 19.9455C90.8691 19.9455 90.7103 19.8818 90.5826 19.7544C90.4626 19.627 90.4022 19.4748 90.4022 19.2978C90.4022 19.1138 90.4627 18.9581 90.5827 18.8307C90.7104 18.7033 90.8692 18.6396 91.0609 18.6396C91.2447 18.6396 91.4001 18.7034 91.5278 18.8308C91.6547 18.9582 91.7186 19.1139 91.7186 19.2979C91.7185 19.4749 91.6547 19.6271 91.5278 19.7545C91.4 19.8818 91.2446 19.9455 91.0608 19.9455ZM90.5604 26.6448L90.5609 21.0178L91.5699 21.0179L91.5695 26.6449L90.5604 26.6448ZM93.2008 26.645L93.2013 21.018L94.2104 21.0181L94.2103 21.8356L94.2733 21.8356C94.3234 21.7507 94.4045 21.6339 94.5176 21.4853C94.6385 21.3367 94.8085 21.2057 95.0278 21.0925C95.247 20.9722 95.5233 20.9121 95.8556 20.9121C96.2665 20.9121 96.6169 21.0077 96.9069 21.1988C97.1969 21.3829 97.4161 21.6342 97.5646 21.9527C97.7208 22.2712 97.7984 22.6287 97.7984 23.025L97.7981 26.6454L96.7899 26.6453L96.7902 23.0886C96.7902 22.7135 96.6841 22.4021 96.4718 22.1543C96.2664 21.9066 95.9651 21.7827 95.5689 21.7826C95.2504 21.7826 94.9923 21.864 94.7938 22.0268C94.5961 22.1825 94.4468 22.3913 94.3483 22.6531C94.256 22.9079 94.2102 23.1804 94.2102 23.4706L94.2099 26.6451L93.2008 26.645ZM101.995 28.8754C101.527 28.8753 101.138 28.8116 100.827 28.6841C100.515 28.5638 100.264 28.4081 100.072 28.2169C99.8886 28.0329 99.7505 27.8489 99.659 27.6648C99.5667 27.4808 99.5063 27.3251 99.4778 27.1977C99.4502 27.0773 99.4355 27.0172 99.4355 27.0172L100.445 27.0172C100.445 27.0172 100.462 27.0668 100.497 27.1659C100.533 27.265 100.6 27.3782 100.699 27.5057C100.805 27.6331 100.961 27.7463 101.166 27.8454C101.372 27.9445 101.648 27.9941 101.995 27.9941C102.405 27.9942 102.727 27.9128 102.961 27.75C103.194 27.5943 103.36 27.3891 103.46 27.1343C103.566 26.8795 103.618 26.6105 103.618 26.3274L103.619 25.6798L103.566 25.6798C103.495 25.8001 103.382 25.9381 103.226 26.0938C103.077 26.2424 102.88 26.3734 102.632 26.4866C102.384 26.5927 102.079 26.6458 101.719 26.6458C101.294 26.6457 100.922 26.5643 100.603 26.4015C100.285 26.2387 100.02 26.0192 99.8076 25.7432C99.6022 25.4671 99.4469 25.1592 99.3407 24.8194C99.2346 24.4797 99.1811 24.1329 99.1811 23.779C99.1812 23.4251 99.2347 23.0782 99.3409 22.7385C99.4471 22.3988 99.6025 22.0909 99.808 21.8149C100.02 21.5388 100.285 21.3194 100.604 21.1567C100.922 20.9939 101.294 20.9125 101.719 20.9126C102.08 20.9126 102.385 20.9693 102.632 21.0825C102.88 21.1887 103.078 21.3161 103.226 21.4648C103.382 21.6134 103.495 21.7515 103.566 21.8789L103.619 21.8789L103.619 21.0189L104.628 21.019L104.628 26.3169C104.627 27.1025 104.397 27.7254 103.937 28.1854C103.484 28.6455 102.836 28.8754 101.995 28.8754ZM101.909 25.7858C102.285 25.7858 102.597 25.6903 102.844 25.4992C103.099 25.3011 103.286 25.0498 103.406 24.7455C103.534 24.4411 103.598 24.1191 103.598 23.7793C103.598 23.4396 103.534 23.1175 103.406 22.8132C103.286 22.5017 103.099 22.2504 102.845 22.0593C102.597 21.8682 102.285 21.7726 101.91 21.7726C101.535 21.7725 101.22 21.8681 100.965 22.0592C100.71 22.2502 100.519 22.5015 100.391 22.8129C100.271 23.1173 100.211 23.4393 100.211 23.779C100.211 24.1188 100.271 24.4408 100.391 24.7452C100.519 25.0496 100.71 25.3009 100.964 25.4991C101.22 25.6902 101.535 25.7858 101.909 25.7858Z" fill="white"/>
</g>
<defs>
<clipPath id="clip0_138_277">
<rect width="108.759" height="31.0741" fill="white" transform="translate(0.690247 0.86908)"/>
</clipPath>
</defs>
</svg>
