<svg width="58" height="33" viewBox="0 0 58 33" fill="none" xmlns="http://www.w3.org/2000/svg">
<g clip-path="url(#clip0_138_302)">
<path d="M51.8597 8.49078L48.3651 8.49071L48.3649 14.0821L51.8596 14.0822L51.8595 17.5768L48.3649 17.5768L48.3647 24.566L51.8594 24.5661L51.8593 28.0608L46.0349 28.0606L46.0353 4.99603L51.8598 4.99615L51.8597 8.49078Z" fill="white"/>
<path d="M43.9378 4.99597L43.9378 8.4906L40.4431 8.49053L40.443 14.0819L43.9376 14.082L43.9376 17.5766L40.4429 17.5766L40.4427 28.0605L38.113 28.0605L38.1135 4.99585L43.9378 4.99597Z" fill="white"/>
<path d="M29.9595 28.0603L29.96 4.99573L32.2897 4.99578L32.2893 24.5657L35.784 24.5658L35.7839 28.0605L29.9595 28.0603Z" fill="white"/>
<path d="M26.0038 5.00493C27.6952 5.12611 29.0278 6.53332 29.0278 8.25735L29.0274 24.5656C29.0274 26.2058 27.8159 27.5617 26.2363 27.79L26.2363 27.8273L22.5041 27.8272L22.5045 4.99554L25.9992 4.99562L25.9992 5.00493L26.0038 5.00493ZM24.8342 8.45298L24.8338 24.3652L26.6976 24.3653L26.698 8.45302L24.8342 8.45298Z" fill="white"/>
<path d="M15.9793 27.8271L15.9798 4.99542L18.2163 4.99547L18.216 24.3697L21.5708 24.3698L21.5707 27.8272L15.9793 27.8271Z" fill="white"/>
<path d="M8.39464 21.0193L9.69008 15.9451L10.156 15.9451L11.5165 21.285L12.8121 4.99534L15.0487 4.99539L13.1845 27.827L10.9945 27.827L10.1186 23.6334L9.74585 23.6333L8.97689 27.8269L6.66113 27.8269L4.79779 4.99518L7.03439 4.99522L8.39464 21.0193Z" fill="white"/>
<path d="M52.79 32.4867L3.86502 32.4857C1.81017 32.4856 0.137441 30.8128 0.137482 28.758L0.137986 4.06252C0.138027 2.00767 1.81083 0.334934 3.86568 0.334976L52.7906 0.335973C54.8455 0.336015 56.5182 2.00881 56.5182 4.06367L56.5176 28.7591C56.5176 30.814 54.8448 32.4867 52.79 32.4867ZM3.86562 3.13069C3.35307 3.13067 2.93371 3.55002 2.93369 4.06257L2.93319 28.758C2.93318 29.2706 3.35253 29.6899 3.86508 29.69L52.79 29.6909C53.3026 29.691 53.7219 29.2716 53.7219 28.7591L53.7225 4.06361C53.7225 3.55106 53.3031 3.13169 52.7906 3.13168L3.86562 3.13069Z" fill="white"/>
</g>
<defs>
<clipPath id="clip0_138_302">
<rect width="56.9335" height="32.8205" fill="white" transform="translate(0.138062)"/>
</clipPath>
</defs>
</svg>
