<svg width="48" height="49" viewBox="0 0 48 49" fill="none" xmlns="http://www.w3.org/2000/svg">
<g clip-path="url(#clip0_1463_1615)">
<path d="M15.4128 26.4468C13.6396 20.9192 9.35605 16.5159 3.9028 14.5823C3.26157 14.3549 3.26157 13.4317 3.9028 13.2043C9.35605 11.2703 13.6396 6.86734 15.4128 1.33939C15.6329 0.653473 16.5894 0.653473 16.8095 1.33939C18.5824 6.86734 22.8659 11.2703 28.3192 13.2043C28.9604 13.4317 28.9604 14.3549 28.3192 14.5823C22.8659 16.5159 18.5824 20.9192 16.8095 26.4468C16.5894 27.1331 15.6329 27.1331 15.4128 26.4468Z" fill="#FFE804"/>
<path d="M28.319 14.5821C22.8657 16.5157 18.5825 20.9198 16.8097 26.4466C16.5889 27.1329 15.6331 27.1329 15.4122 26.4466C15.3621 26.2888 15.3086 26.131 15.2533 25.9749C15.4778 25.1169 15.759 24.186 16.1106 23.187C17.7476 19.8318 20.2847 16.9742 23.4011 14.945C24.1632 14.4488 24.1636 13.3381 23.4022 12.8412C20.2898 10.8098 17.764 7.94638 16.1106 4.59995C15.7543 3.88034 15.402 3.12778 15.0508 2.3624C15.1808 2.02695 15.3013 1.686 15.4122 1.33994C15.6331 0.65329 16.5889 0.65329 16.8097 1.33994C18.5825 6.86716 22.8657 11.2701 28.319 13.2044C28.9602 13.4319 28.9602 14.3551 28.319 14.5821Z" fill="#F4D803"/>
<path d="M25.2653 38.2468C24.519 35.9192 22.7154 34.0654 20.4192 33.2513C20.1493 33.1554 20.1493 32.7668 20.4192 32.6709C22.7154 31.8568 24.519 30.0031 25.2653 27.6754C25.3579 27.3868 25.7608 27.3868 25.8534 27.6754C26.6001 30.0031 28.4034 31.8568 30.6995 32.6709C30.9694 32.7668 30.9694 33.1554 30.6995 33.2513C28.4034 34.0654 26.6001 35.9192 25.8534 38.2468C25.7608 38.5354 25.3579 38.5354 25.2653 38.2468Z" fill="#70DAE7"/>
<path d="M30.6993 33.2515C28.4032 34.0656 26.5996 35.9197 25.8536 38.247C25.7603 38.5356 25.3585 38.5356 25.2648 38.247C25.1293 37.8236 24.9583 37.4153 24.7554 37.0264C24.7554 37.0264 24.7554 37.0264 24.7554 37.0253C25.6248 35.2917 26.7333 33.6964 27.9894 33.2515C28.2593 33.1552 28.2593 32.7666 27.9894 32.6711C26.7333 32.2261 25.6248 30.6309 24.7554 28.8972C24.7554 28.8965 24.7554 28.8965 24.7554 28.8965C24.9583 28.5076 25.1293 28.0993 25.2648 27.6759C25.3585 27.387 25.7603 27.387 25.8536 27.6759C26.5992 30.0028 28.4032 31.8573 30.6993 32.6711C30.9696 32.7666 30.9696 33.1552 30.6993 33.2515Z" fill="#00C8DC"/>
<path d="M37.0075 47.2018C36.2608 44.8745 34.4572 43.0208 32.1614 42.2063C31.8912 42.1107 31.8912 41.7222 32.1614 41.6263C34.4572 40.8122 36.2608 38.9584 37.0075 36.6308C37.0998 36.3418 37.5026 36.3418 37.5953 36.6308C38.342 38.958 40.1452 40.8122 42.4413 41.6263C42.7112 41.7222 42.7112 42.1107 42.4413 42.2063C40.1452 43.0208 38.342 44.8745 37.5953 47.2018C37.5026 47.4908 37.0998 47.4908 37.0075 47.2018Z" fill="#FF5FA8"/>
<path d="M42.4415 42.2067C40.145 43.0208 38.3414 44.8749 37.5955 47.2021C37.5021 47.4907 37.1003 47.4907 37.0066 47.2021C36.8711 46.7788 36.7001 46.3701 36.4976 45.9816C36.4976 45.9816 36.4976 45.9816 36.4976 45.9805C37.3666 44.2468 38.4751 42.6516 39.7312 42.2067C40.0011 42.1104 40.0011 41.7214 39.7312 41.6262C38.4751 41.1813 37.3666 39.5861 36.4976 37.8524C36.4976 37.8513 36.4976 37.8513 36.4976 37.8513C36.7001 37.4628 36.8715 37.0544 37.0066 36.6307C37.1003 36.3422 37.5021 36.3422 37.5955 36.6307C38.3414 38.958 40.145 40.8121 42.4415 41.6262C42.7114 41.7218 42.7114 42.1104 42.4415 42.2067Z" fill="#FC4298"/>
<path d="M38.9274 14.8881C38.1807 12.5608 36.3771 10.7071 34.0813 9.89261C33.8114 9.79703 33.8114 9.40811 34.0813 9.31253C36.3771 8.49844 38.1807 6.64468 38.9274 4.31705C39.0201 4.02811 39.4225 4.02811 39.5152 4.31705C40.2619 6.64432 42.0655 8.49808 44.3612 9.31253C44.6311 9.40811 44.6311 9.79703 44.3612 9.89261C42.0655 10.7071 40.2619 12.5608 39.5152 14.8881C39.4225 15.177 39.0201 15.177 38.9274 14.8881Z" fill="#70DAE7"/>
<path d="M44.3617 9.8931C42.0656 10.7072 40.2616 12.5613 39.516 14.8886C39.4222 15.1772 39.0205 15.1772 38.9271 14.8886C38.7916 14.4652 38.6206 14.0569 38.4177 13.668C38.4177 13.668 38.4177 13.668 38.4177 13.6669C39.2867 11.9333 40.3953 10.338 41.6514 9.8931C41.9216 9.79678 41.9216 9.40787 41.6514 9.31265C40.3953 8.86771 39.2871 7.27249 38.4177 5.53885C38.4177 5.53775 38.4177 5.53775 38.4177 5.53775C38.6206 5.1492 38.7916 4.74088 38.9271 4.31754C39.0205 4.02859 39.4222 4.02859 39.516 4.31754C40.2616 6.64444 42.0656 8.49893 44.3617 9.31265C44.6316 9.40787 44.6316 9.79678 44.3617 9.8931Z" fill="#00C8DC"/>
<path d="M16.1111 27.6646C15.4757 27.6646 14.9388 27.2709 14.7433 26.6619C13.0459 21.3705 8.90552 17.1023 3.66797 15.2449C3.09119 15.0405 2.71875 14.5099 2.71875 13.8932C2.71875 13.2765 3.09119 12.7462 3.66797 12.5415C8.90552 10.6841 13.0459 6.41626 14.7433 1.12488C14.9385 0.515503 15.4757 0.121826 16.1111 0.121826C16.7465 0.121826 17.2833 0.515503 17.4789 1.12488C19.1759 6.41626 23.3163 10.6841 28.5542 12.5415C29.1306 12.7462 29.5031 13.2765 29.5031 13.8932C29.5031 14.5099 29.1306 15.0405 28.5542 15.2449C26.7198 15.8956 25.0085 16.8408 23.4675 18.0548C23.1628 18.295 22.7205 18.2427 22.4802 17.9376C22.24 17.6326 22.2924 17.1902 22.5974 16.95C24.2589 15.6411 26.105 14.6212 28.084 13.9196C28.0913 13.917 28.0939 13.9152 28.0939 13.9152C28.0983 13.9075 28.0986 13.8807 28.0924 13.8701C28.092 13.8701 28.0891 13.8687 28.084 13.8668C22.4355 11.8636 17.9703 7.26111 16.1396 1.55444C16.1342 1.53723 16.1294 1.5321 16.1294 1.5321C16.1228 1.52698 16.0994 1.52698 16.0928 1.5321C16.0928 1.5321 16.0876 1.53723 16.0822 1.55444C14.2518 7.26111 9.78662 11.8636 4.13782 13.8668C4.13049 13.8694 4.12793 13.8712 4.12793 13.8712C4.12354 13.8789 4.12317 13.9056 4.12939 13.9163C4.12976 13.9163 4.13269 13.9177 4.13782 13.9196C9.78662 15.9227 14.2518 20.5256 16.0822 26.2323C16.0876 26.2495 16.0928 26.2546 16.0928 26.2546C16.0994 26.2598 16.1228 26.2598 16.1294 26.2546C16.1294 26.2546 16.1342 26.2495 16.1396 26.2323C16.9622 23.6685 18.2919 21.3405 20.0918 19.3131C20.3492 19.0227 20.7938 18.9963 21.0842 19.2542C21.3746 19.512 21.401 19.9562 21.1432 20.2469C19.474 22.1271 18.241 24.2855 17.4789 26.6615C17.2833 27.2709 16.7465 27.6646 16.1111 27.6646Z" fill="black"/>
<path d="M25.5592 39.1664C25.1183 39.1664 24.7308 38.8833 24.5957 38.4614C23.9197 36.3539 22.2706 34.6536 20.1843 33.9138C19.7767 33.7695 19.5138 33.3956 19.5134 32.9613C19.5134 32.527 19.7767 32.1527 20.184 32.0084C20.7479 31.8085 21.287 31.5356 21.7869 31.198C22.1088 30.9808 22.546 31.0654 22.7632 31.387C22.9807 31.7089 22.8961 32.1461 22.5742 32.3633C22.2432 32.587 21.8978 32.7866 21.5408 32.9613C23.3059 33.8252 24.7349 35.2864 25.5592 37.0691C26.3839 35.2864 27.8129 33.8248 29.5784 32.9609C27.8132 32.0974 26.3839 30.6359 25.5596 28.8531C25.4167 29.1622 25.2556 29.4629 25.0765 29.7537C24.8729 30.0844 24.4397 30.1873 24.109 29.9836C23.7783 29.78 23.6754 29.3468 23.879 29.0161C24.1804 28.5265 24.4218 28.0032 24.5957 27.4608C24.7308 27.0389 25.1183 26.7559 25.5592 26.7559C26.0005 26.7559 26.3876 27.0389 26.5227 27.4608C27.1987 29.5684 28.8481 31.2683 30.9344 32.0084C31.342 32.1527 31.605 32.527 31.605 32.9613C31.605 33.3956 31.3417 33.7695 30.9344 33.9138C28.8481 34.6539 27.1991 36.3539 26.5231 38.4614C26.3876 38.8829 26.0005 39.1664 25.5592 39.1664Z" fill="black"/>
<path d="M37.3011 48.1219C36.8602 48.1219 36.4731 47.8385 36.3376 47.417C35.6616 45.3091 34.0126 43.6091 31.9259 42.8694C31.5187 42.7247 31.2554 42.3508 31.2554 41.9165C31.2554 41.4822 31.5187 41.1083 31.9259 40.964C34.0126 40.2239 35.6616 38.5239 36.3376 36.4164C36.4728 35.9945 36.8599 35.7114 37.3011 35.7114C37.7421 35.7114 38.1295 35.9945 38.2646 36.4164C38.9407 38.5239 40.5901 40.2239 42.6764 40.964C43.0836 41.1083 43.3469 41.4822 43.3469 41.9165C43.3469 42.3508 43.0836 42.7247 42.6764 42.8694C40.5901 43.6091 38.9407 45.3091 38.2646 47.417C38.1295 47.8385 37.7424 48.1219 37.3011 48.1219ZM33.2823 41.9165C35.0475 42.7804 36.4768 44.2419 37.3011 46.0247C38.1259 44.2419 39.5548 42.7804 41.3203 41.9165C39.5548 41.0526 38.1259 39.5911 37.3011 37.8083C36.4768 39.5914 35.0475 41.0526 33.2823 41.9165Z" fill="black"/>
<path d="M39.2212 15.8081C38.7803 15.8081 38.3932 15.5247 38.2581 15.1031C38.0907 14.582 37.8625 14.0796 37.5791 13.609C37.3792 13.2761 37.4865 12.844 37.819 12.6437C38.1519 12.4434 38.584 12.551 38.7839 12.8835C38.9451 13.1509 39.0912 13.427 39.2219 13.7101C40.0463 11.9277 41.4756 10.4662 43.2404 9.60266C41.4752 8.73877 40.0459 7.27722 39.2212 5.49451C38.3969 7.27722 36.9679 8.73877 35.2028 9.60229C35.5858 9.78943 35.9553 10.0055 36.3076 10.2487C36.6273 10.4691 36.7075 10.9071 36.4867 11.2268C36.2662 11.5465 35.8286 11.6267 35.5089 11.4059C34.9929 11.0499 34.4333 10.7635 33.8463 10.5555C33.4391 10.4109 33.1758 10.037 33.1758 9.60266C33.1758 9.16834 33.4391 8.79443 33.8463 8.64978C35.9326 7.91003 37.582 6.21008 38.2581 4.10254C38.3932 3.68066 38.7803 3.39722 39.2212 3.39722C39.6625 3.39722 40.0496 3.68066 40.1851 4.10254C40.8611 6.21008 42.5101 7.91003 44.5964 8.64978C45.004 8.79443 45.2673 9.16834 45.2673 9.60266C45.2673 10.037 45.004 10.4113 44.5964 10.5555C42.5101 11.2953 40.8611 12.9952 40.1851 15.1031C40.0499 15.5247 39.6625 15.8081 39.2212 15.8081Z" fill="black"/>
<path d="M36.0552 20.944C35.667 20.944 35.3521 20.6294 35.3521 20.2408V18.8892C35.3521 18.501 35.667 18.186 36.0552 18.186C36.4437 18.186 36.7583 18.501 36.7583 18.8892V20.2408C36.7583 20.6294 36.4437 20.944 36.0552 20.944Z" fill="black"/>
<path d="M36.0552 29.899C35.667 29.899 35.3521 29.5841 35.3521 29.1959V27.8442C35.3521 27.4561 35.667 27.1411 36.0552 27.1411C36.4437 27.1411 36.7583 27.4561 36.7583 27.8442V29.1959C36.7583 29.5841 36.4437 29.899 36.0552 29.899Z" fill="black"/>
<path d="M41.2091 24.7458H39.8574C39.4692 24.7458 39.1543 24.4309 39.1543 24.0427C39.1543 23.6542 39.4692 23.3396 39.8574 23.3396H41.2091C41.5973 23.3396 41.9122 23.6542 41.9122 24.0427C41.9122 24.4309 41.5973 24.7458 41.2091 24.7458Z" fill="black"/>
<path d="M32.2535 24.7458H30.9019C30.5137 24.7458 30.1987 24.4309 30.1987 24.0427C30.1987 23.6542 30.5137 23.3396 30.9019 23.3396H32.2535C32.6417 23.3396 32.9567 23.6542 32.9567 24.0427C32.9567 24.4309 32.6417 24.7458 32.2535 24.7458Z" fill="black"/>
<path d="M38.7437 22.0574C38.5639 22.0574 38.3837 21.9886 38.2468 21.8512C37.9721 21.5766 37.9721 21.1316 38.2468 20.857L39.2026 19.9012C39.4769 19.6269 39.9222 19.6265 40.1968 19.9012C40.4715 20.1758 40.4715 20.6211 40.1968 20.8958L39.241 21.8512C39.1037 21.9886 38.9235 22.0574 38.7437 22.0574Z" fill="black"/>
<path d="M32.4116 28.3897C32.2314 28.3897 32.0516 28.3212 31.9142 28.1839C31.6396 27.9092 31.6396 27.4639 31.9142 27.1896L32.8701 26.2338C33.1447 25.9592 33.5897 25.9592 33.8643 26.2338C34.139 26.5085 34.139 26.9534 33.8643 27.2281L32.9085 28.1839C32.7712 28.3212 32.5914 28.3897 32.4116 28.3897Z" fill="black"/>
<path d="M39.6994 28.3897C39.5196 28.3897 39.3394 28.3212 39.2021 28.1839L38.2462 27.2281C37.972 26.9534 37.972 26.5081 38.2462 26.2338C38.5209 25.9592 38.9662 25.9592 39.2405 26.2338L40.1963 27.1896C40.471 27.4643 40.471 27.9092 40.1963 28.1839C40.0594 28.3212 39.8792 28.3897 39.6994 28.3897Z" fill="black"/>
<path d="M33.367 22.0574C33.1872 22.0574 33.0074 21.9886 32.8701 21.8512L31.9142 20.8958C31.6396 20.6211 31.6396 20.1758 31.9142 19.9012C32.1889 19.6269 32.6342 19.6265 32.9085 19.9012L33.8643 20.857C34.139 21.1316 34.139 21.5766 33.8643 21.8512C33.727 21.9886 33.5472 22.0574 33.367 22.0574Z" fill="black"/>
<path d="M11.5437 34.3402C11.1552 34.3402 10.8406 34.0253 10.8406 33.6371V32.2854C10.8406 31.8972 11.1552 31.5823 11.5437 31.5823C11.9319 31.5823 12.2468 31.8972 12.2468 32.2854V33.6371C12.2468 34.0253 11.9319 34.3402 11.5437 34.3402Z" fill="black"/>
<path d="M11.5437 43.2955C11.1552 43.2955 10.8406 42.9806 10.8406 42.5924V41.2407C10.8406 40.8525 11.1552 40.5376 11.5437 40.5376C11.9319 40.5376 12.2468 40.8525 12.2468 41.2407V42.5924C12.2468 42.9806 11.9319 43.2955 11.5437 43.2955Z" fill="black"/>
<path d="M16.6969 38.1418H15.3452C14.957 38.1418 14.6421 37.8273 14.6421 37.4387C14.6421 37.0505 14.957 36.7356 15.3452 36.7356H16.6969C17.0851 36.7356 17.4 37.0505 17.4 37.4387C17.4 37.8273 17.0851 38.1418 16.6969 38.1418Z" fill="black"/>
<path d="M7.74158 38.1418H6.38989C6.00171 38.1418 5.68677 37.8273 5.68677 37.4387C5.68677 37.0505 6.00171 36.7356 6.38989 36.7356H7.74158C8.12976 36.7356 8.4447 37.0505 8.4447 37.4387C8.4447 37.8273 8.13013 38.1418 7.74158 38.1418Z" fill="black"/>
<path d="M14.2321 35.4538C14.0519 35.4538 13.8721 35.3849 13.7348 35.2476C13.4601 34.973 13.4601 34.528 13.7348 34.2534L14.6906 33.2975C14.9653 33.0229 15.4102 33.0229 15.6849 33.2975C15.9595 33.5722 15.9595 34.0175 15.6849 34.2918L14.7291 35.2476C14.5917 35.3849 14.4119 35.4538 14.2321 35.4538Z" fill="black"/>
<path d="M7.89948 41.7859C7.71967 41.7859 7.53949 41.7175 7.40253 41.5801C7.12787 41.3055 7.12787 40.8602 7.40253 40.5859L8.35797 39.6301C8.63263 39.3554 9.07794 39.3554 9.35223 39.6301C9.62689 39.9044 9.62689 40.3497 9.35223 40.6243L8.39679 41.5801C8.25946 41.7175 8.07928 41.7859 7.89948 41.7859Z" fill="black"/>
<path d="M15.1876 41.7859C15.0078 41.7859 14.8279 41.7175 14.6906 41.5801L13.7348 40.6243C13.4601 40.3497 13.4601 39.9044 13.7348 39.6301C14.0095 39.3554 14.4548 39.3554 14.7291 39.6301L15.6849 40.5859C15.9595 40.8602 15.9595 41.3055 15.6849 41.5801C15.5475 41.7175 15.3677 41.7859 15.1876 41.7859Z" fill="black"/>
<path d="M8.85529 35.4538C8.67548 35.4538 8.4953 35.3849 8.35797 35.2476L7.40253 34.2918C7.12787 34.0172 7.12787 33.5722 7.40253 33.2975C7.67682 33.0229 8.12213 33.0229 8.39679 33.2975L9.35223 34.2534C9.62689 34.528 9.62689 34.9733 9.35223 35.2476C9.21527 35.3849 9.0351 35.4538 8.85529 35.4538Z" fill="black"/>
</g>
<defs>
<clipPath id="clip0_1463_1615">
<rect width="48" height="48" fill="white" transform="translate(0 0.121826)"/>
</clipPath>
</defs>
</svg>
