<svg width="48" height="49" viewBox="0 0 48 49" fill="none" xmlns="http://www.w3.org/2000/svg">
<g clip-path="url(#clip0_1463_1603)">
<path d="M32.7253 36.8163C39.4315 30.1101 39.4315 19.2371 32.7253 12.5309C26.0191 5.82462 15.1461 5.82462 8.43984 12.5309C1.7336 19.2371 1.7336 30.1101 8.43984 36.8163C15.1461 43.5225 26.0191 43.5225 32.7253 36.8163Z" fill="#FF4755"/>
<path d="M20.5874 40.1616C11.3848 40.1616 3.87313 32.9238 3.43317 23.8303C3.41967 24.1099 3.41235 24.3911 3.41235 24.6741C3.41235 34.1596 11.1019 41.8491 20.5874 41.8491C30.0729 41.8491 37.7624 34.1595 37.7624 24.6741C37.7624 24.3911 37.755 24.1099 37.7415 23.8303C37.3016 32.9238 29.7899 40.1616 20.5874 40.1616Z" fill="#FC2B3A"/>
<path d="M29.8337 33.9248C34.943 28.8155 34.943 20.5317 29.8337 15.4224C24.7244 10.3131 16.4406 10.3131 11.3313 15.4224C6.22198 20.5317 6.22198 28.8155 11.3313 33.9248C16.4406 39.0341 24.7244 39.0341 29.8337 33.9248Z" fill="#F9F6F6"/>
<path d="M26.7378 30.8289C30.1373 27.4294 30.1373 21.9178 26.7378 18.5183C23.3383 15.1188 17.8267 15.1188 14.4272 18.5183C11.0278 21.9178 11.0278 27.4294 14.4272 30.8289C17.8267 34.2283 23.3383 34.2283 26.7378 30.8289Z" fill="#FF4755"/>
<path d="M20.5874 28.9806C22.9658 28.9806 24.8939 27.0525 24.8939 24.674C24.8939 22.2956 22.9658 20.3674 20.5874 20.3674C18.2089 20.3674 16.2808 22.2956 16.2808 24.674C16.2808 27.0525 18.2089 28.9806 20.5874 28.9806Z" fill="#F9F6F6"/>
<path d="M39.7887 7.69687L37.7624 5.67065L20.332 23.1012C19.7725 23.6607 19.7725 24.5678 20.332 25.1274C20.8915 25.6869 21.7986 25.6869 22.3582 25.1274L39.7887 7.69687Z" fill="#365E7D"/>
<path d="M20.5166 25.2814C21.076 25.6793 21.8565 25.629 22.3581 25.1273L39.7887 7.69678L38.9449 6.85303L20.5166 25.2814Z" fill="#2B4D66"/>
<path d="M32.4663 10.9667L32.4404 6.16795L37.7366 0.871826L37.7624 5.67061L32.4663 10.9667Z" fill="#FFE27A"/>
<path d="M32.4573 9.28831L32.4664 10.9668L37.7625 5.67069L37.7534 3.99219L32.4573 9.28831Z" fill="#F9CF58"/>
<path d="M34.4924 12.9929L39.2912 13.0187L44.5873 7.72256L39.7886 7.69678L34.4924 12.9929Z" fill="#FFE27A"/>
<path d="M41.4671 7.70578L39.7886 7.69678L34.4924 12.9929L36.1709 13.0019L41.4671 7.70578Z" fill="#F9CF58"/>
<path d="M29.6842 39.2434C28.6881 39.8667 27.6242 40.3915 26.5049 40.8023L28.3933 46.1944C28.7142 47.1107 29.7171 47.5934 30.6334 47.2725C31.5498 46.9516 32.0325 45.9487 31.7116 45.0323L29.6842 39.2434Z" fill="#365E7D"/>
<path d="M11.4906 39.2434L9.4633 45.0324C9.1424 45.9487 9.62502 46.9517 10.5414 47.2726C11.4577 47.5935 12.4608 47.1108 12.7816 46.1945L14.67 40.8024C13.5507 40.3915 12.4867 39.8667 11.4906 39.2434Z" fill="#365E7D"/>
<path d="M29.6842 39.2434C28.6881 39.8667 27.6242 40.3915 26.5049 40.8023L26.994 42.1989C28.1116 41.7902 29.1787 41.277 30.1847 40.6723L29.6842 39.2434Z" fill="#2B4D66"/>
<path d="M10.9902 40.6723C11.9961 41.277 13.0632 41.7902 14.1809 42.1989L14.67 40.8023C13.5507 40.3915 12.4868 39.8667 11.4907 39.2434L10.9902 40.6723Z" fill="#2B4D66"/>
<path d="M45.2801 7.42079C45.172 7.15792 44.9165 6.9856 44.6323 6.9841L40.1135 6.95982L38.4929 5.33917L38.4686 0.820415C38.4855 0.213102 37.6806 -0.117366 37.2659 0.326071L31.9591 5.63279C31.8261 5.76582 31.7519 5.94657 31.7528 6.13473L31.7771 10.649L31.7532 10.6729C28.5888 8.14567 24.6475 6.76004 20.5805 6.76004C16.4288 6.76004 12.3819 8.21288 9.1853 10.8509C8.88521 11.0986 8.84274 11.5427 9.09033 11.8428C9.33802 12.1428 9.78211 12.1854 10.0822 11.9378C13.0269 9.50757 16.7552 8.1692 20.5805 8.1692C24.2747 8.1692 27.8567 9.40932 30.7506 11.6755L28.8329 13.5933C26.4599 11.8258 23.5544 10.8586 20.5806 10.8586C12.9623 10.8586 6.76439 17.0561 6.76439 24.674C6.76439 32.2923 12.9624 38.4903 20.5806 38.4903C23.9066 38.4903 27.1204 37.2915 29.6298 35.1147C29.9237 34.8597 29.9554 34.4148 29.7005 34.1209C29.4456 33.8271 29.0006 33.7955 28.7067 34.0503C26.4534 36.0048 23.5676 37.0811 20.5807 37.0811C13.7394 37.0811 8.17345 31.5153 8.17345 24.6739C8.17345 17.833 13.7393 12.2676 20.5807 12.2676C23.1824 12.2676 25.7256 13.0915 27.825 14.6012L25.6809 16.7453C24.1601 15.7631 22.4099 15.2454 20.5807 15.2454C15.3818 15.2454 11.1523 19.475 11.1523 24.6738C11.1523 25.8484 11.3658 26.9947 11.7869 28.0808C12.1103 28.941 13.4422 28.4161 13.1006 27.5714C12.7427 26.6484 12.5612 25.6734 12.5612 24.6737C12.5612 20.2518 16.1587 16.6543 20.5806 16.6543C22.033 16.6543 23.4267 17.0382 24.6576 17.7684L22.4213 20.0047C21.8378 19.7751 21.2109 19.6537 20.5807 19.6537C17.8126 19.6537 15.5607 21.9056 15.5607 24.6737C15.5607 27.4418 17.8126 29.6937 20.5807 29.6937C23.3488 29.6937 25.6007 27.4418 25.6007 24.6737C25.6007 24.1404 25.5182 23.621 25.356 23.1232L27.6301 20.8492C28.2664 22.0176 28.6002 23.3239 28.6002 24.6737C28.6002 29.0956 25.0027 32.6931 20.5808 32.6931C18.1938 32.6931 15.9473 31.6403 14.4173 29.8045C14.1682 29.5056 13.7238 29.4653 13.425 29.7144C13.1262 29.9635 13.0859 30.4078 13.335 30.7067C15.1335 32.8645 17.7744 34.1021 20.5808 34.1021C25.7797 34.1021 30.0092 29.8726 30.0092 24.6737C30.0092 22.9472 29.5441 21.2809 28.6618 19.8175L30.8183 17.661C32.2403 19.7258 32.988 22.1338 32.988 24.6737C32.988 27.3725 32.1368 29.938 30.5264 32.0932C30.2935 32.4049 30.3573 32.8464 30.669 33.0792C30.9778 33.3108 31.4209 33.2501 31.6551 32.9366C33.449 30.5361 34.3972 27.6789 34.3972 24.6737C34.3972 21.7573 33.5114 18.9966 31.8297 16.6497L33.7521 14.7273C35.9067 17.5789 37.0857 21.0809 37.0857 24.6737C37.0857 33.7745 29.6817 41.1784 20.581 41.1784C11.4802 41.1784 4.07621 33.7744 4.07621 24.6737C4.07621 20.6248 5.55661 16.7307 8.24471 13.7088C8.50327 13.4181 8.4772 12.9727 8.18658 12.7141C7.89586 12.4555 7.45055 12.4816 7.19189 12.7722C4.27411 16.0525 2.66724 20.2792 2.66724 24.6737C2.66724 30.8679 5.82774 36.3373 10.6203 39.5557L8.76971 44.8398C8.30574 46.0818 9.02199 47.57 10.2821 47.9823C11.5322 48.43 12.9772 47.7653 13.4246 46.47L15.0866 41.7244C16.8188 42.2839 18.665 42.5875 20.5811 42.5875C22.4971 42.5875 24.3434 42.284 26.0757 41.7244L27.7376 46.47C28.185 47.7653 29.6299 48.4299 30.88 47.9823C32.1401 47.57 32.8564 46.0818 32.3924 44.8398L30.5418 39.5557C35.3345 36.3374 38.4949 30.8679 38.4949 24.6738C38.4949 20.7089 37.1715 16.8458 34.7572 13.7226L34.8043 13.6755L39.3186 13.6998H39.3224C39.5091 13.6998 39.6884 13.6255 39.8205 13.4934L45.1273 8.18673C45.3277 7.98582 45.3882 7.68367 45.2801 7.42079ZM12.0942 46.0044C11.9015 46.5544 11.2972 46.8451 10.7473 46.6525C10.2072 46.4759 9.90024 45.8379 10.0991 45.3057L11.8485 40.3104C12.4653 40.6561 13.1043 40.9665 13.7632 41.2387L12.0942 46.0044ZM31.062 45.3057C31.2608 45.838 30.9538 46.4759 30.4137 46.6525C29.8638 46.8451 29.2595 46.5544 29.0669 46.0044L27.3978 41.2386C28.0567 40.9664 28.6958 40.6561 29.3126 40.3103L31.062 45.3057ZM21.8566 24.6299C21.5716 24.9148 21.1078 24.9149 20.8228 24.6299C20.5378 24.3448 20.5378 23.881 20.8228 23.596L37.7898 6.62888L38.8237 7.66276L21.8566 24.6299ZM33.1634 6.42113L37.0685 2.51598L37.0837 5.34226L33.1786 9.24742L33.1634 6.42113ZM24.1915 24.6739C24.1915 26.6649 22.5716 28.2849 20.5805 28.2849C18.5895 28.2849 16.9695 26.6649 16.9695 24.6739C16.9695 22.6828 18.5895 21.0629 20.5805 21.0629C20.8196 21.0629 21.0577 21.0881 21.291 21.1349L19.8263 22.5997C18.9918 23.4341 18.9918 24.7918 19.8263 25.6263C20.6607 26.4608 22.0185 26.4607 22.8528 25.6263L24.1729 24.3062C24.1852 24.4275 24.1915 24.5501 24.1915 24.6739ZM39.0316 12.2892L36.2053 12.274L40.1104 8.36888L42.9368 8.38407L39.0316 12.2892Z" fill="black"/>
</g>
<defs>
<clipPath id="clip0_1463_1603">
<rect width="48" height="48" fill="white" transform="translate(0 0.121826)"/>
</clipPath>
</defs>
</svg>
