<svg width="48" height="49" viewBox="0 0 48 49" fill="none" xmlns="http://www.w3.org/2000/svg">
<g clip-path="url(#clip0_1463_2517)">
<path d="M33.635 26.4841V43.5176C33.635 45.6561 28.0831 47.3891 21.2345 47.3891C19.2677 47.3891 17.4072 47.2458 15.7555 46.9912C11.6544 46.3604 8.83398 45.042 8.83398 43.5175V26.6198L15.7555 26.5821L33.635 26.4841Z" fill="#4E4F75"/>
<path d="M15.7557 26.582V46.9912C11.6546 46.3605 8.83423 45.0421 8.83423 43.5175V26.6197L15.7557 26.582Z" fill="#32314C"/>
<path d="M33.635 26.4841V29.0808C30.1906 29.8975 25.8943 30.3824 21.2345 30.3824C16.5746 30.3824 12.2784 29.8975 8.83398 29.0808V26.6198L15.7555 26.5821L33.635 26.4841Z" fill="#32314C"/>
<path d="M21.2344 27.744C32.5687 27.744 41.757 24.8752 41.757 21.3363C41.757 17.7975 32.5687 14.9287 21.2344 14.9287C9.90017 14.9287 0.711914 17.7975 0.711914 21.3363C0.711914 24.8752 9.90017 27.744 21.2344 27.744Z" fill="#4E4F75"/>
<path d="M21.2342 23.0531C17.154 23.0531 13.152 22.6399 9.96546 21.8897C9.95777 21.8879 9.95009 21.8862 9.9424 21.8843C9.36555 21.7481 9.36555 20.9245 9.9424 20.7882C9.95009 20.7864 9.95777 20.7846 9.96546 20.7827C13.1521 20.0325 17.154 19.6194 21.2342 19.6194C25.3144 19.6194 29.3163 20.0325 32.503 20.7827C32.5106 20.7845 32.5183 20.7863 32.526 20.7882C33.1029 20.9244 33.1029 21.748 32.526 21.8843C32.5183 21.8861 32.5106 21.8879 32.503 21.8897C29.3163 22.6399 25.3143 23.0531 21.2342 23.0531Z" fill="#32314C"/>
<path d="M25.5642 20.4628L47.2886 5.31689L45.66 2.98096L23.9356 18.1268L25.5642 20.4628Z" fill="#ED4596"/>
<path d="M24.7498 19.2946L46.4741 4.14868L45.6599 2.98075L23.9355 18.1266L24.7498 19.2946Z" fill="#E65091"/>
<path d="M31.2749 7.72214L32.7741 7.4182C33.4819 7.27467 33.4819 6.2632 32.7741 6.11967L31.2749 5.81573C29.7975 5.5162 28.643 4.36167 28.3435 2.88426L28.0395 1.38511C27.896 0.677295 26.8845 0.677295 26.741 1.38511L26.4371 2.88436C26.1375 4.36176 24.983 5.51629 23.5056 5.81583L22.0064 6.11976C21.2986 6.26329 21.2986 7.27476 22.0064 7.4183L23.5056 7.72223C24.983 8.02176 26.1375 9.17629 26.4371 10.6537L26.741 12.1529C26.8845 12.8607 27.896 12.8607 28.0395 12.1529L28.3435 10.6537C28.643 9.17639 29.7975 8.02176 31.2749 7.72214Z" fill="#F9D366"/>
<path d="M18.6017 12.6081L20.417 12.2401C21.2741 12.0662 21.2741 10.8414 20.417 10.6677L18.6017 10.2996C16.8126 9.93689 15.4144 8.53871 15.0517 6.74968L14.6837 4.9343C14.5098 4.07724 13.285 4.07724 13.1113 4.9343L12.7432 6.74968C12.3805 8.53871 10.9823 9.93689 9.19328 10.2996L7.3779 10.6677C6.52084 10.8415 6.52084 12.0663 7.3779 12.2401L9.19328 12.6081C10.9823 12.9708 12.3805 14.369 12.7432 16.1581L13.1113 17.9734C13.2851 18.8305 14.5099 18.8305 14.6837 17.9734L15.0517 16.1581C15.4144 14.369 16.8127 12.9708 18.6017 12.6081Z" fill="#F9D366"/>
<path d="M43.1297 10.604C42.7365 10.604 42.4177 10.9228 42.4177 11.3159V13.1669C42.4177 13.5601 42.7365 13.8789 43.1297 13.8789C43.5229 13.8789 43.8416 13.5601 43.8416 13.1669V11.3159C43.8417 10.9228 43.5229 10.604 43.1297 10.604Z" fill="black"/>
<path d="M43.1297 15.5874C42.7365 15.5874 42.4177 15.9062 42.4177 16.2993V18.1503C42.4177 18.5435 42.7365 18.8623 43.1297 18.8623C43.5229 18.8623 43.8416 18.5435 43.8416 18.1503V16.2994C43.8417 15.9062 43.5229 15.5874 43.1297 15.5874Z" fill="black"/>
<path d="M46.5468 14.021H44.6958C44.3026 14.021 43.9839 14.3397 43.9839 14.7329C43.9839 15.1261 44.3026 15.4449 44.6958 15.4449H46.5468C46.94 15.4449 47.2588 15.1261 47.2588 14.7329C47.2588 14.3397 46.94 14.021 46.5468 14.021Z" fill="black"/>
<path d="M41.5634 15.4451C41.9566 15.4451 42.2754 15.1264 42.2754 14.7332C42.2754 14.34 41.9566 14.0212 41.5634 14.0212H39.7124C39.3192 14.0212 39.0005 14.34 39.0005 14.7332C39.0005 15.1264 39.3192 15.4451 39.7124 15.4451H41.5634Z" fill="black"/>
<path d="M4.92287 3.5694C5.31606 3.5694 5.63481 3.25065 5.63481 2.85746V1.00637C5.63481 0.613184 5.31606 0.294434 4.92287 0.294434C4.52969 0.294434 4.21094 0.613184 4.21094 1.00637V2.85737C4.21084 3.25056 4.52969 3.5694 4.92287 3.5694Z" fill="black"/>
<path d="M4.92287 8.55271C5.31606 8.55271 5.63481 8.23396 5.63481 7.84077V5.98977C5.63481 5.59658 5.31606 5.27783 4.92287 5.27783C4.52969 5.27783 4.21094 5.59658 4.21094 5.98977V7.84077C4.21084 8.23405 4.52969 8.55271 4.92287 8.55271Z" fill="black"/>
<path d="M6.48904 5.13554H8.34004C8.73322 5.13554 9.05197 4.81679 9.05197 4.42361C9.05197 4.03042 8.73322 3.71167 8.34004 3.71167H6.48904C6.09585 3.71167 5.7771 4.03042 5.7771 4.42361C5.7771 4.81679 6.09585 5.13554 6.48904 5.13554Z" fill="black"/>
<path d="M1.50564 5.13554H3.35664C3.74983 5.13554 4.06858 4.81679 4.06858 4.42361C4.06858 4.03042 3.74983 3.71167 3.35664 3.71167H1.50564C1.11245 3.71167 0.793701 4.03042 0.793701 4.42361C0.793701 4.81679 1.11245 5.13554 1.50564 5.13554Z" fill="black"/>
<path d="M25.0673 15.7522C25.4414 15.7522 25.7551 15.4603 25.7774 15.082C25.8006 14.6895 25.5011 14.3525 25.1086 14.3294C22.8416 14.1956 20.457 14.1812 18.1723 14.2867C17.7795 14.3048 17.4758 14.638 17.4939 15.0307C17.512 15.4235 17.8456 15.7271 18.2379 15.709C20.473 15.6057 22.8072 15.62 25.0247 15.7508C25.0392 15.7518 25.0533 15.7522 25.0673 15.7522Z" fill="black"/>
<path d="M35.0715 15.8645C34.6928 15.7593 34.3002 15.9807 34.1948 16.3596C34.0895 16.7384 34.3111 17.131 34.6899 17.2363C38.6097 18.3267 41.0446 19.8977 41.0446 21.3363C41.0446 22.6705 38.9843 24.1101 35.5335 25.1876C31.7242 26.3769 26.646 27.032 21.2343 27.032C15.8226 27.032 10.7443 26.377 6.93506 25.1876C3.48412 24.1102 1.42387 22.6705 1.42387 21.3364C1.42387 20.2369 2.84156 19.2871 3.68663 18.8187C5.2905 17.9297 7.62028 17.1674 10.4237 16.6142C10.8094 16.5381 11.0604 16.1637 10.9843 15.7779C10.9082 15.3921 10.5331 15.141 10.148 15.2172C3.69881 16.4897 0 18.72 0 21.3363C0 22.786 1.12959 24.8666 6.51056 26.5468C10.4536 27.778 15.6825 28.456 21.2342 28.456C26.7859 28.456 32.0148 27.7779 35.9578 26.5468C41.3389 24.8667 42.4684 22.786 42.4684 21.3363C42.4685 19.1347 39.8415 17.1914 35.0715 15.8645Z" fill="black"/>
<path d="M10.4781 21.2771C10.64 21.1088 10.7159 20.8643 10.6586 20.6201C10.5687 20.2373 10.1854 20 9.80266 20.0898L9.77885 20.0955C9.19207 20.234 8.79785 20.7328 8.79785 21.3364C8.79785 21.9401 9.19207 22.4388 9.77876 22.5774L9.80238 22.583C13.0408 23.3454 17.1007 23.7654 21.2343 23.7654C25.3677 23.7654 29.4277 23.3455 32.6668 22.5829L32.6898 22.5775C33.2765 22.4389 33.6707 21.9403 33.6707 21.3365C33.6707 20.7329 33.2764 20.2342 32.6889 20.0954L32.6668 20.0901C32.284 19.9995 31.9006 20.2365 31.8102 20.6192C31.7524 20.8637 31.8282 21.1086 31.9904 21.2772C28.9146 21.9644 25.113 22.3414 21.2343 22.3414C17.3557 22.3413 13.554 21.9643 10.4781 21.2771Z" fill="black"/>
<path d="M33.6344 27.5828C33.2412 27.5828 32.9225 27.9015 32.9225 28.2947V43.5177C32.9225 44.8061 28.3691 46.6775 21.2341 46.6775C14.099 46.6775 9.5457 44.806 9.5457 43.5177V40.5622C9.5457 40.169 9.22695 39.8502 8.83376 39.8502C8.44058 39.8502 8.12183 40.169 8.12183 40.5622V43.5176C8.12183 44.9093 9.55058 46.0911 12.2536 46.9349C14.6625 47.6871 17.8519 48.1013 21.2342 48.1013C24.6165 48.1013 27.8059 47.687 30.2148 46.9349C32.9178 46.091 34.3465 44.9093 34.3465 43.5176V28.2948C34.3464 27.9016 34.0276 27.5828 33.6344 27.5828Z" fill="black"/>
<path d="M8.83376 38.901C9.22695 38.901 9.5457 38.5822 9.5457 38.189V28.2949C9.5457 27.9018 9.22695 27.583 8.83376 27.583C8.44058 27.583 8.12183 27.9018 8.12183 28.2949V38.189C8.12183 38.5821 8.44058 38.901 8.83376 38.901Z" fill="black"/>
<path d="M47.8721 4.90776L46.2432 2.57189C46.0182 2.2493 45.5745 2.17026 45.252 2.39508L23.5277 17.5421C23.3727 17.6501 23.2672 17.8152 23.234 18.0011C23.2008 18.187 23.2428 18.3784 23.3508 18.5332L24.9796 20.8691C25.118 21.0675 25.3393 21.1739 25.5642 21.1739C25.7049 21.1739 25.8468 21.1322 25.9708 21.0459L47.6953 5.89898C47.8502 5.79098 47.9559 5.62589 47.9891 5.43998C48.0221 5.25408 47.9801 5.06255 47.8721 4.90776ZM25.7405 19.4709L24.9261 18.303L45.4825 3.97026L46.2969 5.1382L25.7405 19.4709Z" fill="black"/>
<path d="M21.865 8.11577L23.3641 8.41971C24.5638 8.6629 25.4961 9.59524 25.7393 10.7949L26.0432 12.2939C26.1746 12.9424 26.7287 13.3953 27.3902 13.3953C28.0519 13.3953 28.6058 12.9424 28.7371 12.2939L29.041 10.7949C29.2842 9.59515 30.2166 8.6629 31.4162 8.41971L32.9153 8.11577C33.5637 7.98433 34.0166 7.43046 34.0166 6.76887C34.0166 6.10718 33.5637 5.5533 32.9153 5.42187L31.4162 5.11793C30.2165 4.87474 29.2842 3.9424 29.041 2.74277L28.7371 1.24371C28.6057 0.59524 28.0518 0.142334 27.3902 0.142334C26.7286 0.142334 26.1746 0.59524 26.0432 1.24371L25.7393 2.74277C25.4961 3.94249 24.5637 4.87474 23.3641 5.11793L21.865 5.42187C21.2166 5.5533 20.7637 6.10737 20.7637 6.76887C20.7638 7.43055 21.2167 7.98433 21.865 8.11577ZM23.6471 6.5134C25.4087 6.15621 26.7777 4.78708 27.135 3.02552L27.3905 1.76599L27.6459 3.02552C28.003 4.78708 29.3722 6.15612 31.1337 6.5134L32.3933 6.76887L31.1337 7.02424C29.3722 7.38143 28.0031 8.75055 27.6459 10.5121L27.3903 11.7716L27.135 10.5121C26.7778 8.75055 25.4087 7.38152 23.6471 7.02424L22.3876 6.76868L23.6471 6.5134Z" fill="black"/>
<path d="M7.23651 9.96987C6.52213 10.1147 6.02319 10.725 6.02319 11.4538C6.02319 12.1827 6.52204 12.793 7.23651 12.9378L9.05197 13.3059C10.564 13.6124 11.739 14.7875 12.0455 16.2995L12.4136 18.1149C12.5584 18.8292 13.1686 19.3282 13.8975 19.3282C14.6263 19.3282 15.2366 18.8293 15.3814 18.1149L15.7495 16.2995C16.056 14.7875 17.231 13.6124 18.743 13.3059L20.5584 12.9378C21.2728 12.793 21.7717 12.1827 21.7717 11.4538C21.7717 10.7249 21.2728 10.1147 20.5584 9.96987L18.743 9.60181C17.231 9.29525 16.0559 8.12028 15.7495 6.60828L15.3814 4.7929C15.2366 4.07853 14.6263 3.57959 13.8975 3.57959C13.1686 3.57959 12.5584 4.07853 12.4136 4.7929L12.0455 6.60828C11.7389 8.12028 10.564 9.29534 9.05197 9.60181L7.23651 9.96987ZM13.4411 6.89112L13.8091 5.07575C13.816 5.0419 13.8238 5.00337 13.8976 5.00337C13.9714 5.00337 13.9792 5.04181 13.986 5.07575L14.3541 6.89112C14.7747 8.96515 16.3863 10.5768 18.4603 10.9974L20.2757 11.3654C20.3096 11.3723 20.3481 11.3801 20.3481 11.4539C20.3481 11.5278 20.3097 11.5355 20.2757 11.5424L18.4603 11.9105C16.3863 12.3311 14.7746 13.9428 14.3541 16.0167L13.986 17.8321C13.9792 17.866 13.9714 17.9044 13.8976 17.9044C13.8238 17.9044 13.8161 17.8661 13.8091 17.8321L13.4411 16.0167C13.0206 13.9428 11.4088 12.3311 9.33482 11.9105L7.51935 11.5424C7.48551 11.5356 7.44707 11.5278 7.44707 11.4539C7.44707 11.3801 7.48541 11.3724 7.51935 11.3654L9.33482 10.9974C11.4088 10.5768 13.0207 8.96515 13.4411 6.89112Z" fill="black"/>
</g>
<defs>
<clipPath id="clip0_1463_2517">
<rect width="48" height="48" fill="white" transform="translate(0 0.121826)"/>
</clipPath>
</defs>
</svg>
