<svg width="48" height="49" viewBox="0 0 48 49" fill="none" xmlns="http://www.w3.org/2000/svg">
<path d="M25.7819 46.4419L17.1128 44.7619C16.7783 44.6964 16.4946 44.4419 16.451 44.1073C16.4001 43.6637 16.611 43.22 16.8728 42.8491C17.1419 42.4709 17.4764 42.1291 17.6946 41.7219C18.1528 40.8637 18.0074 39.7219 17.3528 39.0091C16.6983 38.2891 15.5783 38.0419 14.6837 38.4128C13.7892 38.7837 13.171 39.7582 13.2219 40.7255C13.251 41.2637 13.4619 41.78 13.5419 42.3182C13.6219 42.8564 13.5419 43.4746 13.1128 43.8091C11.8474 43.6491 10.1964 43.3582 8.71281 43.1182C7.7819 42.9728 7.17099 42.0782 7.36735 41.1619C7.73099 39.4528 8.05826 37.6928 8.46554 36.0419C8.59645 35.5109 8.1819 34.6746 6.74917 35.1837C6.35644 35.3219 5.9419 35.4237 5.52735 35.4528C4.66917 35.5037 3.86917 35.1182 3.3819 34.4128C2.32735 32.9 3.31644 31.0019 4.81463 30.4637C5.91281 30.0709 7.20735 30.3764 8.08008 31.14C9.19281 31.9837 9.54917 30.6019 9.65826 30.2019L10.7055 26.1728C10.9237 25.3291 11.7601 24.8055 12.611 24.98C15.9564 25.6637 24.0655 27.3582 29.3819 28.4782C30.2619 28.66 30.8219 29.5182 30.6474 30.3982L27.7092 45.1546C27.5201 46.0346 26.6692 46.6164 25.7819 46.4419Z" fill="#1E1D26"/>
<path d="M26.0946 46.9945C25.9564 46.9945 25.8182 46.98 25.6801 46.9582L17.0182 45.2709C16.4364 45.1545 16.0001 44.7109 15.9346 44.1654C15.8764 43.6491 16.0437 43.1036 16.451 42.5436C16.5528 42.3982 16.6619 42.2672 16.771 42.1291C16.9528 41.9036 17.1201 41.7 17.2364 41.4745C17.5928 40.8054 17.4764 39.9182 16.9673 39.3582C16.4582 38.7982 15.5855 38.6091 14.8873 38.8927C14.1892 39.1836 13.7092 39.94 13.7528 40.6963C13.7673 40.9582 13.8401 41.2345 13.9128 41.5254C13.971 41.7509 14.0292 41.9909 14.0655 42.2382C14.1964 43.0745 13.9564 43.8163 13.4328 44.2236C13.3237 44.3109 13.1855 44.3472 13.0473 44.3254C12.1455 44.2091 11.0328 44.0272 9.9637 43.8527C9.51279 43.78 9.06188 43.7072 8.62552 43.6345C8.02915 43.54 7.52006 43.2127 7.17824 42.7182C6.8437 42.2236 6.72006 41.6345 6.85097 41.0454C6.97461 40.4782 7.09097 39.9109 7.20733 39.3436C7.44006 38.2018 7.68006 37.0236 7.95642 35.9109C7.97824 35.8309 7.9637 35.7145 7.8837 35.6418C7.73097 35.5036 7.37461 35.5182 6.93097 35.6782C6.45097 35.8454 5.99279 35.9472 5.5637 35.9763C4.53097 36.0418 3.54915 35.5691 2.95279 34.7109C2.40006 33.94 2.26188 33.0163 2.55279 32.1218C2.86552 31.14 3.66552 30.3109 4.62552 29.9618C5.86915 29.5182 7.35279 29.8163 8.40006 30.7254C8.59643 30.8709 8.70552 30.8854 8.74188 30.8709C8.79279 30.8563 8.96006 30.7472 9.14188 30.0563L10.1892 26.0272C10.4801 24.9145 11.5855 24.2236 12.7128 24.4491C15.9201 25.1036 23.7455 26.74 29.491 27.9472C30.6401 28.1872 31.3892 29.3291 31.1637 30.4854L28.2255 45.2418C28.0073 46.2818 27.1055 46.9945 26.0946 46.9945ZM15.5782 37.7145C16.3855 37.7145 17.1928 38.0491 17.7455 38.6527C18.5528 39.54 18.7273 40.9072 18.1673 41.9691C18.0001 42.2818 17.7964 42.5363 17.5928 42.7909C17.4982 42.9145 17.3964 43.0309 17.3092 43.1618C17.1419 43.3945 16.9455 43.7436 16.9819 44.0491C16.9892 44.1363 17.0982 44.2236 17.2219 44.2527L25.891 45.9327C26.4873 46.0491 27.0764 45.6563 27.1928 45.06L30.131 30.3036C30.2473 29.7072 29.8619 29.1254 29.2728 29.0018C23.5346 27.7945 15.7019 26.1582 12.5019 25.5036C11.9273 25.3872 11.3528 25.7436 11.2073 26.3109L10.1601 30.34C10.0655 30.6891 9.82552 31.6272 9.09097 31.8818C8.80006 31.9836 8.34188 32.0054 7.76006 31.5691C7.75279 31.5618 7.73824 31.5545 7.73097 31.5472C6.97461 30.8854 5.86915 30.6527 4.98915 30.9654C4.32006 31.2054 3.77461 31.7727 3.55642 32.4563C3.41824 32.8491 3.35279 33.4745 3.79642 34.1072C4.18188 34.66 4.81461 34.9654 5.4837 34.9218C5.81824 34.9072 6.18188 34.8272 6.56733 34.6891C7.6437 34.3036 8.25461 34.5727 8.58188 34.8636C8.93824 35.1836 9.09097 35.6927 8.97461 36.1654C8.70552 37.2563 8.46552 38.4272 8.24006 39.5545C8.1237 40.1291 8.00733 40.7036 7.8837 41.2709C7.81824 41.5691 7.87642 41.8745 8.05097 42.1291C8.22552 42.3836 8.48733 42.5509 8.79279 42.6018C9.22915 42.6745 9.68006 42.7472 10.1382 42.82C11.0982 42.98 12.0873 43.14 12.9164 43.2563C13.0546 43.0309 13.0692 42.6891 13.0255 42.4054C12.9964 42.2091 12.9455 42.0127 12.8873 41.7945C12.8001 41.4672 12.7128 41.1254 12.6982 40.7545C12.6401 39.5545 13.3673 38.3909 14.4801 37.9254C14.8292 37.78 15.2001 37.7145 15.5782 37.7145Z" fill="#1E1D26"/>
<path d="M3.04022 12.2165L7.93476 9.5983C8.35658 9.37285 8.61113 8.80557 8.4584 8.35466C8.32749 7.96921 8.00749 7.6783 7.67294 7.44557C6.96022 6.96557 6.3784 6.57285 5.9784 5.78012C5.61476 5.04557 5.55658 4.15103 5.89112 3.40194C6.38567 2.28194 7.69476 1.59103 8.90203 1.81648C10.1093 2.04194 11.0839 3.14012 11.1566 4.36194C11.1857 4.81285 11.0984 5.27103 11.142 5.72194C11.1857 6.17285 11.4111 6.65285 11.8329 6.81285C13.6366 5.65648 15.5202 4.55103 17.3602 3.41648C18.1239 2.94376 19.1202 3.16194 19.622 3.90375C20.4002 5.05285 21.1929 6.18012 21.9566 7.35103C22.2257 7.7583 22.822 7.97648 23.2657 7.78739C23.6511 7.62739 23.9348 7.29285 24.1602 6.94376C24.2402 6.81285 24.3202 6.68194 24.4002 6.54376C24.7784 5.90376 25.382 5.40921 26.102 5.21285C29.0257 4.43466 30.2184 9.10376 26.822 9.5983C26.5166 9.64194 26.2039 9.63466 25.8984 9.59103C25.462 9.52557 25.0329 9.8383 24.8075 10.231C24.5675 10.6456 24.5529 11.1619 24.6693 11.6274C24.7857 12.0928 25.0111 12.5219 25.2439 12.9438L27.6511 17.4238C28.0729 18.2019 27.8111 19.1765 27.0548 19.6419C25.4039 20.6674 23.7529 21.6492 22.0948 22.7038C21.6584 22.9801 21.0693 22.8056 20.8729 22.3328C20.7129 21.9547 20.7348 21.5328 20.6548 21.1328C20.4075 19.9038 19.0911 19.0092 17.8475 19.1983C16.6111 19.3874 15.622 20.5947 15.6511 21.8528C15.6802 22.9801 16.4948 24.0201 17.5493 24.3838C17.9784 24.5292 18.182 25.031 17.9639 25.4238C17.782 25.7583 17.4548 25.9765 17.1348 26.1801L13.3093 28.6528C12.5239 29.1619 11.4693 28.9292 10.9748 28.1292C9.70931 26.0783 8.36385 24.0056 7.14203 21.9692C6.75658 21.7801 6.74203 21.0238 6.99658 20.6819C7.25112 20.3401 7.70203 20.2019 8.13113 20.1728C8.55294 20.1438 8.98931 20.1947 9.41112 20.1292C10.4584 19.9765 11.3457 19.0674 11.4693 18.0201C11.5929 16.9728 10.9457 15.8747 9.97113 15.4819C8.98931 15.0892 7.76749 15.4238 7.12749 16.2674C6.82931 16.6674 6.65476 17.1474 6.34203 17.5401C6.02931 17.9328 5.50567 18.231 5.04022 18.0492C4.72749 17.9256 4.5384 17.6201 4.36385 17.3365C3.8184 16.4419 3.12749 15.5765 2.46567 14.711C1.86931 13.8819 2.1384 12.7038 3.04022 12.2165Z" fill="#1E1D26"/>
<path d="M12.4292 29.4455C12.2692 29.4455 12.1019 29.4309 11.9419 29.3873C11.3601 29.2564 10.8656 28.9073 10.5528 28.3982C10.0728 27.62 9.57828 26.8346 9.08373 26.0491C8.31282 24.8273 7.5201 23.5691 6.77828 22.3328C6.58191 22.18 6.43646 21.9546 6.37101 21.6637C6.26191 21.2055 6.35646 20.6818 6.60373 20.3546C6.91646 19.94 7.4401 19.6928 8.11646 19.6418C8.3201 19.6273 8.51646 19.6273 8.70555 19.6273C8.93828 19.6273 9.15646 19.6273 9.3601 19.5982C10.1674 19.4818 10.8728 18.7546 10.9746 17.9473C11.0692 17.14 10.5528 16.2673 9.79646 15.9618C9.0401 15.6564 8.06555 15.9255 7.57101 16.58C7.44737 16.74 7.34555 16.9364 7.23646 17.14C7.10555 17.38 6.96737 17.6273 6.78555 17.8673C6.35646 18.4128 5.60737 18.8273 4.8801 18.5364C4.39282 18.34 4.12373 17.9037 3.94919 17.6055C3.52737 16.9073 2.98919 16.2091 2.47282 15.54C2.34191 15.3655 2.21101 15.1982 2.0801 15.0237C1.69464 14.5146 1.54919 13.86 1.68737 13.2273C1.82555 12.5946 2.23282 12.0637 2.8001 11.7582L7.69464 9.14003C7.89828 9.03094 8.03646 8.72548 7.96373 8.52912C7.89101 8.31094 7.69464 8.10003 7.38191 7.88912C6.65464 7.40185 5.97101 6.94367 5.51282 6.02003C5.06919 5.11821 5.03282 4.06367 5.41828 3.19094C6.01464 1.85276 7.55646 1.03821 9.00373 1.30003C10.451 1.56185 11.6001 2.86367 11.6874 4.33276C11.7019 4.57276 11.6874 4.79821 11.6801 5.01639C11.6656 5.24912 11.6583 5.4673 11.6801 5.66367C11.6946 5.83821 11.7601 6.04185 11.8619 6.17276C12.9019 5.51094 13.9783 4.85639 15.0256 4.22367C15.7237 3.80185 16.4146 3.38003 17.1056 2.95821C18.1092 2.34003 19.411 2.61639 20.0801 3.59821C20.3274 3.96185 20.5819 4.33276 20.8292 4.69639C21.3528 5.46003 21.8983 6.25276 22.4219 7.05276C22.5601 7.25639 22.8946 7.38003 23.0983 7.29276C23.3165 7.20548 23.5274 6.99457 23.7456 6.65276C23.811 6.54366 23.8765 6.43457 23.9419 6.32548L23.9783 6.2673C24.4365 5.48912 25.171 4.91457 25.9928 4.69639C27.011 4.4273 27.9856 4.68912 28.6692 5.42367C29.3819 6.19457 29.6292 7.36548 29.2874 8.34003C29.091 8.90003 28.5165 9.87457 26.931 10.1073C26.5965 10.1582 26.2328 10.1509 25.8546 10.1C25.6801 10.0782 25.4328 10.2382 25.2946 10.4782C25.1492 10.7328 25.1201 11.1037 25.2074 11.4891C25.3092 11.8964 25.5201 12.2964 25.731 12.6818L28.1383 17.1618C28.691 18.18 28.3419 19.46 27.3601 20.0782C26.7056 20.4855 26.0583 20.8782 25.411 21.2782C24.4292 21.8818 23.411 22.5 22.4074 23.14C22.0656 23.3582 21.6437 23.4091 21.2583 23.2928C20.8801 23.1691 20.5746 22.8928 20.4219 22.5291C20.291 22.2164 20.2546 21.9037 20.2256 21.62C20.211 21.4891 20.1965 21.3582 20.1746 21.2273C19.9856 20.2818 18.9237 19.5618 17.9637 19.7073C16.9892 19.8528 16.1892 20.8273 16.211 21.8309C16.2328 22.7109 16.8801 23.5764 17.7601 23.8746C18.1092 23.9982 18.3928 24.2673 18.531 24.6164C18.6619 24.9582 18.6401 25.3437 18.4656 25.6637C18.2183 26.1218 17.7965 26.3982 17.4619 26.6164L13.6365 29.0891C13.2583 29.3219 12.851 29.4455 12.4292 29.4455ZM8.53101 20.6746C8.42191 20.6746 8.30555 20.6746 8.19646 20.6818C7.98555 20.6964 7.61464 20.7546 7.4401 20.98C7.35282 21.0964 7.35282 21.4164 7.42555 21.4964C7.5201 21.54 7.56373 21.5909 7.62191 21.6782C8.37101 22.9364 9.18555 24.2237 9.97828 25.4746C10.4728 26.26 10.9674 27.0455 11.4546 27.8309C11.6146 28.0928 11.8765 28.2819 12.1819 28.3473C12.4874 28.4128 12.8001 28.3618 13.0619 28.1873L16.8874 25.7146C17.1492 25.5473 17.4183 25.3728 17.5346 25.1473C17.571 25.0746 17.5565 25.0091 17.5419 24.98C17.5201 24.9218 17.4692 24.8709 17.411 24.8491C16.1165 24.3982 15.1856 23.1618 15.1565 21.8382C15.1201 20.3109 16.3056 18.8782 17.7965 18.6528C19.3383 18.42 20.8946 19.4964 21.1928 21.0018C21.2219 21.1618 21.2437 21.3291 21.2583 21.4891C21.2801 21.7146 21.3092 21.9328 21.3746 22.1073C21.4183 22.2164 21.5128 22.26 21.5637 22.2746C21.6583 22.3037 21.7528 22.2891 21.8328 22.2382C22.8437 21.5982 23.8619 20.9728 24.851 20.3691C25.4983 19.9691 26.1456 19.5764 26.8001 19.1691C27.3165 18.8491 27.4983 18.18 27.2074 17.6418L24.8001 13.1618C24.5746 12.74 24.3128 12.2528 24.1819 11.7218C24.0219 11.0673 24.0874 10.4346 24.3783 9.94003C24.6765 9.42367 25.2946 8.94367 26.0001 9.04548C26.2837 9.08912 26.5456 9.08912 26.7783 9.05276C27.5637 8.93639 28.0874 8.56548 28.2983 7.96912C28.5092 7.36548 28.3492 6.60185 27.8983 6.12185C27.491 5.67821 26.9092 5.52548 26.2692 5.70003C25.7092 5.84548 25.2074 6.24548 24.8874 6.79094L24.8583 6.84912C24.7856 6.97276 24.7128 7.08912 24.6401 7.21276C24.2983 7.74367 23.9274 8.08548 23.5056 8.26003C22.8365 8.52912 21.9637 8.24548 21.5565 7.62003C21.0401 6.83457 20.5019 6.04185 19.9783 5.28548C19.7237 4.92185 19.4765 4.55094 19.2219 4.18003C18.8728 3.67094 18.1892 3.51821 17.6656 3.84548C16.9746 4.27457 16.2765 4.69639 15.5783 5.11821C14.4437 5.80912 13.2656 6.52185 12.1456 7.23457C12.0074 7.32185 11.8328 7.34367 11.6801 7.28548C11.1201 7.07457 10.7201 6.49276 10.6474 5.75821C10.6183 5.47457 10.6328 5.20548 10.6474 4.94367C10.6619 4.7473 10.6692 4.55821 10.6546 4.37639C10.5965 3.39457 9.79646 2.49276 8.82919 2.31094C7.86191 2.13639 6.79282 2.69639 6.39282 3.59821C6.13101 4.18003 6.1601 4.92185 6.46555 5.53276C6.8001 6.20912 7.29464 6.53639 7.97828 7.00185C8.48737 7.34367 8.81464 7.73639 8.96737 8.17276C9.2001 8.85639 8.85828 9.70003 8.19646 10.0491L3.30191 12.6673C3.00373 12.8273 2.79282 13.1109 2.7201 13.4382C2.64737 13.7655 2.7201 14.1073 2.92373 14.3764C3.05464 14.5437 3.18555 14.7182 3.31646 14.8855C3.84737 15.5837 4.4001 16.3037 4.85101 17.0455C4.9601 17.2273 5.11282 17.4818 5.2801 17.5473C5.48373 17.6273 5.78919 17.4382 5.97101 17.2055C6.10191 17.0382 6.21101 16.8346 6.32737 16.6237C6.45101 16.3982 6.58191 16.1582 6.74919 15.9328C7.52737 14.9073 9.01101 14.4928 10.2037 14.9728C11.3965 15.4528 12.1819 16.7837 12.0292 18.0564C11.8765 19.3364 10.8001 20.4346 9.52737 20.6237C9.24373 20.6673 8.97464 20.66 8.71282 20.66C8.6401 20.6746 8.58919 20.6746 8.53101 20.6746Z" fill="#1E1D26"/>
<path d="M27.8475 36.2892L26.0729 27.642C26.0075 27.3074 26.1311 26.9438 26.422 26.7838C26.8147 26.5656 27.302 26.5874 27.7456 26.6892C28.1966 26.7911 28.6402 26.9729 29.1056 27.0165C30.0729 27.1038 31.0693 26.5365 31.4838 25.6565C31.8984 24.7765 31.6947 23.6493 31.0038 22.9583C30.3129 22.2747 29.1856 22.0783 28.3056 22.5002C27.8184 22.7329 27.4184 23.1256 26.9602 23.4093C26.4947 23.6929 25.8911 23.8529 25.4184 23.5838C25.0766 22.3547 24.7202 20.7183 24.3638 19.2565C24.1456 18.3402 24.7347 17.4383 25.6584 17.2638C27.3747 16.9438 29.1275 16.5656 30.8075 16.3111C31.3456 16.2311 31.9566 15.5256 30.9384 14.3983C30.662 14.0856 30.4075 13.7438 30.2184 13.3729C29.8402 12.602 29.8911 11.7147 30.3566 10.9874C31.3456 9.43107 33.4766 9.62016 34.5529 10.7983C35.3384 11.6638 35.5566 12.9729 35.1784 14.0783C34.8293 15.4311 36.2402 15.2347 36.6547 15.1765L40.7784 14.5947C41.6438 14.4711 42.4438 15.0456 42.6111 15.8965C43.2656 19.242 44.8147 27.3874 45.8184 32.7256C45.9856 33.6056 45.4111 34.4565 44.5311 34.6311L29.7747 37.5838C28.8947 37.7365 28.0293 37.1692 27.8475 36.2892Z" fill="#1E1D26"/>
<path d="M29.4546 38.1219C28.451 38.1219 27.5492 37.4164 27.3383 36.3983L25.5637 27.751C25.4474 27.1692 25.6874 26.5946 26.1674 26.3255C26.6183 26.071 27.1856 26.0201 27.8619 26.1801C28.0292 26.2164 28.2037 26.2673 28.371 26.3183C28.6474 26.3983 28.9019 26.471 29.1492 26.4928C29.8983 26.5655 30.6837 26.1146 31.0037 25.431C31.3237 24.7473 31.1637 23.8601 30.6328 23.3292C30.0946 22.7983 29.2146 22.6455 28.531 22.9728C28.291 23.0892 28.0656 23.2564 27.8256 23.4383C27.6365 23.5764 27.4474 23.7219 27.2292 23.8528C26.5019 24.2964 25.731 24.3619 25.1565 24.0346C25.0328 23.9692 24.9456 23.8528 24.9092 23.7219C24.6692 22.8419 24.4074 21.7437 24.1601 20.6892C24.0583 20.2455 23.9565 19.8019 23.8474 19.3728C23.7092 18.791 23.811 18.1873 24.1383 17.6855C24.4656 17.1837 24.9674 16.8492 25.5565 16.7401C26.1237 16.6383 26.691 16.5219 27.2583 16.4128C28.4001 16.1873 29.5856 15.9619 30.7201 15.7801C30.8001 15.7655 30.9019 15.7073 30.9383 15.6055C31.0037 15.4164 30.8583 15.0892 30.5383 14.7328C30.1965 14.3546 29.9274 13.9692 29.7383 13.5837C29.2801 12.6528 29.3383 11.5692 29.9056 10.6892C30.4074 9.89644 31.2074 9.41644 32.1456 9.33644C33.171 9.24916 34.2401 9.66371 34.931 10.4273C35.8183 11.4019 36.1092 12.8855 35.6728 14.2092C35.6146 14.4419 35.6437 14.551 35.6656 14.5801C35.7019 14.6164 35.8619 14.7328 36.5674 14.6383L40.691 14.0564C41.8256 13.8964 42.8946 14.6528 43.1128 15.7801C43.7456 19.031 45.2365 26.8783 46.3201 32.6164C46.5383 33.7728 45.7746 34.9001 44.6183 35.1328L29.8619 38.0855C29.7383 38.1073 29.5928 38.1219 29.4546 38.1219ZM28.3637 36.1801C28.4874 36.7764 29.0692 37.1619 29.6728 37.0455L44.4292 34.0928C45.0256 33.9764 45.4183 33.3946 45.3019 32.7983C44.2183 27.0673 42.7274 19.2201 42.0946 15.9692C41.9783 15.3873 41.4328 15.0019 40.851 15.0819L36.7274 15.6637C36.3637 15.7146 35.411 15.8455 34.8946 15.271C34.691 15.0455 34.4874 14.6237 34.6692 13.9183C34.6692 13.9037 34.6765 13.8964 34.6837 13.8819C35.0037 12.9292 34.8001 11.8237 34.1674 11.1255C33.6946 10.6019 32.9528 10.3183 32.2474 10.3764C31.8183 10.4128 31.2219 10.5946 30.8074 11.2492C30.4437 11.8164 30.4074 12.5146 30.6983 13.1183C30.8437 13.4164 31.0619 13.7219 31.331 14.0273C32.1019 14.8783 32.0874 15.5401 31.9419 15.9546C31.7819 16.4055 31.3674 16.7401 30.8946 16.8128C29.7819 16.9873 28.611 17.2128 27.4765 17.4383C26.9019 17.5473 26.3274 17.6637 25.7601 17.7655C25.4546 17.8237 25.2001 17.991 25.0328 18.2528C24.8656 18.5146 24.8146 18.8201 24.8874 19.1183C24.9892 19.5473 25.0983 19.991 25.2001 20.4346C25.4183 21.3801 25.651 22.3619 25.8692 23.1764C26.131 23.2201 26.451 23.0964 26.6983 22.951C26.8656 22.8492 27.0328 22.7255 27.2074 22.5946C27.4765 22.391 27.7601 22.1801 28.0946 22.0201C29.1783 21.5037 30.5383 21.7364 31.3892 22.5801C32.2401 23.4237 32.4801 24.7837 31.971 25.8673C31.4619 26.9583 30.2692 27.6419 29.0692 27.5255C28.7201 27.4892 28.4001 27.4019 28.0946 27.3073C27.9419 27.2637 27.7965 27.2201 27.6437 27.1837C27.3601 27.1183 26.9674 27.0746 26.6983 27.2201C26.6183 27.2637 26.5819 27.3946 26.6037 27.5183L28.3637 36.1801Z" fill="#1E1D26"/>
<path d="M30.7929 29.7946L27.8547 44.5509C27.6802 45.4382 26.822 46.0128 25.9347 45.8382L17.2656 44.1582C16.9311 44.0928 16.6402 43.8382 16.6038 43.5037C16.5529 43.06 16.7638 42.6164 17.0256 42.2455C17.2947 41.8673 17.6293 41.5255 17.8475 41.1182C18.3056 40.26 18.1602 39.1255 17.5056 38.3982C16.8511 37.6782 15.7311 37.4309 14.8365 37.8091C13.942 38.18 13.3238 39.1546 13.3747 40.1219C13.4038 40.66 13.6147 41.1764 13.6947 41.7146C13.7747 42.2528 13.6947 42.8709 13.2656 43.2055C12.0002 43.0455 10.3493 42.7546 8.86564 42.5146C7.93473 42.3619 7.32382 41.4746 7.52019 40.5582C7.88382 38.8491 8.2111 37.0891 8.61837 35.4382C8.74928 34.9073 8.33473 34.0709 6.902 34.58C6.50928 34.7182 6.09473 34.82 5.68019 34.8419C4.822 34.8928 4.022 34.5073 3.53473 33.8019C2.48019 32.2891 3.46928 30.3909 4.96746 29.8528C6.03655 29.4673 7.28746 29.7509 8.16019 30.4709C8.18928 30.4928 8.21109 30.5146 8.23291 30.5291C9.35291 31.3728 9.702 29.9909 9.8111 29.5909L10.8584 25.5619C11.0765 24.7255 11.9129 24.1946 12.7638 24.3691C16.1093 25.0528 24.2184 26.7473 29.542 27.8673C30.2038 28.0055 30.6838 28.5291 30.8075 29.1546C30.8293 29.3728 30.8366 29.5837 30.7929 29.7946Z" fill="#3D68F8"/>
<g opacity="0.1">
<path d="M30.7929 29.7946L27.8547 44.551C27.6802 45.4382 26.822 46.0128 25.9347 45.8382L17.2656 44.1582C16.9311 44.0928 16.6402 43.8382 16.6038 43.5037C16.5529 43.06 16.7638 42.6164 17.0256 42.2455C17.2947 41.8673 17.6293 41.5255 17.8475 41.1182C18.3056 40.26 18.1602 39.1255 17.5056 38.3982C16.8511 37.6782 15.7311 37.431 14.8365 37.8091C13.942 38.18 13.3238 39.1546 13.3747 40.1219C13.4038 40.66 13.6147 41.1764 13.6947 41.7146C13.7747 42.2528 13.6947 42.871 13.2656 43.2055C12.0002 43.0455 10.3493 42.7546 8.86564 42.5146C7.93473 42.3619 7.32382 41.4746 7.52019 40.5582C7.88382 38.8491 8.2111 37.0891 8.61837 35.4382C8.74928 34.9073 8.33473 34.071 6.902 34.58C6.50928 34.7182 6.09473 34.82 5.68019 34.8419C4.822 34.8928 4.022 34.5073 3.53473 33.8019C2.48019 32.2891 3.46928 30.391 4.96746 29.8528C6.03655 29.4673 7.28746 29.751 8.16019 30.471C8.30564 31.1982 8.37837 31.94 8.63291 32.6382C8.89473 33.3582 9.4111 34.0419 10.1456 34.2528C11.2438 34.5655 12.3929 33.7582 13.5129 33.94C15.2075 34.2091 16.0002 36.5146 17.6947 36.7837C19.0693 36.9946 20.6256 35.78 21.7456 36.6091C22.5529 37.2055 22.5311 38.5437 23.3675 39.0891C24.102 39.5619 25.1275 39.1328 25.6438 38.4346C26.1675 37.7364 26.3275 36.8419 26.5456 36.0055C27.1202 33.86 28.2038 31.8528 29.6875 30.2019C30.022 29.831 30.3929 29.4746 30.7929 29.1619C30.8293 29.3728 30.8366 29.5837 30.7929 29.7946Z" fill="#1E1D26"/>
</g>
<path d="M26.2473 46.3981C26.1092 46.3981 25.971 46.3836 25.8328 46.3618L17.1637 44.6745C16.5819 44.5581 16.1455 44.1145 16.0801 43.569C16.0219 43.0527 16.1892 42.5072 16.5964 41.9472C16.6982 41.8018 16.8073 41.6709 16.9164 41.5327C17.0982 41.3072 17.2655 41.1036 17.3819 40.8781C17.7382 40.209 17.6219 39.3218 17.1128 38.7618C16.6037 38.2018 15.731 38.0054 15.0328 38.2963C14.3346 38.5872 13.8546 39.3436 13.8982 40.1C13.9128 40.3618 13.9855 40.6381 14.0582 40.929C14.1164 41.1545 14.1746 41.3945 14.211 41.6418C14.3419 42.4781 14.1019 43.22 13.5782 43.6272C13.4692 43.7145 13.331 43.7509 13.1928 43.729C12.291 43.6127 11.1782 43.4309 10.1092 43.2563C9.65825 43.1836 9.20734 43.1109 8.77098 43.0381C8.17461 42.9436 7.66552 42.6163 7.3237 42.1218C6.98916 41.6272 6.86552 41.0381 6.99643 40.449C7.12007 39.8818 7.23643 39.3145 7.35279 38.7472C7.58552 37.6054 7.82552 36.4272 8.10188 35.3145C8.1237 35.2345 8.10916 35.1181 8.02916 35.0454C7.87643 34.9072 7.52007 34.9218 7.07643 35.0818C6.59643 35.249 6.13825 35.3509 5.70916 35.38C4.67643 35.4454 3.69461 34.9727 3.09825 34.1145C2.56007 33.3436 2.42188 32.4272 2.71279 31.5254C3.02552 30.5436 3.82552 29.7145 4.78552 29.3727C6.02916 28.929 7.51279 29.2272 8.56007 30.1363C8.75643 30.2818 8.86552 30.2963 8.90188 30.2818C8.95279 30.2672 9.12007 30.1581 9.30188 29.4672L10.3492 25.4381C10.6401 24.3254 11.7455 23.6345 12.8728 23.86C16.1019 24.5218 23.9273 26.1581 29.651 27.3581C30.8001 27.5981 31.5492 28.74 31.3237 29.8963L28.3637 44.66C28.1601 45.6854 27.251 46.3981 26.2473 46.3981ZM15.7237 37.1109C16.531 37.1109 17.3382 37.4454 17.891 38.049C18.6982 38.9363 18.8728 40.3036 18.3128 41.3654C18.1455 41.6781 17.9419 41.9327 17.7382 42.1872C17.6364 42.3036 17.5419 42.4272 17.4546 42.5509C17.2873 42.7836 17.091 43.1327 17.1273 43.4381C17.1346 43.5254 17.2437 43.6127 17.3673 43.6418L26.0364 45.3218C26.6328 45.4381 27.2219 45.0454 27.3382 44.449L30.2764 29.6927C30.3928 29.0963 30.0073 28.5145 29.4182 28.3909C23.6946 27.1836 15.8764 25.5472 12.6473 24.8927C12.0728 24.7763 11.4982 25.1327 11.3528 25.7L10.3055 29.729C10.211 30.0781 9.97098 31.0163 9.23643 31.2709C8.94552 31.3727 8.48734 31.3945 7.90552 30.9581C7.89825 30.9509 7.8837 30.9436 7.87643 30.9363C7.12007 30.2745 6.01461 30.0418 5.13461 30.3545C4.46552 30.5945 3.92007 31.1618 3.70188 31.8454C3.57098 32.2527 3.50552 32.8781 3.94916 33.5109C4.33461 34.0636 4.96734 34.369 5.63643 34.3254C5.9637 34.3036 6.32734 34.2236 6.71279 34.0854C7.78916 33.7 8.40007 33.969 8.72734 34.26C9.0837 34.58 9.23643 35.089 9.12007 35.5618C8.85098 36.6527 8.61098 37.8236 8.38552 38.9509C8.26916 39.5254 8.15279 40.1 8.02916 40.6672C7.9637 40.9654 8.02188 41.2709 8.19643 41.5254C8.37098 41.78 8.63279 41.9472 8.93825 41.9981C9.37461 42.0709 9.82552 42.1436 10.2837 42.2163C11.2437 42.3763 12.2328 42.5363 13.0619 42.6527C13.2001 42.4272 13.2146 42.0854 13.171 41.8018C13.1419 41.6054 13.091 41.409 13.0328 41.1909C12.9455 40.8636 12.8582 40.5218 12.8437 40.1509C12.7855 38.9509 13.5128 37.7872 14.6255 37.3218C14.9819 37.1836 15.3528 37.1109 15.7237 37.1109Z" fill="#1E1D26"/>
<path d="M25.1929 10.8055C24.9529 11.2201 24.9383 11.7364 25.0547 12.2019C25.1711 12.6673 25.3965 13.0964 25.6292 13.5182L28.0365 17.9982C28.4583 18.7837 28.1965 19.751 27.4402 20.2164C25.7892 21.2419 24.1383 22.2237 22.4802 23.2782C22.0438 23.5546 21.4547 23.3801 21.2583 22.9073C21.0983 22.5292 21.1202 22.1073 21.0402 21.7073C20.7929 20.4782 19.4692 19.5837 18.2329 19.7728C16.9965 19.9619 16.0074 21.1692 16.0365 22.4273C16.0656 23.5546 16.8802 24.5946 17.9347 24.9582C18.3638 25.111 18.5674 25.6055 18.3565 26.0055C18.1747 26.3401 17.8474 26.5582 17.5274 26.7619L13.7092 29.2346C12.9238 29.7437 11.8692 29.5037 11.3747 28.711C11.1492 28.3473 10.9238 27.9764 10.6911 27.6128C9.62924 25.9255 8.54561 24.2237 7.54197 22.5437C7.15652 22.3546 7.14197 21.5982 7.39652 21.2564C7.65106 20.9146 8.10197 20.7837 8.53106 20.7473C8.95288 20.711 9.38197 20.7619 9.81106 20.7037C10.8583 20.551 11.7456 19.6419 11.8692 18.5946C11.9929 17.5473 11.3456 16.4492 10.3638 16.0564C9.38197 15.6637 8.16015 16.0055 7.52743 16.8419C7.22197 17.2419 7.0547 17.7219 6.74197 18.1146C6.42924 18.5073 5.90561 18.8055 5.44015 18.6237C5.12743 18.5001 4.93834 18.1946 4.76379 17.911C4.21834 17.0164 3.52015 16.151 2.86561 15.2855C2.24743 14.4637 2.50924 13.2855 3.41834 12.7982L8.31288 10.1801C8.7347 9.95461 8.98924 9.38734 8.83652 8.93643C8.70561 8.55097 8.39288 8.25279 8.05106 8.02734C7.34561 7.55461 6.75652 7.15461 6.36379 6.36188C6.00015 5.62734 5.94197 4.73279 6.27652 3.9837C6.77106 2.8637 8.08015 2.17279 9.28743 2.39097C10.4874 2.60916 11.4692 3.71461 11.542 4.93643C11.5711 5.39461 11.4838 5.84552 11.5274 6.29643C11.5783 6.74734 11.7965 7.22734 12.2183 7.38734C14.022 6.23825 15.9129 5.12552 17.7456 3.99097C18.5092 3.51825 19.5056 3.73643 20.0074 4.47825C20.4074 5.06734 20.8147 5.65643 21.2147 6.25279C21.5929 6.80552 21.9711 7.35825 22.342 7.92552C22.6038 8.33279 23.2074 8.55097 23.6511 8.36188C24.0292 8.20188 24.3202 7.86734 24.5383 7.51825C24.6256 7.38734 24.6983 7.25643 24.7783 7.11825C25.1565 6.47825 25.7602 5.9837 26.4802 5.78734C29.4111 5.00916 30.5965 9.67825 27.2002 10.1728C26.8947 10.2164 26.582 10.2092 26.2765 10.1655C25.8547 10.1001 25.4183 10.4128 25.1929 10.8055Z" fill="#FFC94D"/>
<g opacity="0.1">
<path d="M25.1927 10.8054C24.9527 11.22 24.9382 11.7364 25.0546 12.2018C25.1709 12.6673 25.3964 13.0964 25.6291 13.5182L28.0364 17.9982C28.4582 18.7836 28.1964 19.7509 27.44 20.2164C25.7891 21.2418 24.1382 22.2236 22.48 23.2782C22.0436 23.5545 21.4546 23.38 21.2582 22.9073C21.0982 22.5291 21.12 22.1073 21.04 21.7073C20.7927 20.4782 19.4691 19.5836 18.2327 19.7727C16.9964 19.9618 16.0073 21.1691 16.0364 22.4273C16.0655 23.5545 16.88 24.5945 17.9346 24.9582C18.3636 25.1109 18.5673 25.6054 18.3564 26.0054C18.1746 26.34 17.8473 26.5582 17.5273 26.7618L13.7091 29.2345C12.9236 29.7436 11.8691 29.5036 11.3746 28.7109C11.1491 28.3473 10.9236 27.9764 10.6909 27.6127C11.5709 27.1618 12.4073 26.4709 12.6618 25.5182C12.9527 24.4418 12.4364 23.3 12.5964 22.2018C12.8146 20.74 14.1455 19.7436 15.3891 18.9654C16.64 18.18 18.0146 17.3436 18.4873 15.9473C19.0982 14.1291 17.92 12.0418 18.6327 10.2673C19.0255 9.29999 19.8909 8.6309 20.4946 7.77999C20.8218 7.31454 21.0618 6.79818 21.2218 6.25999C21.6 6.81272 21.9782 7.36545 22.3491 7.93272C22.6109 8.33999 23.2146 8.55818 23.6582 8.36908C24.0364 8.20908 24.3273 7.87454 24.5455 7.52545C24.6327 7.39454 24.7055 7.26363 24.7855 7.12545C25.1636 6.48545 25.7673 5.9909 26.4873 5.79454C29.4182 5.01636 30.6036 9.68545 27.2073 10.18C26.9018 10.2236 26.5891 10.2164 26.2836 10.1727C25.8546 10.1 25.4182 10.4127 25.1927 10.8054Z" fill="#1E1D26"/>
</g>
<path d="M12.8001 30.0199C12.6401 30.0199 12.4728 30.0054 12.3128 29.969C11.731 29.8381 11.2365 29.489 10.9237 28.9799C10.4437 28.2018 9.94918 27.4163 9.45463 26.6381C8.68372 25.4163 7.891 24.1509 7.14918 22.9145C6.95282 22.7618 6.80736 22.5363 6.74191 22.2454C6.63282 21.7872 6.72736 21.2636 6.97463 20.9363C7.28736 20.5218 7.811 20.2745 8.48736 20.2236C8.691 20.209 8.88736 20.209 9.07645 20.209C9.30918 20.209 9.52736 20.209 9.731 20.1799C10.5383 20.0636 11.2437 19.3363 11.3455 18.529C11.4401 17.7218 10.9237 16.849 10.1674 16.5436C9.411 16.2381 8.43645 16.5072 7.94191 17.1618C7.81827 17.3218 7.71645 17.5181 7.60736 17.7218C7.47645 17.9618 7.33827 18.209 7.15645 18.449C6.72736 18.9945 5.97827 19.409 5.251 19.1181C4.76372 18.9218 4.49463 18.4854 4.32009 18.1872C3.89827 17.489 3.36736 16.7981 2.851 16.1218C2.72009 15.9472 2.58918 15.7799 2.45827 15.6054C2.07282 15.0963 1.92736 14.4418 2.06554 13.809C2.20372 13.1763 2.611 12.6454 3.17827 12.3399L8.07282 9.72176C8.27645 9.61267 8.41463 9.30722 8.34191 9.11086C8.26918 8.89267 8.07282 8.68176 7.76009 8.47086C7.03282 7.98358 6.34918 7.5254 5.891 6.60176C5.44009 5.69995 5.40372 4.63813 5.78918 3.7654C6.38554 2.42722 7.92736 1.61267 9.37463 1.87449C10.8219 2.13631 11.971 3.43813 12.0583 4.90722C12.0728 5.14722 12.0583 5.37267 12.051 5.59086C12.0365 5.82358 12.0292 6.04176 12.0437 6.2454C12.0583 6.41995 12.1237 6.62358 12.2255 6.75449C13.2655 6.09267 14.3419 5.43813 15.3892 4.8054C16.0874 4.38358 16.7783 3.96176 17.4692 3.53995C18.4728 2.92176 19.7746 3.19813 20.4437 4.17995C20.691 4.54358 20.9455 4.90722 21.1928 5.27813C21.7165 6.04176 22.2619 6.83449 22.7855 7.63449C22.9237 7.83813 23.2583 7.96176 23.4619 7.87449C23.6801 7.78722 23.891 7.57631 24.1092 7.23449C24.1819 7.1254 24.2474 7.00904 24.3128 6.89995L24.3419 6.85631C24.8001 6.07813 25.5346 5.50358 26.3565 5.2854C27.3746 5.01631 28.3492 5.27813 29.0328 6.01267C29.7455 6.78358 29.9928 7.95449 29.651 8.92904C29.4546 9.48904 28.8801 10.4636 27.2946 10.6963C26.9601 10.7472 26.5965 10.7399 26.2183 10.689C26.0437 10.6672 25.7965 10.8272 25.6583 11.0672C25.5128 11.3218 25.4837 11.6927 25.571 12.0781C25.6728 12.4854 25.8837 12.8854 26.0946 13.2709L28.5019 17.7509C29.0546 18.769 28.7055 20.049 27.7237 20.6672C27.0692 21.0745 26.4219 21.4672 25.7746 21.8672C24.7928 22.4709 23.7746 23.089 22.771 23.729C22.4292 23.9472 22.0074 24.0054 21.6219 23.8818C21.2437 23.7581 20.9383 23.4818 20.7855 23.1181C20.6546 22.8054 20.6255 22.4927 20.5892 22.209C20.5746 22.0781 20.5601 21.9472 20.5383 21.8163C20.3492 20.8709 19.2946 20.1509 18.3274 20.2963C17.3528 20.4418 16.5528 21.4163 16.5746 22.4199C16.5965 23.2999 17.2437 24.1654 18.1237 24.4636C18.4728 24.5872 18.7565 24.8563 18.8946 25.2054C19.0255 25.5472 19.0037 25.9327 18.8292 26.2527C18.5819 26.7109 18.1601 26.9872 17.8255 27.2054L14.0001 29.6781C13.6292 29.9036 13.2219 30.0199 12.8001 30.0199ZM8.90191 21.2563C8.79282 21.2563 8.67645 21.2563 8.56736 21.2636C8.35645 21.2781 7.98554 21.3363 7.811 21.5618C7.72372 21.6781 7.72373 21.9981 7.79645 22.0781C7.891 22.1218 7.93463 22.1727 7.99282 22.2599C8.74918 23.5181 9.56372 24.8127 10.3492 26.0636C10.8437 26.849 11.3383 27.6345 11.8183 28.4127C11.9783 28.6745 12.2401 28.8636 12.5455 28.929C12.851 28.9945 13.1637 28.9436 13.4255 28.769L17.251 26.2963C17.5128 26.129 17.7819 25.9545 17.8983 25.729C17.9346 25.6563 17.9201 25.5909 17.9055 25.5618C17.8837 25.5036 17.8328 25.4527 17.7746 25.4309C16.4801 24.9799 15.5492 23.7436 15.5201 22.4199C15.4837 20.8927 16.6692 19.4599 18.1601 19.2345C19.6946 19.0018 21.2583 20.0781 21.5565 21.5836C21.5855 21.7436 21.6074 21.9109 21.6219 22.0709C21.6437 22.2963 21.6728 22.5145 21.7383 22.689C21.7819 22.7981 21.8765 22.8418 21.9274 22.8563C22.0219 22.8854 22.1165 22.8709 22.1965 22.8199C23.2074 22.1799 24.2255 21.5545 25.2146 20.9509C25.8619 20.5509 26.5092 20.1581 27.1637 19.7509C27.6801 19.4309 27.8619 18.7618 27.571 18.2236L25.1637 13.7436C24.9383 13.3218 24.6765 12.8345 24.5455 12.3036C24.3855 11.649 24.451 11.0163 24.7419 10.5218C25.0401 10.0054 25.6583 9.5254 26.3637 9.62722C26.6474 9.67086 26.9092 9.67086 27.1419 9.63449C27.9274 9.51813 28.451 9.14722 28.6619 8.55086C28.8728 7.94722 28.7128 7.18358 28.2619 6.69631C27.8546 6.25267 27.2728 6.09995 26.6328 6.27449C26.0728 6.41995 25.571 6.81995 25.251 7.3654L25.2219 7.40904C25.1492 7.53267 25.0765 7.65631 24.9965 7.77995C24.6546 8.31086 24.2837 8.65267 23.8619 8.82722C23.1928 9.10358 22.3201 8.81267 21.9128 8.18722C21.3965 7.39449 20.8583 6.60904 20.3346 5.8454C20.0801 5.48176 19.8328 5.11086 19.5855 4.74722C19.2365 4.23813 18.5528 4.0854 18.0292 4.41267C17.3383 4.84176 16.6401 5.26358 15.9419 5.6854C14.8074 6.37631 13.6292 7.08904 12.5092 7.80176C12.371 7.88904 12.1965 7.91086 12.0437 7.85267C11.3674 7.6054 11.0692 6.89995 11.011 6.3254C10.9819 6.04176 10.9965 5.77267 11.011 5.51086C11.0183 5.31449 11.0328 5.1254 11.0183 4.94358C10.9601 3.96176 10.1601 3.05995 9.19282 2.8854C8.21827 2.73267 7.14918 3.29995 6.74918 4.19449C6.48736 4.77631 6.51645 5.51813 6.82191 6.12904C7.15645 6.8054 7.651 7.13267 8.33463 7.59813C8.84372 7.93995 9.171 8.33267 9.32372 8.76904C9.55645 9.45267 9.21463 10.2963 8.55282 10.6454L3.65827 13.2636C3.36009 13.4236 3.14918 13.7072 3.07645 14.0345C3.00372 14.3618 3.07645 14.7036 3.28009 14.9727C3.411 15.1472 3.54191 15.3145 3.67282 15.4818C4.20373 16.1799 4.75645 16.8927 5.20736 17.6418C5.31645 17.8236 5.46918 18.0781 5.63645 18.1436C5.84009 18.2236 6.14554 18.0345 6.32736 17.8018C6.45827 17.6345 6.56736 17.4309 6.68372 17.2199C6.80736 16.9945 6.93827 16.7545 7.10554 16.529C7.88373 15.5036 9.36736 15.089 10.5601 15.569C11.7528 16.049 12.5383 17.3799 12.3855 18.6527C12.2328 19.9327 11.1565 21.0309 9.88372 21.2199C9.60009 21.2636 9.331 21.2563 9.06918 21.2563C9.011 21.2563 8.96009 21.2563 8.90191 21.2563Z" fill="#1E1D26"/>
<path d="M44.0001 34.6091L29.2437 37.5619C28.3637 37.7364 27.5055 37.1691 27.3164 36.2819L26.4946 32.2673L25.5492 27.6346C25.4837 27.3073 25.6001 26.9364 25.8983 26.7764C26.291 26.5582 26.7783 26.58 27.2219 26.6819C27.6728 26.7837 28.1164 26.9655 28.5819 27.0091C29.5492 27.0964 30.5455 26.5291 30.9601 25.6491C31.3746 24.7691 31.171 23.6346 30.4801 22.9509C29.7892 22.2673 28.6619 22.0709 27.7819 22.4928C27.2946 22.7255 26.8946 23.1182 26.4364 23.4019C25.971 23.6782 25.3674 23.8455 24.8946 23.5691C24.5601 22.34 24.1964 20.7037 23.8474 19.2419C23.6292 18.3255 24.211 17.4164 25.1419 17.2491C26.8583 16.9291 28.611 16.5509 30.291 16.2964C30.8292 16.2091 31.4401 15.5109 30.4219 14.3837C30.1383 14.0709 29.891 13.7291 29.7019 13.3582C29.3237 12.58 29.3746 11.7 29.8401 10.9728C30.8292 9.4164 32.9601 9.59822 34.0364 10.7764C34.8219 11.6419 35.0328 12.9509 34.6619 14.0564C34.3055 15.4091 35.7237 15.2055 36.131 15.1546L40.2546 14.58C40.8364 14.5 41.3892 14.7328 41.7383 15.1473C41.9055 15.3509 42.0364 15.6055 42.0874 15.8819C42.7419 19.2273 44.2837 27.3728 45.2946 32.7182C45.4546 33.5909 44.8801 34.4346 44.0001 34.6091Z" fill="#95CBFC"/>
<g opacity="0.1">
<path d="M44.0001 34.6092L29.2437 37.5619C28.3637 37.7364 27.5055 37.1692 27.3164 36.2819L26.4946 32.2674C27.8328 32.0637 29.1346 31.5765 30.2474 30.7983C31.1783 30.151 32.0292 29.3074 33.1346 29.0746C34.0437 28.8855 34.9746 29.1401 35.8983 29.2492C36.8219 29.351 37.8764 29.2564 38.4801 28.5583C39.3019 27.6128 38.8655 26.151 39.0764 24.9219C39.3092 23.591 40.2983 22.5437 40.931 21.3583C41.8983 19.5619 42.0583 17.4164 41.7601 15.3946C41.7455 15.3074 41.731 15.2201 41.7164 15.1328C41.8837 15.3364 42.0146 15.591 42.0655 15.8674C42.7201 19.2128 44.2619 27.3583 45.2728 32.7037C45.4546 33.591 44.8801 34.4346 44.0001 34.6092Z" fill="#1E1D26"/>
</g>
<path d="M28.9236 38.1219C27.92 38.1219 27.0182 37.4165 26.8073 36.3983L25.0327 27.751C24.9164 27.1692 25.1564 26.5947 25.6364 26.3256C26.0873 26.071 26.6546 26.0201 27.3309 26.1801C27.4982 26.2165 27.6727 26.2674 27.84 26.3183C28.1164 26.3983 28.3709 26.471 28.6182 26.4929C29.3673 26.5656 30.1527 26.1147 30.4727 25.431C30.7927 24.7474 30.6327 23.8601 30.1018 23.3292C29.5636 22.7983 28.6836 22.6456 28 22.9729C27.76 23.0892 27.5345 23.2565 27.2945 23.4383C27.1055 23.5765 26.9164 23.7219 26.6982 23.8529C25.9709 24.2965 25.2 24.3619 24.6255 24.0347C24.5018 23.9692 24.4146 23.8529 24.3782 23.7219C24.1382 22.8419 23.8764 21.7438 23.6291 20.6892C23.5273 20.2456 23.4255 19.8019 23.3164 19.3801C23.1782 18.7983 23.28 18.1947 23.6073 17.6929C23.9345 17.191 24.4364 16.8565 25.0255 16.7474C25.5927 16.6456 26.16 16.5292 26.7273 16.4201C27.8691 16.1947 29.0545 15.9692 30.1891 15.7874C30.2691 15.7729 30.3709 15.7147 30.4073 15.6129C30.4727 15.4238 30.3273 15.0965 30.0073 14.7401C29.6655 14.3619 29.3964 13.9765 29.2073 13.591C28.7491 12.6601 28.8073 11.5765 29.3745 10.6965C29.8764 9.90376 30.6764 9.42376 31.6146 9.34376C32.64 9.25649 33.7091 9.67103 34.4 10.4347C35.2873 11.4092 35.5782 12.8929 35.1418 14.2165C35.0836 14.4492 35.1127 14.5583 35.1346 14.5874C35.1709 14.6238 35.3309 14.7401 36.0364 14.6456L40.16 14.0638C41.3018 13.9038 42.3636 14.6601 42.5818 15.7874C43.2582 19.2492 44.8655 27.7147 45.7891 32.6238C46.0073 33.7801 45.2436 34.9074 44.0873 35.1401L29.3309 38.0929C29.2073 38.1074 29.0618 38.1219 28.9236 38.1219ZM27.8327 36.1801C27.9564 36.7765 28.5382 37.1619 29.1418 37.0456L43.8982 34.0929C44.4946 33.9765 44.8873 33.3947 44.7709 32.7983C43.8473 27.8892 42.24 19.431 41.5636 15.9692C41.4473 15.3874 40.9018 15.0019 40.32 15.0819L36.1964 15.6638C35.8327 15.7147 34.88 15.8456 34.3636 15.271C34.16 15.0456 33.9564 14.6238 34.1382 13.9183C34.1382 13.9038 34.1455 13.8965 34.1527 13.8819C34.4727 12.9292 34.2691 11.8238 33.6364 11.1256C33.1636 10.6019 32.4218 10.3183 31.7164 10.3765C31.2873 10.4129 30.6909 10.5947 30.2764 11.2492C29.9127 11.8165 29.8764 12.5147 30.1673 13.1183C30.3127 13.4165 30.5309 13.7219 30.8 14.0274C31.5709 14.8783 31.5564 15.5401 31.4109 15.9547C31.2509 16.4056 30.8364 16.7401 30.3636 16.8129C29.2509 16.9874 28.08 17.2129 26.9455 17.4383C26.3709 17.5474 25.7964 17.6638 25.2291 17.7656C24.9236 17.8238 24.6691 17.991 24.5018 18.2529C24.3345 18.5147 24.2836 18.8201 24.3564 19.1183C24.4582 19.5474 24.56 19.991 24.6691 20.4347C24.8945 21.3801 25.12 22.3619 25.3382 23.1765C25.6 23.2201 25.92 23.0965 26.1673 22.951C26.3345 22.8492 26.5018 22.7256 26.6764 22.5947C26.9455 22.391 27.2291 22.1801 27.5636 22.0201C28.6473 21.5038 30.0073 21.7365 30.8582 22.5801C31.7091 23.4238 31.9491 24.7838 31.44 25.8674C30.9309 26.9583 29.7382 27.6419 28.5382 27.5256C28.1891 27.4892 27.8691 27.4019 27.5636 27.3074C27.4109 27.2638 27.2655 27.2201 27.1127 27.1838C26.8291 27.1183 26.4364 27.0747 26.1673 27.2201C26.0873 27.2638 26.0509 27.3947 26.0727 27.5183L27.8327 36.1801Z" fill="#1E1D26"/>
<path d="M41.0766 30.0855C40.8729 30.0855 40.6911 29.9473 40.6475 29.7364L39.6438 24.9436C39.5929 24.7109 39.7457 24.4782 39.9784 24.4273C40.2111 24.3764 40.4438 24.5291 40.4947 24.7618L41.4984 29.5546C41.5493 29.7873 41.3966 30.02 41.1638 30.0709C41.1347 30.0855 41.1057 30.0855 41.0766 30.0855Z" fill="white"/>
<path d="M41.5493 32.5146C41.3238 32.5146 41.1347 32.34 41.1129 32.1146L41.0474 31.3436C41.0256 31.1036 41.2074 30.8927 41.4474 30.8709C41.6947 30.8491 41.8983 31.0309 41.9202 31.2709L41.9856 32.0418C42.0074 32.2818 41.8256 32.4927 41.5856 32.5146C41.5783 32.5146 41.5638 32.5146 41.5493 32.5146Z" fill="white"/>
<path d="M22.6183 31.0018C22.5965 31.0018 22.5674 31.0018 22.5456 30.9945L18.2546 30.2454C18.0146 30.2018 17.8546 29.9763 17.8983 29.7363C17.9419 29.4963 18.1674 29.3363 18.4074 29.38L22.6983 30.1291C22.9383 30.1727 23.0983 30.3982 23.0547 30.6382C23.011 30.8563 22.8292 31.0018 22.6183 31.0018Z" fill="white"/>
<path d="M24.6545 31.3H24.4C24.16 31.3 23.9636 31.1036 23.9636 30.8636C23.9636 30.6236 24.16 30.4272 24.4 30.4272H24.6545C24.8945 30.4272 25.0909 30.6236 25.0909 30.8636C25.0982 31.1036 24.9018 31.3 24.6545 31.3Z" fill="white"/>
<path d="M10.451 13.1836C10.2982 13.1836 10.1528 13.1036 10.0728 12.9654C9.94915 12.7545 10.0219 12.4927 10.2328 12.3691L14.3928 9.93998C14.6037 9.81634 14.8655 9.88907 14.9892 10.1C15.1128 10.3109 15.0401 10.5727 14.8292 10.6963L10.6692 13.1254C10.6037 13.1618 10.5237 13.1836 10.451 13.1836Z" fill="white"/>
<path d="M16.4655 9.54014C16.3274 9.54014 16.1892 9.47468 16.1019 9.34377C15.971 9.14014 16.0219 8.87105 16.2255 8.74014L16.9964 8.23105C17.2001 8.10014 17.4692 8.15105 17.6001 8.35468C17.731 8.55832 17.6801 8.82741 17.4764 8.95832L16.7055 9.46741C16.6328 9.51832 16.5528 9.54014 16.4655 9.54014Z" fill="white"/>
</svg>
