<svg width="48" height="49" viewBox="0 0 48 49" fill="none" xmlns="http://www.w3.org/2000/svg">
<path d="M47 20.1218H46V18.1218C46 17.0193 45.1025 16.1218 44 16.1218H40C38.8975 16.1218 38 17.0193 38 18.1218V20.1218H36V11.1218C36 10.5691 35.5527 10.1218 35 10.1218H34V8.12183C34 7.01929 33.1025 6.12183 32 6.12183H28C26.8975 6.12183 26 7.01929 26 8.12183V10.1218H22V8.12183C22 7.01929 21.1025 6.12183 20 6.12183H16C14.8975 6.12183 14 7.01929 14 8.12183V10.1218H10V8.12183C10 7.01929 9.10254 6.12183 8 6.12183H4C2.89746 6.12183 2 7.01929 2 8.12183V10.1218H1C0.447266 10.1218 0 10.5691 0 11.1218V21.1218C0 21.6746 0.447266 22.1218 1 22.1218H12V30.1218H10V28.1218C10 27.0193 9.10254 26.1218 8 26.1218H4C2.89746 26.1218 2 27.0193 2 28.1218V30.1218H1C0.447266 30.1218 0 30.5691 0 31.1218V41.1218C0 41.6746 0.447266 42.1218 1 42.1218H47C47.5527 42.1218 48 41.6746 48 41.1218V21.1218C48 20.5691 47.5527 20.1218 47 20.1218Z" fill="#303C42"/>
<path d="M25 22.1218H46V30.1218H25V22.1218Z" fill="#42A5F5"/>
<path opacity="0.1" d="M44 22.1218V26.1218C44 27.2264 43.1046 28.1218 42 28.1218H25V30.1218H46V22.1218H44Z" fill="black"/>
<path d="M40 18.1218H44V20.1218H40V18.1218Z" fill="#42A5F5"/>
<path d="M28 8.12183H32V10.1218H28V8.12183Z" fill="#00BFA5"/>
<path d="M16 8.12183H20V10.1218H16V8.12183Z" fill="#00BFA5"/>
<path d="M4 8.12183H8V10.1218H4V8.12183Z" fill="#00BFA5"/>
<path d="M2 12.1218H34V20.1218H2V12.1218Z" fill="#00BFA5"/>
<path opacity="0.1" d="M32 12.122V16.1212C32 17.2257 31.1046 18.1212 30 18.1212L2 18.1218V20.1218H34V12.1218L32 12.122Z" fill="black"/>
<path d="M14 22.1218H23V30.1218H14V22.1218Z" fill="#FFD600"/>
<path opacity="0.1" d="M21 22.1218V26.1218C21 27.2264 20.1046 28.1218 19 28.1218H14V30.1218H23V22.1218H21Z" fill="black"/>
<path d="M4 28.1218H8V30.1218H4V28.1218Z" fill="#00BFA5"/>
<path d="M2 32.1218H35V40.1218H2V32.1218Z" fill="#00BFA5"/>
<path opacity="0.1" d="M33 32.1218V36.1218C33 37.2264 32.1046 38.1218 31 38.1218H2V40.1218H35V32.1218H33Z" fill="black"/>
<path d="M37 32.1218H46V40.1218H37V32.1218Z" fill="#FFD600"/>
<path opacity="0.1" d="M44 32.1218V36.1218C44 37.2264 43.1046 38.1218 42 38.1218H37V40.1218H46V32.1218H44Z" fill="black"/>
<path d="M47 20.1218H46V18.1218C46 17.0193 45.1025 16.1218 44 16.1218H40C38.8975 16.1218 38 17.0193 38 18.1218V20.1218H36V11.1218C36 10.5691 35.5527 10.1218 35 10.1218H34V8.12183C34 7.01929 33.1025 6.12183 32 6.12183H28C26.8975 6.12183 26 7.01929 26 8.12183V10.1218H22V8.12183C22 7.01929 21.1025 6.12183 20 6.12183H16C14.8975 6.12183 14 7.01929 14 8.12183V10.1218H10V8.12183C10 7.01929 9.10254 6.12183 8 6.12183H4C2.89746 6.12183 2 7.01929 2 8.12183V10.1218H1C0.447266 10.1218 0 10.5691 0 11.1218V21.1218C0 21.6746 0.447266 22.1218 1 22.1218H12V30.1218H10V28.1218C10 27.0193 9.10254 26.1218 8 26.1218H4C2.89746 26.1218 2 27.0193 2 28.1218V30.1218H1C0.447266 30.1218 0 30.5691 0 31.1218V41.1218C0 41.6746 0.447266 42.1218 1 42.1218H47C47.5527 42.1218 48 41.6746 48 41.1218V21.1218C48 20.5691 47.5527 20.1218 47 20.1218Z" fill="url(#paint0_linear_1463_1624)"/>
<defs>
<linearGradient id="paint0_linear_1463_1624" x1="-2.098" y1="15.3978" x2="48.99" y2="39.2218" gradientUnits="userSpaceOnUse">
<stop stop-color="white" stop-opacity="0.2"/>
<stop offset="1" stop-color="white" stop-opacity="0"/>
</linearGradient>
</defs>
</svg>
