<svg width="48" height="49" viewBox="0 0 48 49" fill="none" xmlns="http://www.w3.org/2000/svg">
<g clip-path="url(#clip0_1463_1630)">
<path d="M33.4064 19.223L37.9088 0.833984H20.6854L14.457 26.2603H22.8825L18.0655 47.2925H18.2018L39.7459 19.5903V19.223H33.4064Z" fill="#F8E868"/>
<path d="M17.0776 24.0633L22.7678 0.833984H20.6854L14.457 26.2603L22.8793 26.2595L18.0655 47.2925H18.2018L20.9602 43.7457L25.4643 24.0633H17.0776Z" fill="#EED60F"/>
<path d="M22.1172 3.02808H23.5234V4.43433H22.1172V3.02808Z" fill="white"/>
<path d="M24.9297 3.02808H26.3359V4.43433H24.9297V3.02808Z" fill="white"/>
<path d="M36.2133 44.0207L45.5762 32.5593H40.6513L41.3574 24.1218L32.4241 35.3718H37.1387L36.2133 44.0207Z" fill="#9EB6F4"/>
<path d="M41.3574 24.1218L32.4241 35.3718H37.1387L36.2133 44.0207L38.6694 41.0141L39.5064 33.1917H36.8839L41.0359 27.9629L41.3574 24.1218Z" fill="#6E91EF"/>
<path d="M13.6876 12.8719H9.46989L10.0746 5.24536L2.42383 14.9863H6.46155L5.66898 22.2874L13.6876 12.8719Z" fill="#D15573"/>
<path d="M10.0746 5.24536L2.42383 14.9863H6.46155L5.66898 22.2874L8.02886 19.5165L8.77136 12.6765H6.91886L9.77355 9.04186L10.0746 5.24536Z" fill="#C21D44"/>
<path d="M25.6123 36.6936L26.48 35.5786L27.5927 36.4445L26.725 37.5595L25.6123 36.6936Z" fill="black"/>
<path d="M40.4774 18.5627H34.3136L38.8286 0.121826H20.1047L13.5134 27.0301H21.9765L17.1458 48.1218H18.5124L25.8275 38.7157L24.7143 37.8499L19.3718 44.7195L23.7463 25.62H15.3108L21.2112 1.53201H37.0316L32.5165 19.9729H38.6172L27.3798 34.4225L28.493 35.2883L40.4774 19.878V18.5627Z" fill="black"/>
<path d="M36.0042 39.6178L35.2767 46.417L47.1057 31.9367H41.4471L42.2856 21.917L30.9697 36.1674H36.3734L36.155 38.2076L37.5573 38.3576L37.9425 34.7571H33.8903L40.4916 26.4439L39.9139 33.3469H44.1328L37.1832 41.8541L37.4064 39.7679L36.0042 39.6178Z" fill="black"/>
<path d="M15.1673 12.1937H10.1741L10.9048 2.97925L6.03503 9.1794L7.144 10.0505L9.12991 7.52209L8.64766 13.6038H12.1139L6.54747 20.14L7.17991 14.314H3.79534L6.22103 11.2257L5.11197 10.3547L0.894531 15.7242H5.60828L4.65109 24.5416L15.1673 12.1937Z" fill="black"/>
<path d="M8.70483 34.052H10.115V35.4622H8.70483V34.052Z" fill="black"/>
<path d="M8.70483 39.6931H10.115V41.1033H8.70483V39.6931Z" fill="black"/>
<path d="M11.5251 36.8726H12.9353V38.2827H11.5251V36.8726Z" fill="black"/>
<path d="M5.88428 36.8726H7.29446V38.2827H5.88428V36.8726Z" fill="black"/>
<path d="M42.55 5.84766H43.9602V7.25784H42.55V5.84766Z" fill="black"/>
<path d="M42.55 11.4885H43.9602V12.8987H42.55V11.4885Z" fill="black"/>
<path d="M45.3706 8.66821H46.7808V10.0784H45.3706V8.66821Z" fill="black"/>
<path d="M39.7297 8.66821H41.1399V10.0784H39.7297V8.66821Z" fill="black"/>
</g>
<defs>
<clipPath id="clip0_1463_1630">
<rect width="48" height="48" fill="white" transform="translate(0 0.121826)"/>
</clipPath>
</defs>
</svg>
