<svg width="48" height="49" viewBox="0 0 48 49" fill="none" xmlns="http://www.w3.org/2000/svg">
<path d="M18.6968 4.18426C13.8381 5.95278 9.86979 9.34541 7.3832 13.821C6.97876 14.5489 7.2744 15.4672 8.02911 15.8192L8.0576 15.8325C8.74297 16.1521 9.55278 15.8809 9.92114 15.2203C14.5757 6.87344 25.002 3.41493 33.7926 7.54082C42.9205 11.8251 46.9041 22.7701 42.6655 31.9193C39.7328 38.2075 33.378 42.5391 26.0474 42.5654C16.1236 42.5901 8.00044 34.7134 7.62477 24.8856L9.18658 26.4474C9.75912 27.02 10.6875 27.02 11.26 26.4474C11.8327 25.8748 11.8327 24.9465 11.26 24.3739L7.24011 20.354C6.66756 19.7814 5.73921 19.7814 5.16667 20.354L1.14676 24.3739C0.574125 24.9465 0.574125 25.8748 1.14676 26.4474C1.43304 26.7336 1.80824 26.8768 2.18353 26.8768C2.55873 26.8768 2.93402 26.7336 3.2203 26.4474L4.72728 24.9404C4.91704 30.3395 7.10789 35.3879 10.9476 39.2276C24.1914 52.6361 47.3786 42.966 47.2893 24.1743C47.7066 9.83522 32.0216 -1.12448 18.6968 4.18426Z" fill="#A2E62E"/>
<path d="M8.65901 14.1393C8.37115 14.6567 7.80441 14.9252 7.24414 14.8597C7.34347 15.266 7.61719 15.6269 8.02893 15.8189L8.05742 15.8322C8.74278 16.1519 9.55259 15.8806 9.92095 15.2201C13.2933 9.17272 19.6954 5.69238 26.3099 5.8023C19.2336 4.66114 12.34 7.52359 8.65901 14.1393Z" fill="#95CE25"/>
<path d="M7.62459 24.8853H6.52964C6.08247 24.8853 5.72826 25.2669 5.76537 25.7125C6.55081 35.1514 14.4941 42.5892 24.1379 42.5651C24.4396 42.564 24.7396 42.5549 25.0378 42.5394C15.5781 42.049 7.98752 34.3776 7.62459 24.8853Z" fill="#95CE25"/>
<path d="M24.8715 2.84631C35.7135 3.36863 45.714 12.6866 45.3795 24.1741C45.4383 36.548 35.4045 44.9662 24.7629 45.4451C36.0806 45.9568 47.3513 37.2864 47.289 24.1741C47.643 12.0146 36.4176 2.28576 24.8715 2.84631Z" fill="#95CE25"/>
<path d="M6.12563 21.1494L9.35044 24.3737C9.90846 24.9316 9.86404 25.9892 9.3316 26.5727C9.90649 27.0147 10.7334 26.9738 11.2599 26.4471C11.8325 25.8746 11.8325 24.9462 11.2599 24.3737L7.23999 20.3538C6.66744 19.7812 5.73909 19.7812 5.16655 20.3538L4.76221 20.7581C5.23739 20.6499 5.75568 20.7793 6.12563 21.1494Z" fill="#95CE25"/>
<path d="M29.0795 19.5175C29.0795 20.6626 28.8124 21.7449 28.3373 22.7064C27.1604 25.0865 24.7081 26.7235 21.8735 26.7235C21.4134 26.7235 20.9627 26.6804 20.5269 26.598C17.191 25.9673 14.6675 23.0371 14.6675 19.5175C14.6675 15.5378 17.8938 12.3115 21.8735 12.3115C25.8532 12.3115 29.0795 15.5378 29.0795 19.5175Z" fill="#FEE97D"/>
<path d="M28.3373 22.7066C27.1603 25.0868 24.708 26.7238 21.8734 26.7238C21.4133 26.7238 20.9626 26.6807 20.5269 26.5982C21.7029 24.2181 24.1552 22.5811 26.9907 22.5811C27.4508 22.5811 27.9005 22.6242 28.3373 22.7066Z" fill="#F9DA55"/>
<path d="M21.8737 12.3115C21.3666 12.3115 20.8721 12.3645 20.3945 12.4641C23.6647 13.1464 26.1215 16.0448 26.1215 19.5175C26.1215 22.9903 23.6647 25.8886 20.3945 26.571C20.872 26.6706 21.3666 26.7235 21.8737 26.7235C25.8535 26.7235 29.0797 23.4973 29.0797 19.5175C29.0797 15.5377 25.8535 12.3115 21.8737 12.3115Z" fill="#F9DA55"/>
<path d="M29.9484 36.9926C33.9282 36.9926 37.1545 33.7663 37.1545 29.7866C37.1545 25.8068 33.9282 22.5806 29.9484 22.5806C25.9687 22.5806 22.7424 25.8068 22.7424 29.7866C22.7424 33.7663 25.9687 36.9926 29.9484 36.9926Z" fill="#FEE97D"/>
<path d="M29.9485 22.5806C29.4415 22.5806 28.9469 22.6335 28.4695 22.7331C31.7396 23.4154 34.1963 26.3138 34.1963 29.7866C34.1963 33.2593 31.7395 36.1577 28.4695 36.84C28.9469 36.9396 29.4415 36.9926 29.9485 36.9926C33.9283 36.9926 37.1546 33.7664 37.1546 29.7866C37.1546 25.8068 33.9283 22.5806 29.9485 22.5806Z" fill="#F9DA55"/>
<path d="M17.4897 33.8431C18.6217 33.8431 19.5394 32.9254 19.5394 31.7934C19.5394 30.6613 18.6217 29.7437 17.4897 29.7437C16.3576 29.7437 15.4399 30.6613 15.4399 31.7934C15.4399 32.9254 16.3576 33.8431 17.4897 33.8431Z" fill="#FEE97D"/>
<path d="M19.5353 31.6634C19.4635 30.5337 18.4894 29.6761 17.3596 29.7478C17.0386 29.7683 16.7395 29.8617 16.4775 30.0108C17.0581 30.3408 17.4665 30.9472 17.5121 31.6634C17.5635 32.4721 17.1385 33.2008 16.4786 33.5761C16.8138 33.7666 17.2062 33.8653 17.6197 33.8391C18.7494 33.7672 19.607 32.7931 19.5353 31.6634Z" fill="#F9DA55"/>
<path d="M38.5553 6.23977C32.4422 1.96367 24.9256 0.950054 18.4464 3.52763C13.4746 5.33991 9.32784 8.87395 6.76891 13.4798C5.44325 15.9682 9.11897 18.0024 10.535 15.5627C12.7075 11.6669 16.2545 8.75794 20.5229 7.37174C24.8128 5.97871 29.4193 6.26461 33.4939 8.17706C42.2788 12.3003 46.1072 22.8186 42.0285 31.6223C40.6245 34.6328 38.4091 37.1846 35.6218 39.0018C32.77 40.8611 29.4584 41.8504 26.0457 41.8627C26.0305 41.8627 26.0161 41.8627 26.0008 41.8627C21.4107 41.8627 17.0586 40.1061 13.7429 36.9139C10.8883 34.1656 9.06593 30.6122 8.50135 26.7561L8.68942 26.9443C10.7384 28.9283 13.7403 25.9237 11.7569 23.8769L7.73699 19.857C6.92962 19.0155 5.47689 19.0155 4.66952 19.857L0.6498 23.8769C-1.33462 25.9258 1.67035 28.9276 3.71709 26.9444L4.13492 26.5265C4.66418 31.5092 6.87339 36.1474 10.4474 39.7216C14.2219 43.543 18.9805 45.755 24.2087 46.1183C24.2253 46.1194 24.2418 46.12 24.2581 46.12C24.624 46.12 24.9327 45.8366 24.9585 45.466C24.9854 45.0788 24.6933 44.743 24.306 44.7161C19.4243 44.3769 14.978 42.3083 11.4444 38.7308C7.7488 35.0351 5.61267 30.129 5.42938 24.9158C5.42844 24.3196 4.63691 24.0083 4.23003 24.4435L2.72314 25.9506C2.03422 26.6622 0.93195 25.5593 1.64365 24.8709L5.66346 20.851C5.94748 20.5548 6.45903 20.5549 6.74305 20.851L10.763 24.871C11.4749 25.5598 10.3717 26.662 9.68346 25.9505L8.12166 24.3887C7.69763 23.9355 6.87799 24.2937 6.9224 24.9125C7.1115 29.8576 9.18747 34.4795 12.7681 37.9266C16.3473 41.3725 21.0449 43.2685 26.0016 43.2684H26.05C29.7349 43.2551 33.3103 42.1869 36.3896 40.1794C39.397 38.2187 41.7874 35.4652 43.3031 32.2149C47.7066 22.7098 43.5742 11.3557 34.0911 6.90471C29.6924 4.84018 24.7196 4.53113 20.0887 6.03502C15.482 7.53105 11.6531 10.6716 9.30723 14.8783C8.85556 15.7351 7.51875 14.9943 7.9974 14.1626C10.3938 9.84952 14.2789 6.54038 18.9371 4.84495C18.9437 4.84252 18.9503 4.83999 18.9569 4.83736C24.997 2.4308 32.0225 3.38567 37.7495 7.3917C43.4721 11.3945 46.7756 17.6608 46.5866 24.1541C46.6309 29.5651 44.5995 34.6544 40.8034 38.4707C37.2569 42.0492 32.5245 44.2576 27.4778 44.6894C27.0911 44.7225 26.8043 45.0628 26.8375 45.4496C26.8706 45.8364 27.2121 46.123 27.5977 46.0899C32.9763 45.6297 38.0207 43.2751 41.8017 39.46C45.8499 35.3904 48.0313 29.9514 47.992 24.1827C48.1902 17.2194 44.6633 10.5122 38.5553 6.23977Z" fill="black"/>
<path d="M20.0553 11.8189C18.3496 12.2203 16.803 13.1983 15.7008 14.5727C14.5812 15.9686 13.9647 17.7247 13.9647 19.5175C13.9466 24.065 17.8711 27.7319 22.406 27.4079C22.1686 28.159 22.0398 28.958 22.0398 29.7867C22.0398 34.1476 25.5876 37.6955 29.9485 37.6955C34.3094 37.6955 37.8573 34.1476 37.8573 29.7867C37.8755 25.2416 33.9516 21.5703 29.4179 21.8976C30.215 19.4309 29.6796 16.5786 28.0408 14.5662C26.935 13.1904 25.3844 12.2133 23.6746 11.8149C23.2967 11.7267 22.9188 11.9618 22.8306 12.3399C22.7426 12.7179 22.9775 13.0957 23.3556 13.1838C26.312 13.8727 28.3767 16.4772 28.3767 19.5175C28.3767 20.4465 28.1859 21.3385 27.8103 22.1739C25.7776 22.7456 24.0747 24.1101 23.0575 25.9124C22.67 25.9839 22.2731 26.0206 21.8735 26.0206C18.2875 26.0206 15.3703 23.1033 15.3703 19.5174C15.3703 16.484 17.4293 13.8809 20.3773 13.187C20.7551 13.0981 20.9893 12.7197 20.9004 12.3419C20.8114 11.9641 20.4326 11.7299 20.0553 11.8189ZM29.9485 23.2835C33.5345 23.2835 36.4517 26.2008 36.4517 29.7867C36.4517 33.3725 33.5344 36.2899 29.9485 36.2899C26.3627 36.2899 23.4454 33.3725 23.4454 29.7867C23.4454 26.2007 26.3627 23.2835 29.9485 23.2835Z" fill="black"/>
<path d="M21.8146 15.0706C21.43 15.0822 21.1334 15.4177 21.1334 15.8026V15.9984C20.4458 16.2085 19.9245 16.8379 19.7722 17.6438C19.6256 18.4201 19.8523 19.1517 20.3587 19.549C20.8483 19.941 21.6312 20.2445 22.2572 20.4647C22.648 20.6031 22.8333 20.8562 22.7792 21.1773C22.7228 21.5122 22.4023 21.8744 21.831 21.8781C21.2562 21.8828 21.0861 21.8569 20.6591 21.5804C20.3396 21.3735 19.9008 21.4407 19.6818 21.7521C19.4519 22.0789 19.5402 22.5285 19.872 22.7453C20.3516 23.0585 20.7113 23.1959 21.1335 23.251V23.4246C21.1335 23.8095 21.4301 24.1451 21.8147 24.1566C22.2127 24.1685 22.5391 23.8494 22.5391 23.4541V23.1774C23.3082 22.9482 24.0072 22.35 24.1654 21.4107C24.4531 19.3913 22.6294 19.2898 21.2318 18.4473C20.9554 18.1282 21.2737 17.1753 21.8698 17.2844C22.7733 17.301 22.8778 18.0655 23.57 17.4529C23.8471 17.1525 23.8104 16.6758 23.4849 16.4287C23.1856 16.2016 22.9069 16.0441 22.5391 15.9524V15.7731C22.539 15.3778 22.2127 15.0587 21.8146 15.0706Z" fill="black"/>
<path d="M17.315 29.0466C15.8365 29.11 14.6184 30.4936 14.7426 31.9683C14.8352 33.4238 16.049 34.5462 17.4879 34.5462C19.0672 34.5523 20.3428 33.1952 20.2367 31.619C20.1403 30.1043 18.8284 28.9504 17.315 29.0466ZM17.5751 33.1378C16.8356 33.1851 16.1925 32.6203 16.1454 31.879C16.0804 31.1253 16.7343 30.4294 17.4905 30.4466C18.1946 30.4466 18.7887 30.9959 18.8338 31.7082V31.7081C18.881 32.4493 18.3163 33.0907 17.5751 33.1378Z" fill="black"/>
<path d="M32.2686 15.0549V13.5622C32.2686 13.174 31.9541 12.8594 31.5658 12.8594C31.1776 12.8594 30.863 13.174 30.863 13.5622V15.0549C30.863 15.443 31.1776 15.7577 31.5658 15.7577C31.9541 15.7577 32.2686 15.443 32.2686 15.0549Z" fill="black"/>
<path d="M36.3442 14.1258L34.4935 15.9765C33.8392 16.6121 34.8522 17.6245 35.4874 16.9703L37.3381 15.1196C37.6126 14.8452 37.6126 14.4001 37.3381 14.1258C37.0637 13.8513 36.6187 13.8513 36.3442 14.1258Z" fill="black"/>
<path d="M35.7063 19.8981C35.7063 20.2862 36.0209 20.6009 36.4091 20.6009H37.9019C38.2902 20.6009 38.6047 20.2862 38.6047 19.8981C38.6047 19.51 38.2902 19.1953 37.9019 19.1953H36.4091C36.0209 19.1953 35.7063 19.51 35.7063 19.8981Z" fill="black"/>
<path d="M29.8886 25.3397C29.5039 25.3512 29.2074 25.6868 29.2074 26.0716V26.2675C28.5198 26.4776 27.9985 27.107 27.8462 27.9129C27.6995 28.6891 27.9263 29.4208 28.4327 29.818C28.9223 30.2101 29.7051 30.5136 30.3312 30.7338C30.7219 30.8721 30.9073 31.1252 30.8532 31.4463C30.7968 31.7812 30.4762 32.1434 29.905 32.1472C29.3302 32.1518 29.16 32.126 28.733 31.8495C28.4136 31.6425 27.9748 31.7097 27.7558 32.0211C27.5259 32.348 27.6142 32.7976 27.946 33.0143C28.4256 33.3276 28.7853 33.4649 29.2075 33.52V33.6937C29.2075 34.0785 29.504 34.4141 29.8887 34.4256C30.2867 34.4375 30.6131 34.1185 30.6131 33.7231V33.4465C31.3822 33.2173 32.0812 32.6191 32.2393 31.6797C32.5271 29.6604 30.7034 29.5588 29.3058 28.7164C29.0293 28.3972 29.3476 27.4443 29.9438 27.5535C30.8472 27.5701 30.9518 28.3345 31.644 27.722C31.9211 27.4216 31.8844 26.9449 31.5588 26.6978C31.2595 26.4706 30.9809 26.3131 30.6131 26.2215V26.0421C30.613 25.6468 30.2867 25.3278 29.8886 25.3397Z" fill="black"/>
</svg>
