<svg width="48" height="49" viewBox="0 0 48 49" fill="none" xmlns="http://www.w3.org/2000/svg">
<g clip-path="url(#clip0_1463_2546)">
<path d="M47.2846 24.1222C47.2846 36.9821 36.8597 47.407 23.9999 47.407C11.14 47.407 0.715088 36.9821 0.715088 24.1222C0.715088 11.2623 11.14 0.837402 23.9999 0.837402C36.8597 0.837402 47.2846 11.2623 47.2846 24.1222Z" fill="#93DCFC"/>
<path d="M26.6866 43.364C26.3969 43.4047 26.1032 43.4387 25.8091 43.4662C15.126 44.4649 5.65546 36.6137 4.6557 25.9306C3.65705 15.2478 11.5082 5.77724 22.1913 4.77748C23.7294 4.63356 25.243 4.67348 26.7093 4.87966C35.4262 6.09877 42.4886 13.1681 43.3444 22.3128C44.3156 32.7014 36.9189 41.9431 26.6866 43.364Z" fill="#07A9F0"/>
<path d="M26.6866 43.3643C17.9686 42.1448 10.9062 35.0758 10.0515 25.9308C9.08029 15.5421 16.4766 6.30078 26.7093 4.87988C35.4262 6.099 42.4886 13.1683 43.3444 22.313C44.3156 32.7017 36.9189 41.9434 26.6866 43.3643Z" fill="#40C1FA"/>
<path d="M30.0582 14.3723V33.8716C30.0582 34.9131 29.2061 35.7649 28.1649 35.7649C27.1238 35.7649 26.272 34.9131 26.272 33.8716V14.3723C26.272 13.3308 27.1238 12.479 28.1649 12.479C28.6857 12.479 29.1588 12.6921 29.5016 13.0356C29.8451 13.3784 30.0582 13.8516 30.0582 14.3723Z" fill="#EBE1DC"/>
<path d="M21.7283 14.3723V33.8716C21.7283 34.9131 20.8761 35.7649 19.835 35.7649C19.3142 35.7649 18.8411 35.5518 18.4983 35.2083C18.1548 34.8655 17.9417 34.3923 17.9417 33.8716V14.3723C17.9417 13.3308 18.7938 12.479 19.835 12.479C20.8761 12.479 21.7283 13.3308 21.7283 14.3723Z" fill="#EBE1DC"/>
<path d="M21.7283 14.3723V27.3186C20.2257 26.3606 18.9348 25.0997 17.9417 23.6213V14.3723C17.9417 13.3308 18.7938 12.479 19.835 12.479C20.8761 12.479 21.7283 13.3308 21.7283 14.3723Z" fill="#FFF5F5"/>
<path d="M30.0582 14.3723V29.2504C29.5913 29.3016 29.1182 29.328 28.6384 29.328C27.8298 29.328 27.0385 29.2533 26.272 29.1112V14.3723C26.272 13.3308 27.1238 12.479 28.1649 12.479C28.6857 12.479 29.1588 12.6921 29.5016 13.0356C29.8451 13.3784 30.0582 13.8516 30.0582 14.3723Z" fill="#FFF5F5"/>
<path d="M40.967 7.15524C31.5898 -2.22159 16.4115 -2.22305 7.03317 7.15524C-2.34366 16.5324 -2.34512 31.7104 7.03317 41.0891C16.4104 50.4659 31.5887 50.467 40.967 41.0891C50.3438 31.7119 50.3453 16.5335 40.967 7.15524ZM24.0001 46.6969C11.5526 46.6969 1.42538 36.5697 1.42538 24.1222C1.42538 11.6743 11.5522 1.54745 24.0001 1.54745C36.4479 1.54745 46.5748 11.6743 46.5748 24.1222C46.5748 36.5697 36.4479 46.6969 24.0001 46.6969Z" fill="black"/>
<path d="M37.5249 9.20118C29.2343 1.69019 16.5033 2.4021 9.0788 10.5972C-1.52154 22.2987 4.89924 41.2183 20.5035 43.9594C20.8898 44.0271 21.2575 43.7693 21.3256 43.3829C21.3934 42.997 21.1352 42.6289 20.7492 42.5608C11.9748 41.0194 5.28046 33.3418 5.28046 24.099C5.28046 13.7092 13.6183 5.4021 24.0231 5.4021C34.4129 5.4021 42.7196 13.7404 42.7196 24.1448C42.7196 34.829 33.9672 43.1218 23.4676 42.8347C23.0757 42.8256 22.7494 43.1332 22.7388 43.525C22.7278 43.9169 23.0369 44.2432 23.4288 44.2542C29.2478 44.4142 34.9128 42.0712 38.9209 37.6466C46.3839 29.4091 45.7724 16.6726 37.5249 9.20118Z" fill="black"/>
<path d="M19.835 11.769C18.3994 11.769 17.2319 12.9369 17.2319 14.3724V16.8546C17.2319 17.2468 17.5498 17.5647 17.9416 17.5647C18.3339 17.5647 18.6517 17.2468 18.6517 16.8546V14.3724C18.6517 13.7198 19.1824 13.1892 19.835 13.1892C20.4875 13.1892 21.0182 13.7198 21.0182 14.3724V33.8717C21.0182 34.5243 20.4875 35.0549 19.835 35.0549C19.1824 35.0549 18.6517 34.5243 18.6517 33.8717V19.6942C18.6517 19.302 18.3339 18.9845 17.9416 18.9845C17.5498 18.9845 17.2319 19.302 17.2319 19.6942V33.8717C17.2319 35.3069 18.3994 36.4747 19.835 36.4747C21.2705 36.4747 22.438 35.3069 22.438 33.8717V14.3721C22.438 12.9369 21.2701 11.769 19.835 11.769Z" fill="black"/>
<path d="M30.0581 29.2596C30.4499 29.2596 30.7678 28.9418 30.7678 28.5496V14.3724C30.7678 12.9369 29.6003 11.769 28.1648 11.769C26.7296 11.769 25.5618 12.9369 25.5618 14.3724V33.8717C25.5618 35.3073 26.7296 36.4747 28.1648 36.4747C29.6003 36.4747 30.7678 35.3073 30.7678 33.8717V31.3895C30.7678 30.9973 30.4499 30.6794 30.0581 30.6794C29.6659 30.6794 29.348 30.9973 29.348 31.3895V33.8717C29.348 34.5243 28.8174 35.0549 28.1648 35.0549C27.5122 35.0549 26.9816 34.5243 26.9816 33.8717V14.3724C26.9816 13.7198 27.5122 13.1892 28.1648 13.1892C28.8174 13.1892 29.348 13.7198 29.348 14.3724V28.5496C29.348 28.9418 29.6659 29.2596 30.0581 29.2596Z" fill="black"/>
</g>
<defs>
<clipPath id="clip0_1463_2546">
<rect width="48" height="48" fill="white" transform="translate(0 0.12207)"/>
</clipPath>
</defs>
</svg>
