<svg width="48" height="49" viewBox="0 0 48 49" fill="none" xmlns="http://www.w3.org/2000/svg">
<path d="M47.2579 16.8722C46.7687 10.4173 41.4945 5.21956 35.0337 4.81588C30.981 4.56267 27.2945 6.1533 24.7308 8.82861C24.3288 9.24813 23.6715 9.24813 23.2695 8.82861C20.7057 6.1533 17.0192 4.56267 12.9666 4.81588C6.5057 5.21956 1.23149 10.4172 0.742401 16.8722C0.41203 21.2318 2.2166 25.1835 5.21956 27.7915H5.21928L22.6984 42.9719C23.4451 43.6203 24.5552 43.6203 25.3018 42.9719L42.7809 27.7915H42.7806C45.7837 25.1835 47.5883 21.2318 47.2579 16.8722Z" fill="#FE646F"/>
<path d="M47.2578 16.8721C46.9805 13.2124 45.165 9.95684 42.4672 7.75C44.1134 9.7626 45.1761 12.2675 45.3829 14.9972C45.7132 19.3568 43.9087 23.3085 40.9057 25.9165H40.906L23.4269 41.0969C22.6802 41.7453 21.57 41.7453 20.8234 41.0969L3.67529 26.204C4.1446 26.7756 4.66134 27.3067 5.21952 27.7914H5.21924L22.6983 42.9718C23.445 43.6202 24.5552 43.6202 25.3018 42.9718L42.7809 27.7914H42.7806C45.7837 25.1835 47.5882 21.2317 47.2578 16.8721Z" fill="#FD4755"/>
<path d="M31.9863 38.1686L20.0589 29.8865C19.6752 29.6201 19.2016 29.5202 18.7417 29.6028C17.4592 29.8333 16.0915 29.6289 14.8746 28.9263L6.8633 24.301C6.19675 23.9162 5.91888 23.0728 6.27194 22.3889C6.6489 21.6587 7.55414 21.3989 8.25763 21.8051L5.81679 20.3958C5.15023 20.011 4.87246 19.1676 5.22551 18.4837C5.60248 17.7535 6.50771 17.4938 7.2112 17.8999L5.97335 17.1851C5.26986 16.7789 5.04223 15.8651 5.48613 15.1736C5.90191 14.5259 6.77124 14.3447 7.43779 14.7296L8.64068 15.4241C7.93719 15.0179 7.70957 14.104 8.15347 13.4124C8.56925 12.7647 9.43849 12.5836 10.105 12.9684L18.4039 17.7597L17.9344 16.0076C17.6055 14.7801 18.3339 13.5185 19.5613 13.1897C20.2402 13.0078 20.9381 13.4106 21.12 14.0896L22.6404 19.7637C22.6404 19.7637 22.881 20.8236 23.1139 21.8492C23.2296 22.3585 23.5661 22.7897 24.0322 23.0256L37.0791 29.6286C40.0195 31.1168 40.7316 34.9981 38.5111 37.4331C36.8278 39.2789 34.0381 39.5934 31.9863 38.1686Z" fill="#FFE5C2"/>
<path d="M37.079 29.6286L36.0598 29.1128C38.0936 30.8943 38.377 34.0997 36.4485 36.2144C35.0706 37.7255 32.9512 38.2103 31.1021 37.5548L31.9862 38.1687C34.0381 39.5935 36.8278 39.2791 38.511 37.4333C40.7315 34.9981 40.0193 31.1168 37.079 29.6286Z" fill="#FED2A4"/>
<path d="M24.032 23.0257C23.5661 22.7898 23.2295 22.3587 23.1138 21.8493C23.0802 21.7016 23.0465 21.5532 23.0134 21.4072L11.7363 27.1146L14.8746 28.9264C15.6002 29.3454 16.3793 29.5871 17.1621 29.6652L26.9559 24.5053L24.032 23.0257Z" fill="#FED2A4"/>
<path d="M16.0137 38.1686L27.941 29.8865C28.3248 29.6201 28.7984 29.5202 29.2582 29.6028C30.5408 29.8333 31.9085 29.6289 33.1253 28.9263L41.1366 24.301C41.8032 23.9162 42.0811 23.0728 41.728 22.3889C41.351 21.6587 40.4458 21.3989 39.7423 21.8051L42.1832 20.3958C42.8497 20.011 43.1275 19.1676 42.7744 18.4837C42.3975 17.7535 41.4922 17.4938 40.7887 17.8999L42.0266 17.1851C42.7301 16.7789 42.9577 15.8651 42.5138 15.1736C42.098 14.5259 41.2287 14.3447 40.5622 14.7296L39.3593 15.4241C40.0628 15.0179 40.2904 14.104 39.8465 13.4124C39.4307 12.7647 38.5615 12.5836 37.8949 12.9684L29.5961 17.7597L30.0656 16.0076C30.3944 14.7801 29.666 13.5185 28.4387 13.1897C27.7597 13.0078 27.0619 13.4106 26.88 14.0896L25.3596 19.7637C25.3596 19.7637 25.1189 20.8236 24.8861 21.8492C24.7705 22.3585 24.4338 22.7897 23.9678 23.0256L10.9209 29.6286C7.98044 31.1168 7.26833 34.9981 9.48886 37.4331C11.1721 39.2789 13.9618 39.5934 16.0137 38.1686Z" fill="#FFE5C2"/>
<path d="M27.8638 27.1068C27.404 27.0242 26.9303 27.1241 26.5466 27.3905L14.6192 35.6726C12.6497 37.0402 10.0002 36.8053 8.30225 35.1519C8.48159 35.9691 8.87215 36.7568 9.48882 37.4331C11.172 39.279 13.9618 39.5934 16.0136 38.1686L27.941 29.8865C28.3247 29.62 28.7983 29.5202 29.2582 29.6028C30.5408 29.8332 31.9085 29.6288 33.1253 28.9263L41.1366 24.301C41.8032 23.9162 42.0809 23.0728 41.728 22.3889C41.351 21.6587 40.4458 21.3988 39.7423 21.805L31.731 26.4303C30.5141 27.1329 29.1463 27.3372 27.8638 27.1068Z" fill="#FED2A4"/>
<path d="M47.9588 16.8191C47.4423 10.0026 41.9044 4.54075 35.0775 4.11419C30.9985 3.85966 27.0422 5.40042 24.2231 8.34216C24.1019 8.46854 23.8981 8.46854 23.777 8.34216C20.958 5.40033 17.0022 3.85929 12.9226 4.11419C11.5282 4.20128 10.1596 4.50184 8.85483 5.00734C8.49267 5.14758 8.31296 5.55492 8.45321 5.91698C8.59355 6.27904 9.0007 6.45913 9.36294 6.3185C10.5329 5.86514 11.7601 5.5957 13.0103 5.51761C16.6755 5.28924 20.2296 6.67269 22.7618 9.31509C23.0901 9.65765 23.5299 9.84636 24.0001 9.84636C24.4704 9.84636 24.9101 9.65765 25.2384 9.31509C27.7705 6.67278 31.3247 5.28802 34.9899 5.51761C41.1203 5.90067 46.093 10.8048 46.5568 16.9252C46.8576 20.8938 45.3132 24.6609 42.3197 27.2607C42.3158 27.2642 42.3118 27.2677 42.3079 27.2712L38.9694 30.1705C38.5247 29.7007 37.9956 29.3043 37.3968 29.0013L35.801 28.1936L41.4886 24.9099C42.4963 24.3283 42.876 23.0792 42.3532 22.0663C42.2212 21.8107 42.0442 21.5894 41.8321 21.4106L42.535 21.0047C43.5426 20.4231 43.9224 19.1741 43.3996 18.1611C43.2554 17.8817 43.0573 17.6433 42.818 17.4563C43.093 17.1813 43.2916 16.8329 43.3845 16.4504C43.5235 15.8784 43.4246 15.2902 43.1059 14.7937C42.5979 14.0024 41.6433 13.6628 40.759 13.8947C40.7174 13.592 40.6097 13.299 40.4386 13.0326C39.8229 12.0736 38.5514 11.7777 37.5437 12.3595L36.4088 13.0148C36.0725 13.2089 35.9573 13.639 36.1515 13.9752C36.3456 14.3116 36.7756 14.4266 37.112 14.2326L38.2468 13.5773C38.5972 13.3752 39.0494 13.4716 39.2552 13.7922C39.3641 13.9619 39.3981 14.1626 39.3508 14.3573C39.3036 14.5517 39.1824 14.714 39.0096 14.8142C39.0091 14.8145 39.0086 14.8148 39.0082 14.815L33.8576 17.7888C33.5213 17.9829 33.4061 18.4129 33.6003 18.7492C33.795 19.0865 34.2253 19.2001 34.5607 19.0065L39.7113 16.0328C39.7115 16.0327 39.7117 16.0327 39.7117 16.0326C39.7124 16.0322 39.7131 16.0318 39.7137 16.0315L40.9142 15.3384C41.2645 15.1361 41.7167 15.2327 41.9225 15.5532C42.0315 15.723 42.0654 15.9237 42.0182 16.1183C41.9708 16.3133 41.8491 16.4758 41.6755 16.5761L40.4375 17.2909L35.3166 20.2474C34.9803 20.4416 34.8651 20.8716 35.0593 21.2079C35.254 21.5452 35.6843 21.6588 36.0197 21.4652L41.1407 18.5087L41.1423 18.5077C41.3155 18.4082 41.5166 18.3845 41.7085 18.4407C41.9008 18.4971 42.0576 18.6268 42.1501 18.8059C42.3248 19.1445 42.1821 19.5846 41.832 19.7867L39.3925 21.1951C39.3921 21.1954 39.3916 21.1957 39.391 21.196C39.3906 21.1962 39.39 21.1966 39.3895 21.1969L36.7164 22.7403C36.3801 22.9344 36.2649 23.3645 36.459 23.7007C36.6538 24.038 37.0841 24.1517 37.4195 23.9581L40.0942 22.4138C40.4522 22.2069 40.9114 22.3388 41.1036 22.7112C41.2785 23.0497 41.1357 23.4898 40.7855 23.6919L32.7742 28.3173C31.7495 28.9088 30.5452 29.1193 29.3828 28.9106C28.7326 28.7937 28.0783 28.9353 27.5404 29.3088C26.522 30.0159 17.3932 36.3547 15.6129 37.5909C13.8577 38.8096 11.4485 38.5382 10.0087 36.9591C9.0997 35.9623 8.71795 34.6295 8.96142 33.3026C9.20441 31.9779 10.0329 30.866 11.2388 30.2557C11.2388 30.2557 24.2852 23.653 24.2869 23.6523C24.9519 23.3136 25.4119 22.7107 25.5721 22.0049L26.0427 19.9325L27.5596 14.2715C27.6408 13.9682 27.9539 13.7873 28.2572 13.8687C28.6694 13.9793 29.0139 14.2436 29.2273 14.6131C29.4406 14.9827 29.4973 15.4133 29.3868 15.8256L28.9173 17.5776C28.8437 17.8524 28.9428 18.1443 29.1685 18.3175C29.3941 18.4906 29.7018 18.5108 29.9481 18.3686L34.1864 15.9216C34.5227 15.7274 34.6379 15.2974 34.4437 14.9611C34.2496 14.6248 33.8195 14.5097 33.4833 14.7038L30.715 16.302L30.7452 16.1896C30.9528 15.4145 30.8462 14.605 30.4451 13.9101C30.0438 13.2152 29.3961 12.7182 28.621 12.5105C27.5687 12.2283 26.4831 12.8552 26.2012 13.9075L24.6808 19.5816C24.6785 19.5904 24.6763 19.5991 24.6744 19.6079L24.2008 21.6935C24.1656 21.8487 24.0966 21.9913 24.0006 22.1126C23.9043 21.991 23.8351 21.8483 23.8 21.6934L23.3264 19.6079C23.3245 19.5991 23.3223 19.5904 23.32 19.5817L21.7996 13.9076C21.6631 13.3978 21.3362 12.9718 20.879 12.7079C20.4219 12.444 19.8895 12.374 19.3798 12.5105C18.6048 12.7182 17.957 13.2152 17.5557 13.9101C17.1546 14.605 17.048 15.4146 17.2556 16.1896L17.2858 16.302L10.457 12.3594C9.44938 11.7778 8.17777 12.0734 7.56222 13.0325C7.39113 13.299 7.28341 13.592 7.24178 13.8946C6.35764 13.6626 5.4029 14.0021 4.89488 14.7936C4.57632 15.2899 4.47732 15.8782 4.61616 16.4502C4.70907 16.8327 4.90763 17.1812 5.18269 17.4562C4.94363 17.6431 4.74544 17.8816 4.60116 18.161C4.07833 19.174 4.4581 20.423 5.46571 21.0046L6.16874 21.4105C5.95658 21.5893 5.77949 21.8108 5.64759 22.0663C5.12484 23.0792 5.50462 24.3282 6.51214 24.9098L12.1997 28.1935L10.6039 29.0012C10.0051 29.3042 9.476 29.7006 9.03126 30.1704L5.69268 27.2711C5.68874 27.2676 5.6849 27.264 5.68087 27.2607C2.68738 24.6608 1.14306 20.8937 1.44371 16.9251C1.71895 13.2936 3.59946 9.97302 6.60298 7.81502C6.91835 7.58842 6.99035 7.14902 6.76376 6.83375C6.53717 6.51828 6.09777 6.44628 5.78249 6.67297C2.44035 9.07415 0.347785 12.7722 0.0411329 16.8191C-0.293081 21.23 1.4214 25.4177 4.74591 28.3117C4.74985 28.3153 4.75397 28.3189 4.7581 28.3225L8.19755 31.3097C7.90262 31.8427 7.69197 32.4281 7.57806 33.049C7.25453 34.812 7.76171 36.5827 8.96948 37.907C10.0796 39.1243 11.6231 39.7566 13.1791 39.7566C14.3043 39.7566 15.4362 39.4259 16.4148 38.7463L16.6068 38.613L22.2373 43.503C22.7398 43.9393 23.3699 44.1575 24 44.1575C24.6302 44.1575 25.2604 43.9393 25.7629 43.5029L31.3932 38.6131L31.5852 38.7464C32.564 39.4261 33.6955 39.7567 34.8209 39.7567C36.3767 39.7567 37.9206 39.1243 39.0306 37.9071C40.2382 36.5827 40.7454 34.812 40.4219 33.0492C40.308 32.4282 40.0973 31.8428 39.8023 31.3098L43.2419 28.3227C43.246 28.3191 43.25 28.3155 43.2541 28.3118C46.5784 25.4177 48.2931 21.2297 47.9588 16.8191ZM7.21469 23.6923C6.86454 23.4902 6.72185 23.0501 6.8966 22.7116C6.98913 22.5324 7.14597 22.4026 7.33816 22.3463C7.53062 22.2897 7.73237 22.3139 7.90599 22.4142L10.5807 23.9585C10.9155 24.1518 11.3462 24.039 11.5412 23.7012C11.7353 23.3649 11.6201 22.9349 11.2839 22.7407L8.60911 21.1964L6.16827 19.7872C5.81812 19.5851 5.67543 19.145 5.85018 18.8065C5.94271 18.6273 6.09955 18.4975 6.29173 18.4412C6.48383 18.3848 6.6852 18.4087 6.85873 18.5087L6.85882 18.5087C6.85901 18.5088 6.85929 18.509 6.85948 18.5091L11.9804 21.4657C12.3152 21.6589 12.7459 21.5461 12.9409 21.2083C13.135 20.8721 13.0198 20.442 12.6835 20.2479L6.32473 16.5767C6.15102 16.4765 6.02943 16.3138 5.98199 16.1188C5.93474 15.9241 5.96868 15.7234 6.07761 15.5538C6.28349 15.2332 6.73582 15.1369 7.08607 15.3389L13.4395 19.007C13.7743 19.2002 14.205 19.0875 14.4 18.7497C14.5941 18.4134 14.4789 17.9834 14.1426 17.7892L8.99207 14.8155C8.99179 14.8153 8.99151 14.8152 8.99123 14.815C8.81808 14.7147 8.69667 14.5525 8.64933 14.3577C8.60208 14.163 8.63592 13.9623 8.74495 13.7927C8.95082 13.4719 9.40326 13.3756 9.75331 13.5777L18.0521 18.3691C18.2984 18.5112 18.6061 18.491 18.8318 18.318C19.0573 18.1448 19.1564 17.8529 19.0829 17.5781L18.6134 15.826C18.503 15.4139 18.5596 14.9832 18.7731 14.6136C18.9864 14.244 19.331 13.9796 19.7433 13.8692C19.8901 13.8299 20.0436 13.85 20.1754 13.9261C20.3071 14.0022 20.4014 14.125 20.4408 14.272L21.9576 19.933L22.4282 22.0053C22.4964 22.3055 22.6192 22.5862 22.7874 22.8353L13.698 27.4354L7.21469 23.6923ZM37.9915 36.9594C36.5518 38.5384 34.1424 38.81 32.3873 37.5912L29.364 35.492C29.0449 35.2703 28.6069 35.3494 28.3855 35.6685C28.1641 35.9874 28.243 36.4255 28.562 36.6471L30.2015 37.7854L24.8408 42.4411C24.3614 42.8573 23.6385 42.8573 23.1593 42.4412L17.7985 37.7854L24 33.4793L25.8728 34.7798C25.9952 34.8647 26.1349 34.9055 26.2732 34.9055C26.4959 34.9055 26.7148 34.8 26.8514 34.6032C27.0728 34.2843 26.9939 33.8462 26.6749 33.6247L25.2326 32.6233L28.3421 30.4641C28.5719 30.3047 28.853 30.2448 29.1339 30.295C30.6226 30.5626 32.1651 30.2927 33.4769 29.5354L34.346 29.0335L36.7615 30.2559C37.9629 30.8641 38.7949 31.9733 39.0388 33.3027C39.2823 34.6298 38.9005 35.9625 37.9915 36.9594Z" fill="black"/>
</svg>
